<?xml version="1.0" encoding="UTF-8"?>
<!DOCTYPE score-partwise PUBLIC "-//Recordare//DTD MusicXML 4.0 Partwise//EN"
  "http://www.musicxml.org/dtds/partwise.dtd">
<score-partwise version="4.0">
  <work>
    <work-title>Duet in G minor</work-title>
  </work>
  <identification>
    <creator type="composer">MusicLaude</creator>
  </identification>
  <part-list>
    <score-part id="P1">
      <part-name>Violin</part-name>
      <score-instrument id="P1-I1">
        <instrument-name>Violin</instrument-name>
      </score-instrument>
      <midi-instrument id="P1-I1">
        <midi-channel>1</midi-channel>
        <midi-program>41</midi-program>
      </midi-instrument>
    </score-part>
    <score-part id="P2">
      <part-name>Piano</part-name>
      <score-instrument id="P2-I1">
        <instrument-name>Piano</instrument-name>
      </score-instrument>
      <midi-instrument id="P2-I1">
        <midi-channel>2</midi-channel>
        <midi-program>1</midi-program>
      </midi-instrument>
    </score-part>
  </part-list>

  <!-- =============================== -->
  <!-- PART 1: VIOLIN                  -->
  <!-- =============================== -->
  <part id="P1">

    <!-- ===== PHRASE 1 (mm 1-4): Piano intro, violin enters m3 ===== -->

    <!-- Measure 1: Violin rests (piano intro) -->
    <measure number="1">
      <attributes>
        <divisions>4</divisions>
        <key><fifths>-2</fifths><mode>minor</mode></key>
        <time><beats>4</beats><beat-type>4</beat-type></time>
        <clef><sign>G</sign><line>2</line></clef>
      </attributes>
      <direction placement="above">
        <direction-type>
          <metronome>
            <beat-unit>quarter</beat-unit>
            <per-minute>88</per-minute>
          </metronome>
        </direction-type>
        <sound tempo="88"/>
      </direction>
      <note>
        <rest/>
        <duration>16</duration>
        <type>whole</type>
      </note>
    </measure>

    <!-- Measure 2: Violin rests (piano intro continues) -->
    <measure number="2">
      <note>
        <rest/>
        <duration>16</duration>
        <type>whole</type>
      </note>
    </measure>

    <!-- Measure 3: Violin enters with passionate G minor melody, mp -->
    <!-- D5(dotted-quarter=6) D5(eighth=2) Eb5(quarter=4) D5(quarter=4) = 16 -->
    <measure number="3">
      <direction placement="below">
        <direction-type><dynamics><mp/></dynamics></direction-type>
        <sound dynamics="70"/>
      </direction>
      <note>
        <pitch><step>D</step><octave>5</octave></pitch>
        <duration>6</duration>
        <type>quarter</type>
        <dot/>
      </note>
      <note>
        <pitch><step>D</step><octave>5</octave></pitch>
        <duration>2</duration>
        <type>eighth</type>
      </note>
      <note>
        <pitch><step>E</step><alter>-1</alter><octave>5</octave></pitch>
        <duration>4</duration>
        <type>quarter</type>
      </note>
      <note>
        <pitch><step>D</step><octave>5</octave></pitch>
        <duration>4</duration>
        <type>quarter</type>
      </note>
    </measure>

    <!-- Measure 4: Phrase 1 cadence - descend to Bb4, REST to mark phrase boundary -->
    <!-- C5(quarter=4) Bb4(quarter=4) rest(half=8) = 16 -->
    <measure number="4">
      <note>
        <pitch><step>C</step><octave>5</octave></pitch>
        <duration>4</duration>
        <type>quarter</type>
      </note>
      <note>
        <pitch><step>B</step><alter>-1</alter><octave>4</octave></pitch>
        <duration>4</duration>
        <type>quarter</type>
      </note>
      <note>
        <rest/>
        <duration>8</duration>
        <type>half</type>
      </note>
    </measure>

    <!-- ===== PHRASE 2 (mm 5-8): Ascending melody with chromatic passing tones ===== -->

    <!-- Measure 5: Ascending with E natural (melodic minor) and crescendo -->
    <!-- Bb4(dotted-quarter=6) C5(eighth=2) D5(quarter=4) E5(quarter=4) = 16 -->
    <measure number="5">
      <direction placement="below">
        <direction-type><wedge type="crescendo"/></direction-type>
      </direction>
      <note>
        <pitch><step>B</step><alter>-1</alter><octave>4</octave></pitch>
        <duration>6</duration>
        <type>quarter</type>
        <dot/>
      </note>
      <note>
        <pitch><step>C</step><octave>5</octave></pitch>
        <duration>2</duration>
        <type>eighth</type>
      </note>
      <note>
        <pitch><step>D</step><octave>5</octave></pitch>
        <duration>4</duration>
        <type>quarter</type>
      </note>
      <!-- E natural = melodic minor ascending -->
      <note>
        <pitch><step>E</step><octave>5</octave></pitch>
        <duration>4</duration>
        <type>quarter</type>
      </note>
    </measure>

    <!-- Measure 6: Peak on G5, chromatic descent with F# -->
    <!-- F#5(eighth=2) G5(half=8) F5(quarter=4) Eb5(eighth=2) = 16 -->
    <measure number="6">
      <direction placement="below">
        <direction-type><wedge type="stop"/></direction-type>
      </direction>
      <direction placement="below">
        <direction-type><dynamics><mf/></dynamics></direction-type>
        <sound dynamics="80"/>
      </direction>
      <note>
        <pitch><step>F</step><alter>1</alter><octave>5</octave></pitch>
        <duration>2</duration>
        <type>eighth</type>
      </note>
      <note>
        <pitch><step>G</step><octave>5</octave></pitch>
        <duration>8</duration>
        <type>half</type>
      </note>
      <note>
        <pitch><step>F</step><octave>5</octave></pitch>
        <duration>4</duration>
        <type>quarter</type>
      </note>
      <note>
        <pitch><step>E</step><alter>-1</alter><octave>5</octave></pitch>
        <duration>2</duration>
        <type>eighth</type>
      </note>
    </measure>

    <!-- Measure 7: Singing line with ornamental turn -->
    <!-- D5(dotted-quarter=6) C#5(eighth=2) D5(eighth=2) Eb5(eighth=2) D5(quarter=4) = 16 -->
    <measure number="7">
      <note>
        <pitch><step>D</step><octave>5</octave></pitch>
        <duration>6</duration>
        <type>quarter</type>
        <dot/>
      </note>
      <!-- C# chromatic lower neighbor -->
      <note>
        <pitch><step>C</step><alter>1</alter><octave>5</octave></pitch>
        <duration>2</duration>
        <type>eighth</type>
      </note>
      <note>
        <pitch><step>D</step><octave>5</octave></pitch>
        <duration>2</duration>
        <type>eighth</type>
      </note>
      <note>
        <pitch><step>E</step><alter>-1</alter><octave>5</octave></pitch>
        <duration>2</duration>
        <type>eighth</type>
      </note>
      <note>
        <pitch><step>D</step><octave>5</octave></pitch>
        <duration>4</duration>
        <type>quarter</type>
      </note>
    </measure>

    <!-- Measure 8: Phrase 2 cadence - half cadence on D, rest to mark boundary -->
    <!-- C5(quarter=4) A4(quarter=4) rest(quarter=4) rest(quarter=4) = 16 -->
    <measure number="8">
      <note>
        <pitch><step>C</step><octave>5</octave></pitch>
        <duration>4</duration>
        <type>quarter</type>
      </note>
      <note>
        <pitch><step>A</step><octave>4</octave></pitch>
        <duration>4</duration>
        <type>quarter</type>
      </note>
      <note>
        <rest/>
        <duration>4</duration>
        <type>quarter</type>
      </note>
      <note>
        <rest/>
        <duration>4</duration>
        <type>quarter</type>
      </note>
    </measure>

    <!-- ===== PHRASE 3 (mm 9-12): B section - Tonicize Bb major ===== -->

    <!-- Measure 9: Bright Bb major melody, forte, accented -->
    <!-- Bb5(quarter=4,accent) C6(quarter=4) D6(quarter=4) F5(quarter=4) = 16 -->
    <measure number="9">
      <direction placement="below">
        <direction-type><dynamics><f/></dynamics></direction-type>
        <sound dynamics="100"/>
      </direction>
      <note>
        <pitch><step>B</step><alter>-1</alter><octave>5</octave></pitch>
        <duration>4</duration>
        <type>quarter</type>
        <notations>
          <articulations><accent/></articulations>
        </notations>
      </note>
      <note>
        <pitch><step>C</step><octave>6</octave></pitch>
        <duration>4</duration>
        <type>quarter</type>
      </note>
      <note>
        <pitch><step>D</step><octave>6</octave></pitch>
        <duration>4</duration>
        <type>quarter</type>
      </note>
      <note>
        <pitch><step>F</step><octave>5</octave></pitch>
        <duration>4</duration>
        <type>quarter</type>
      </note>
    </measure>

    <!-- Measure 10: Continuing in Bb major, dramatic high Eb6 -->
    <!-- Eb6(half=8,accent) D6(quarter=4) C6(quarter=4) = 16 -->
    <measure number="10">
      <note>
        <pitch><step>E</step><alter>-1</alter><octave>6</octave></pitch>
        <duration>8</duration>
        <type>half</type>
        <notations>
          <articulations><accent/></articulations>
        </notations>
      </note>
      <note>
        <pitch><step>D</step><octave>6</octave></pitch>
        <duration>4</duration>
        <type>quarter</type>
      </note>
      <note>
        <pitch><step>C</step><octave>6</octave></pitch>
        <duration>4</duration>
        <type>quarter</type>
      </note>
    </measure>

    <!-- Measure 11: Descending back toward G minor with A natural (V/Bb) -->
    <!-- Bb5(dotted-quarter=6) A5(eighth=2) G5(quarter=4) F5(quarter=4) = 16 -->
    <measure number="11">
      <direction placement="below">
        <direction-type><wedge type="diminuendo"/></direction-type>
      </direction>
      <note>
        <pitch><step>B</step><alter>-1</alter><octave>5</octave></pitch>
        <duration>6</duration>
        <type>quarter</type>
        <dot/>
      </note>
      <note>
        <pitch><step>A</step><octave>5</octave></pitch>
        <duration>2</duration>
        <type>eighth</type>
      </note>
      <note>
        <pitch><step>G</step><octave>5</octave></pitch>
        <duration>4</duration>
        <type>quarter</type>
      </note>
      <note>
        <pitch><step>F</step><octave>5</octave></pitch>
        <duration>4</duration>
        <type>quarter</type>
      </note>
    </measure>

    <!-- Measure 12: Phrase 3 cadence - land on Bb, rest for phrase boundary -->
    <!-- Eb5(quarter=4) D5(quarter=4) rest(quarter=4) rest(quarter=4) = 16 -->
    <measure number="12">
      <direction placement="below">
        <direction-type><wedge type="stop"/></direction-type>
      </direction>
      <note>
        <pitch><step>E</step><alter>-1</alter><octave>5</octave></pitch>
        <duration>4</duration>
        <type>quarter</type>
      </note>
      <note>
        <pitch><step>D</step><octave>5</octave></pitch>
        <duration>4</duration>
        <type>quarter</type>
      </note>
      <note>
        <rest/>
        <duration>4</duration>
        <type>quarter</type>
      </note>
      <note>
        <rest/>
        <duration>4</duration>
        <type>quarter</type>
      </note>
    </measure>

    <!-- ===== PHRASE 4 (mm 13-16): Neapolitan + dim7 drama, back to G minor ===== -->

    <!-- Measure 13: Ab major color (Neapolitan) - mysterious -->
    <!-- Ab5(dotted-quarter=6) G5(eighth=2) F5(quarter=4) Eb5(quarter=4) = 16 -->
    <measure number="13">
      <direction placement="below">
        <direction-type><dynamics><mf/></dynamics></direction-type>
        <sound dynamics="80"/>
      </direction>
      <note>
        <pitch><step>A</step><alter>-1</alter><octave>5</octave></pitch>
        <duration>6</duration>
        <type>quarter</type>
        <dot/>
        <notations>
          <articulations><accent/></articulations>
        </notations>
      </note>
      <note>
        <pitch><step>G</step><octave>5</octave></pitch>
        <duration>2</duration>
        <type>eighth</type>
      </note>
      <note>
        <pitch><step>F</step><octave>5</octave></pitch>
        <duration>4</duration>
        <type>quarter</type>
      </note>
      <note>
        <pitch><step>E</step><alter>-1</alter><octave>5</octave></pitch>
        <duration>4</duration>
        <type>quarter</type>
      </note>
    </measure>

    <!-- Measure 14: Chromatic intensification over dim7 - F#5 leading tone -->
    <!-- D5(eighth=2) Eb5(eighth=2) F#5(quarter=4) G5(half=8) = 16 -->
    <measure number="14">
      <direction placement="below">
        <direction-type><wedge type="crescendo"/></direction-type>
      </direction>
      <note>
        <pitch><step>D</step><octave>5</octave></pitch>
        <duration>2</duration>
        <type>eighth</type>
      </note>
      <note>
        <pitch><step>E</step><alter>-1</alter><octave>5</octave></pitch>
        <duration>2</duration>
        <type>eighth</type>
      </note>
      <note>
        <pitch><step>F</step><alter>1</alter><octave>5</octave></pitch>
        <duration>4</duration>
        <type>quarter</type>
      </note>
      <note>
        <pitch><step>G</step><octave>5</octave></pitch>
        <duration>8</duration>
        <type>half</type>
      </note>
    </measure>

    <!-- Measure 15: Dramatic descent with B natural chromatic passing tone -->
    <!-- F#5(eighth=2) E5(eighth=2) Eb5(quarter=4) D5(quarter=4) B4(quarter=4) = 16 -->
    <measure number="15">
      <direction placement="below">
        <direction-type><wedge type="stop"/></direction-type>
      </direction>
      <note>
        <pitch><step>F</step><alter>1</alter><octave>5</octave></pitch>
        <duration>2</duration>
        <type>eighth</type>
      </note>
      <!-- E natural = melodic minor -->
      <note>
        <pitch><step>E</step><octave>5</octave></pitch>
        <duration>2</duration>
        <type>eighth</type>
      </note>
      <note>
        <pitch><step>E</step><alter>-1</alter><octave>5</octave></pitch>
        <duration>4</duration>
        <type>quarter</type>
      </note>
      <note>
        <pitch><step>D</step><octave>5</octave></pitch>
        <duration>4</duration>
        <type>quarter</type>
      </note>
      <!-- B natural chromatic passing tone -->
      <note>
        <pitch><step>B</step><octave>4</octave></pitch>
        <duration>4</duration>
        <type>quarter</type>
      </note>
    </measure>

    <!-- Measure 16: Phrase 4 cadence - resolve to G minor, rest for boundary -->
    <!-- C5(quarter=4) Bb4(quarter=4) rest(quarter=4) rest(quarter=4) = 16 -->
    <measure number="16">
      <note>
        <pitch><step>C</step><octave>5</octave></pitch>
        <duration>4</duration>
        <type>quarter</type>
      </note>
      <note>
        <pitch><step>B</step><alter>-1</alter><octave>4</octave></pitch>
        <duration>4</duration>
        <type>quarter</type>
      </note>
      <note>
        <rest/>
        <duration>4</duration>
        <type>quarter</type>
      </note>
      <note>
        <rest/>
        <duration>4</duration>
        <type>quarter</type>
      </note>
    </measure>

    <!-- ===== PHRASE 5 (mm 17-20): A' return - calm, p, with enrichments ===== -->

    <!-- Measure 17: Return of opening melody, p, gentle -->
    <!-- Bb4(dotted-quarter=6) A4(eighth=2) G4(half=8) = 16 -->
    <measure number="17">
      <direction placement="below">
        <direction-type><dynamics><p/></dynamics></direction-type>
        <sound dynamics="55"/>
      </direction>
      <note>
        <pitch><step>B</step><alter>-1</alter><octave>4</octave></pitch>
        <duration>6</duration>
        <type>quarter</type>
        <dot/>
      </note>
      <note>
        <pitch><step>A</step><octave>4</octave></pitch>
        <duration>2</duration>
        <type>eighth</type>
      </note>
      <note>
        <pitch><step>G</step><octave>4</octave></pitch>
        <duration>8</duration>
        <type>half</type>
      </note>
    </measure>

    <!-- Measure 18: Gentle echo with chromatic grace - A4, Bb4, B4, C5, D5 -->
    <!-- A4(quarter=4) Bb4(quarter=4) B4(eighth=2) C5(eighth=2) D5(quarter=4) = 16 -->
    <measure number="18">
      <note>
        <pitch><step>A</step><octave>4</octave></pitch>
        <duration>4</duration>
        <type>quarter</type>
      </note>
      <note>
        <pitch><step>B</step><alter>-1</alter><octave>4</octave></pitch>
        <duration>4</duration>
        <type>quarter</type>
      </note>
      <!-- B natural chromatic passing tone -->
      <note>
        <pitch><step>B</step><octave>4</octave></pitch>
        <duration>2</duration>
        <type>eighth</type>
      </note>
      <note>
        <pitch><step>C</step><octave>5</octave></pitch>
        <duration>2</duration>
        <type>eighth</type>
      </note>
      <note>
        <pitch><step>D</step><octave>5</octave></pitch>
        <duration>4</duration>
        <type>quarter</type>
      </note>
    </measure>

    <!-- Measure 19: Final descent with diminuendo -->
    <!-- C5(half=8) Bb4(quarter=4) A4(quarter=4) = 16 -->
    <measure number="19">
      <direction placement="below">
        <direction-type><wedge type="diminuendo"/></direction-type>
      </direction>
      <note>
        <pitch><step>C</step><octave>5</octave></pitch>
        <duration>8</duration>
        <type>half</type>
      </note>
      <note>
        <pitch><step>B</step><alter>-1</alter><octave>4</octave></pitch>
        <duration>4</duration>
        <type>quarter</type>
      </note>
      <note>
        <pitch><step>A</step><octave>4</octave></pitch>
        <duration>4</duration>
        <type>quarter</type>
      </note>
    </measure>

    <!-- Measure 20: Phrase 5 cadence - settle, rest for boundary -->
    <!-- G4(half=8) rest(half=8) = 16 -->
    <measure number="20">
      <direction placement="below">
        <direction-type><wedge type="stop"/></direction-type>
      </direction>
      <note>
        <pitch><step>G</step><octave>4</octave></pitch>
        <duration>8</duration>
        <type>half</type>
      </note>
      <note>
        <rest/>
        <duration>8</duration>
        <type>half</type>
      </note>
    </measure>

    <!-- ===== PHRASE 6 (mm 21-24): Final coda ===== -->

    <!-- Measure 21: Last whisper of melody, pp -->
    <!-- D5(dotted-quarter=6) C5(eighth=2) Bb4(quarter=4) A4(quarter=4) = 16 -->
    <measure number="21">
      <direction placement="below">
        <direction-type><dynamics><pp/></dynamics></direction-type>
        <sound dynamics="40"/>
      </direction>
      <note>
        <pitch><step>D</step><octave>5</octave></pitch>
        <duration>6</duration>
        <type>quarter</type>
        <dot/>
      </note>
      <note>
        <pitch><step>C</step><octave>5</octave></pitch>
        <duration>2</duration>
        <type>eighth</type>
      </note>
      <note>
        <pitch><step>B</step><alter>-1</alter><octave>4</octave></pitch>
        <duration>4</duration>
        <type>quarter</type>
      </note>
      <note>
        <pitch><step>A</step><octave>4</octave></pitch>
        <duration>4</duration>
        <type>quarter</type>
      </note>
    </measure>

    <!-- Measure 22: Chromatic sigh - F#4, G4, rest -->
    <!-- F#4(quarter=4) G4(half=8) rest(quarter=4) = 16 -->
    <measure number="22">
      <note>
        <pitch><step>F</step><alter>1</alter><octave>4</octave></pitch>
        <duration>4</duration>
        <type>quarter</type>
      </note>
      <note>
        <pitch><step>G</step><octave>4</octave></pitch>
        <duration>8</duration>
        <type>half</type>
      </note>
      <note>
        <rest/>
        <duration>4</duration>
        <type>quarter</type>
      </note>
    </measure>

    <!-- Measure 23: Brief ascending sigh then silence -->
    <!-- A4(quarter=4) Bb4(quarter=4) rest(half=8) = 16 -->
    <measure number="23">
      <note>
        <pitch><step>A</step><octave>4</octave></pitch>
        <duration>4</duration>
        <type>quarter</type>
      </note>
      <note>
        <pitch><step>B</step><alter>-1</alter><octave>4</octave></pitch>
        <duration>4</duration>
        <type>quarter</type>
      </note>
      <note>
        <rest/>
        <duration>8</duration>
        <type>half</type>
      </note>
    </measure>

    <!-- Measure 24: Final bar - low G3 whole note with fermata, ppp -->
    <!-- G3(whole=16, fermata) = 16 -->
    <measure number="24">
      <direction placement="below">
        <direction-type><dynamics><ppp/></dynamics></direction-type>
        <sound dynamics="30"/>
      </direction>
      <note>
        <pitch><step>G</step><octave>3</octave></pitch>
        <duration>16</duration>
        <type>whole</type>
        <notations>
          <fermata/>
        </notations>
      </note>
      <barline location="right">
        <bar-style>light-heavy</bar-style>
      </barline>
    </measure>

  </part>

  <!-- =============================== -->
  <!-- PART 2: PIANO                   -->
  <!-- =============================== -->
  <part id="P2">

    <!-- ===== PHRASE 1 (mm 1-4): Gm intro with V7 ===== -->

    <!-- Measure 1: Piano intro - pp, arpeggiated G minor chord -->
    <!-- G3(eighth=2) Bb3(eighth=2) D4(eighth=2) G4(eighth=2) D4(eighth=2) Bb3(eighth=2) G3(quarter=4) = 16 -->
    <measure number="1">
      <attributes>
        <divisions>4</divisions>
        <key><fifths>-2</fifths><mode>minor</mode></key>
        <time><beats>4</beats><beat-type>4</beat-type></time>
        <clef><sign>G</sign><line>2</line></clef>
      </attributes>
      <direction placement="above">
        <direction-type>
          <metronome>
            <beat-unit>quarter</beat-unit>
            <per-minute>88</per-minute>
          </metronome>
        </direction-type>
        <sound tempo="88"/>
      </direction>
      <direction placement="below">
        <direction-type><dynamics><pp/></dynamics></direction-type>
        <sound dynamics="40"/>
      </direction>
      <note>
        <pitch><step>G</step><octave>3</octave></pitch>
        <duration>2</duration>
        <type>eighth</type>
      </note>
      <note>
        <pitch><step>B</step><alter>-1</alter><octave>3</octave></pitch>
        <duration>2</duration>
        <type>eighth</type>
      </note>
      <note>
        <pitch><step>D</step><octave>4</octave></pitch>
        <duration>2</duration>
        <type>eighth</type>
      </note>
      <note>
        <pitch><step>G</step><octave>4</octave></pitch>
        <duration>2</duration>
        <type>eighth</type>
      </note>
      <note>
        <pitch><step>D</step><octave>4</octave></pitch>
        <duration>2</duration>
        <type>eighth</type>
      </note>
      <note>
        <pitch><step>B</step><alter>-1</alter><octave>3</octave></pitch>
        <duration>2</duration>
        <type>eighth</type>
      </note>
      <note>
        <pitch><step>G</step><octave>3</octave></pitch>
        <duration>4</duration>
        <type>quarter</type>
      </note>
    </measure>

    <!-- Measure 2: D7 arpeggio (V7 with C = the 7th) -->
    <!-- D3(eighth=2) F#3(eighth=2) A3(eighth=2) C4(eighth=2) A3(eighth=2) F#3(eighth=2) D3(quarter=4) = 16 -->
    <measure number="2">
      <note>
        <pitch><step>D</step><octave>3</octave></pitch>
        <duration>2</duration>
        <type>eighth</type>
      </note>
      <note>
        <pitch><step>F</step><alter>1</alter><octave>3</octave></pitch>
        <duration>2</duration>
        <type>eighth</type>
      </note>
      <note>
        <pitch><step>A</step><octave>3</octave></pitch>
        <duration>2</duration>
        <type>eighth</type>
      </note>
      <note>
        <pitch><step>C</step><octave>4</octave></pitch>
        <duration>2</duration>
        <type>eighth</type>
      </note>
      <note>
        <pitch><step>A</step><octave>3</octave></pitch>
        <duration>2</duration>
        <type>eighth</type>
      </note>
      <note>
        <pitch><step>F</step><alter>1</alter><octave>3</octave></pitch>
        <duration>2</duration>
        <type>eighth</type>
      </note>
      <note>
        <pitch><step>D</step><octave>3</octave></pitch>
        <duration>4</duration>
        <type>quarter</type>
      </note>
    </measure>

    <!-- Measure 3: Gm7 under violin melody - mp (adding F = 7th of Gm) -->
    <!-- G3(eighth=2) Bb3(eighth=2) D4(eighth=2) F4(eighth=2) D4(eighth=2) Bb3(eighth=2) G3(quarter=4) = 16 -->
    <measure number="3">
      <direction placement="below">
        <direction-type><dynamics><mp/></dynamics></direction-type>
        <sound dynamics="70"/>
      </direction>
      <note>
        <pitch><step>G</step><octave>3</octave></pitch>
        <duration>2</duration>
        <type>eighth</type>
      </note>
      <note>
        <pitch><step>B</step><alter>-1</alter><octave>3</octave></pitch>
        <duration>2</duration>
        <type>eighth</type>
      </note>
      <note>
        <pitch><step>D</step><octave>4</octave></pitch>
        <duration>2</duration>
        <type>eighth</type>
      </note>
      <!-- F4 = 7th of Gm7 -->
      <note>
        <pitch><step>F</step><octave>4</octave></pitch>
        <duration>2</duration>
        <type>eighth</type>
      </note>
      <note>
        <pitch><step>D</step><octave>4</octave></pitch>
        <duration>2</duration>
        <type>eighth</type>
      </note>
      <note>
        <pitch><step>B</step><alter>-1</alter><octave>3</octave></pitch>
        <duration>2</duration>
        <type>eighth</type>
      </note>
      <note>
        <pitch><step>G</step><octave>3</octave></pitch>
        <duration>4</duration>
        <type>quarter</type>
      </note>
    </measure>

    <!-- Measure 4: Cm7 arpeggio (ii7 in Bb, iv7 in Gm) -->
    <!-- C3(eighth=2) Eb3(eighth=2) G3(eighth=2) Bb3(eighth=2) G3(eighth=2) Eb3(eighth=2) C3(quarter=4) = 16 -->
    <measure number="4">
      <note>
        <pitch><step>C</step><octave>3</octave></pitch>
        <duration>2</duration>
        <type>eighth</type>
      </note>
      <note>
        <pitch><step>E</step><alter>-1</alter><octave>3</octave></pitch>
        <duration>2</duration>
        <type>eighth</type>
      </note>
      <note>
        <pitch><step>G</step><octave>3</octave></pitch>
        <duration>2</duration>
        <type>eighth</type>
      </note>
      <!-- Bb3 = 7th of Cm7 -->
      <note>
        <pitch><step>B</step><alter>-1</alter><octave>3</octave></pitch>
        <duration>2</duration>
        <type>eighth</type>
      </note>
      <note>
        <pitch><step>G</step><octave>3</octave></pitch>
        <duration>2</duration>
        <type>eighth</type>
      </note>
      <note>
        <pitch><step>E</step><alter>-1</alter><octave>3</octave></pitch>
        <duration>2</duration>
        <type>eighth</type>
      </note>
      <note>
        <pitch><step>C</step><octave>3</octave></pitch>
        <duration>4</duration>
        <type>quarter</type>
      </note>
    </measure>

    <!-- ===== PHRASE 2 (mm 5-8): EbMaj7 + D7 ===== -->

    <!-- Measure 5: EbMaj7 arpeggio (III7, relative major 7th) with crescendo -->
    <!-- Eb3(eighth=2) G3(eighth=2) Bb3(eighth=2) D4(eighth=2) Bb3(eighth=2) G3(eighth=2) Eb3(quarter=4) = 16 -->
    <measure number="5">
      <direction placement="below">
        <direction-type><wedge type="crescendo"/></direction-type>
      </direction>
      <note>
        <pitch><step>E</step><alter>-1</alter><octave>3</octave></pitch>
        <duration>2</duration>
        <type>eighth</type>
      </note>
      <note>
        <pitch><step>G</step><octave>3</octave></pitch>
        <duration>2</duration>
        <type>eighth</type>
      </note>
      <note>
        <pitch><step>B</step><alter>-1</alter><octave>3</octave></pitch>
        <duration>2</duration>
        <type>eighth</type>
      </note>
      <!-- D4 = 7th of EbMaj7 -->
      <note>
        <pitch><step>D</step><octave>4</octave></pitch>
        <duration>2</duration>
        <type>eighth</type>
      </note>
      <note>
        <pitch><step>B</step><alter>-1</alter><octave>3</octave></pitch>
        <duration>2</duration>
        <type>eighth</type>
      </note>
      <note>
        <pitch><step>G</step><octave>3</octave></pitch>
        <duration>2</duration>
        <type>eighth</type>
      </note>
      <note>
        <pitch><step>E</step><alter>-1</alter><octave>3</octave></pitch>
        <duration>4</duration>
        <type>quarter</type>
      </note>
    </measure>

    <!-- Measure 6: D7 arpeggio (V7) -->
    <!-- D3(eighth=2) F#3(eighth=2) A3(eighth=2) C4(eighth=2) A3(eighth=2) F#3(eighth=2) D3(quarter=4) = 16 -->
    <measure number="6">
      <direction placement="below">
        <direction-type><wedge type="stop"/></direction-type>
      </direction>
      <direction placement="below">
        <direction-type><dynamics><mf/></dynamics></direction-type>
        <sound dynamics="80"/>
      </direction>
      <note>
        <pitch><step>D</step><octave>3</octave></pitch>
        <duration>2</duration>
        <type>eighth</type>
      </note>
      <note>
        <pitch><step>F</step><alter>1</alter><octave>3</octave></pitch>
        <duration>2</duration>
        <type>eighth</type>
      </note>
      <note>
        <pitch><step>A</step><octave>3</octave></pitch>
        <duration>2</duration>
        <type>eighth</type>
      </note>
      <note>
        <pitch><step>C</step><octave>4</octave></pitch>
        <duration>2</duration>
        <type>eighth</type>
      </note>
      <note>
        <pitch><step>A</step><octave>3</octave></pitch>
        <duration>2</duration>
        <type>eighth</type>
      </note>
      <note>
        <pitch><step>F</step><alter>1</alter><octave>3</octave></pitch>
        <duration>2</duration>
        <type>eighth</type>
      </note>
      <note>
        <pitch><step>D</step><octave>3</octave></pitch>
        <duration>4</duration>
        <type>quarter</type>
      </note>
    </measure>

    <!-- Measure 7: Gm arpeggio with added 9th (A) for color -->
    <!-- G3(eighth=2) Bb3(eighth=2) D4(eighth=2) A4(eighth=2) D4(eighth=2) Bb3(eighth=2) G3(quarter=4) = 16 -->
    <measure number="7">
      <note>
        <pitch><step>G</step><octave>3</octave></pitch>
        <duration>2</duration>
        <type>eighth</type>
      </note>
      <note>
        <pitch><step>B</step><alter>-1</alter><octave>3</octave></pitch>
        <duration>2</duration>
        <type>eighth</type>
      </note>
      <note>
        <pitch><step>D</step><octave>4</octave></pitch>
        <duration>2</duration>
        <type>eighth</type>
      </note>
      <!-- A4 = added 9th -->
      <note>
        <pitch><step>A</step><octave>4</octave></pitch>
        <duration>2</duration>
        <type>eighth</type>
      </note>
      <note>
        <pitch><step>D</step><octave>4</octave></pitch>
        <duration>2</duration>
        <type>eighth</type>
      </note>
      <note>
        <pitch><step>B</step><alter>-1</alter><octave>3</octave></pitch>
        <duration>2</duration>
        <type>eighth</type>
      </note>
      <note>
        <pitch><step>G</step><octave>3</octave></pitch>
        <duration>4</duration>
        <type>quarter</type>
      </note>
    </measure>

    <!-- Measure 8: Cm7 -> D7 half-cadence (half bar each) -->
    <!-- Cm7: C3+Eb3+G3+Bb3(half=8) then D7: D3+F#3+A3+C4(half=8) = 16 -->
    <measure number="8">
      <note>
        <pitch><step>C</step><octave>3</octave></pitch>
        <duration>8</duration>
        <type>half</type>
      </note>
      <note>
        <chord/>
        <pitch><step>E</step><alter>-1</alter><octave>3</octave></pitch>
        <duration>8</duration>
        <type>half</type>
      </note>
      <note>
        <chord/>
        <pitch><step>G</step><octave>3</octave></pitch>
        <duration>8</duration>
        <type>half</type>
      </note>
      <note>
        <chord/>
        <pitch><step>B</step><alter>-1</alter><octave>3</octave></pitch>
        <duration>8</duration>
        <type>half</type>
      </note>
      <note>
        <pitch><step>D</step><octave>3</octave></pitch>
        <duration>8</duration>
        <type>half</type>
        <notations>
          <articulations><staccato/></articulations>
        </notations>
      </note>
      <note>
        <chord/>
        <pitch><step>F</step><alter>1</alter><octave>3</octave></pitch>
        <duration>8</duration>
        <type>half</type>
      </note>
      <note>
        <chord/>
        <pitch><step>A</step><octave>3</octave></pitch>
        <duration>8</duration>
        <type>half</type>
      </note>
      <note>
        <chord/>
        <pitch><step>C</step><octave>4</octave></pitch>
        <duration>8</duration>
        <type>half</type>
      </note>
    </measure>

    <!-- ===== PHRASE 3 (mm 9-12): TONICIZE Bb MAJOR ===== -->

    <!-- Measure 9: Bb major chords - forte, staccato (F7 -> Bb) -->
    <!-- F7: F3+A3+C4+Eb4(quarter=4,staccato) F3+A3+C4+Eb4(quarter=4) Bb: Bb2+D3+F3+Bb3(quarter=4,staccato) Bb2+D3+F3+Bb3(quarter=4) = 16 -->
    <measure number="9">
      <direction placement="below">
        <direction-type><dynamics><f/></dynamics></direction-type>
        <sound dynamics="100"/>
      </direction>
      <!-- F7 chord (V7 of Bb) -->
      <note>
        <pitch><step>F</step><octave>3</octave></pitch>
        <duration>4</duration>
        <type>quarter</type>
        <notations>
          <articulations><staccato/></articulations>
        </notations>
      </note>
      <note>
        <chord/>
        <pitch><step>A</step><octave>3</octave></pitch>
        <duration>4</duration>
        <type>quarter</type>
      </note>
      <note>
        <chord/>
        <pitch><step>C</step><octave>4</octave></pitch>
        <duration>4</duration>
        <type>quarter</type>
      </note>
      <note>
        <chord/>
        <pitch><step>E</step><alter>-1</alter><octave>4</octave></pitch>
        <duration>4</duration>
        <type>quarter</type>
      </note>
      <!-- F7 again -->
      <note>
        <pitch><step>F</step><octave>3</octave></pitch>
        <duration>4</duration>
        <type>quarter</type>
      </note>
      <note>
        <chord/>
        <pitch><step>A</step><octave>3</octave></pitch>
        <duration>4</duration>
        <type>quarter</type>
      </note>
      <note>
        <chord/>
        <pitch><step>C</step><octave>4</octave></pitch>
        <duration>4</duration>
        <type>quarter</type>
      </note>
      <note>
        <chord/>
        <pitch><step>E</step><alter>-1</alter><octave>4</octave></pitch>
        <duration>4</duration>
        <type>quarter</type>
      </note>
      <!-- Bb major chord -->
      <note>
        <pitch><step>B</step><alter>-1</alter><octave>2</octave></pitch>
        <duration>4</duration>
        <type>quarter</type>
        <notations>
          <articulations><staccato/></articulations>
        </notations>
      </note>
      <note>
        <chord/>
        <pitch><step>D</step><octave>3</octave></pitch>
        <duration>4</duration>
        <type>quarter</type>
      </note>
      <note>
        <chord/>
        <pitch><step>F</step><octave>3</octave></pitch>
        <duration>4</duration>
        <type>quarter</type>
      </note>
      <note>
        <chord/>
        <pitch><step>B</step><alter>-1</alter><octave>3</octave></pitch>
        <duration>4</duration>
        <type>quarter</type>
      </note>
      <!-- Bb major again -->
      <note>
        <pitch><step>B</step><alter>-1</alter><octave>2</octave></pitch>
        <duration>4</duration>
        <type>quarter</type>
      </note>
      <note>
        <chord/>
        <pitch><step>D</step><octave>3</octave></pitch>
        <duration>4</duration>
        <type>quarter</type>
      </note>
      <note>
        <chord/>
        <pitch><step>F</step><octave>3</octave></pitch>
        <duration>4</duration>
        <type>quarter</type>
      </note>
      <note>
        <chord/>
        <pitch><step>B</step><alter>-1</alter><octave>3</octave></pitch>
        <duration>4</duration>
        <type>quarter</type>
      </note>
    </measure>

    <!-- Measure 10: Eb major -> Bb (IV -> I in Bb major) -->
    <!-- EbMaj: Eb3+G3+Bb3+Eb4(half=8, accent) BbMaj: Bb2+D3+F3+Bb3(half=8) = 16 -->
    <measure number="10">
      <note>
        <pitch><step>E</step><alter>-1</alter><octave>3</octave></pitch>
        <duration>8</duration>
        <type>half</type>
        <notations>
          <articulations><accent/></articulations>
        </notations>
      </note>
      <note>
        <chord/>
        <pitch><step>G</step><octave>3</octave></pitch>
        <duration>8</duration>
        <type>half</type>
      </note>
      <note>
        <chord/>
        <pitch><step>B</step><alter>-1</alter><octave>3</octave></pitch>
        <duration>8</duration>
        <type>half</type>
      </note>
      <note>
        <chord/>
        <pitch><step>E</step><alter>-1</alter><octave>4</octave></pitch>
        <duration>8</duration>
        <type>half</type>
      </note>
      <note>
        <pitch><step>B</step><alter>-1</alter><octave>2</octave></pitch>
        <duration>8</duration>
        <type>half</type>
      </note>
      <note>
        <chord/>
        <pitch><step>D</step><octave>3</octave></pitch>
        <duration>8</duration>
        <type>half</type>
      </note>
      <note>
        <chord/>
        <pitch><step>F</step><octave>3</octave></pitch>
        <duration>8</duration>
        <type>half</type>
      </note>
      <note>
        <chord/>
        <pitch><step>B</step><alter>-1</alter><octave>3</octave></pitch>
        <duration>8</duration>
        <type>half</type>
      </note>
    </measure>

    <!-- Measure 11: Cm7 arpeggio (ii7 of Bb) descending with diminuendo -->
    <!-- C3(eighth=2) Eb3(eighth=2) G3(eighth=2) Bb3(eighth=2) G3(eighth=2) Eb3(eighth=2) C3(quarter=4) = 16 -->
    <measure number="11">
      <direction placement="below">
        <direction-type><wedge type="diminuendo"/></direction-type>
      </direction>
      <note>
        <pitch><step>C</step><octave>3</octave></pitch>
        <duration>2</duration>
        <type>eighth</type>
      </note>
      <note>
        <pitch><step>E</step><alter>-1</alter><octave>3</octave></pitch>
        <duration>2</duration>
        <type>eighth</type>
      </note>
      <note>
        <pitch><step>G</step><octave>3</octave></pitch>
        <duration>2</duration>
        <type>eighth</type>
      </note>
      <note>
        <pitch><step>B</step><alter>-1</alter><octave>3</octave></pitch>
        <duration>2</duration>
        <type>eighth</type>
      </note>
      <note>
        <pitch><step>G</step><octave>3</octave></pitch>
        <duration>2</duration>
        <type>eighth</type>
      </note>
      <note>
        <pitch><step>E</step><alter>-1</alter><octave>3</octave></pitch>
        <duration>2</duration>
        <type>eighth</type>
      </note>
      <note>
        <pitch><step>C</step><octave>3</octave></pitch>
        <duration>4</duration>
        <type>quarter</type>
      </note>
    </measure>

    <!-- Measure 12: F7 -> Bb cadence (half bar each) then pivot -->
    <!-- F7: F3+A3+C4+Eb4(half=8) Bb: Bb2+D3+F3(half=8) = 16 -->
    <measure number="12">
      <direction placement="below">
        <direction-type><wedge type="stop"/></direction-type>
      </direction>
      <note>
        <pitch><step>F</step><octave>3</octave></pitch>
        <duration>8</duration>
        <type>half</type>
      </note>
      <note>
        <chord/>
        <pitch><step>A</step><octave>3</octave></pitch>
        <duration>8</duration>
        <type>half</type>
      </note>
      <note>
        <chord/>
        <pitch><step>C</step><octave>4</octave></pitch>
        <duration>8</duration>
        <type>half</type>
      </note>
      <note>
        <chord/>
        <pitch><step>E</step><alter>-1</alter><octave>4</octave></pitch>
        <duration>8</duration>
        <type>half</type>
      </note>
      <note>
        <pitch><step>B</step><alter>-1</alter><octave>2</octave></pitch>
        <duration>8</duration>
        <type>half</type>
      </note>
      <note>
        <chord/>
        <pitch><step>D</step><octave>3</octave></pitch>
        <duration>8</duration>
        <type>half</type>
      </note>
      <note>
        <chord/>
        <pitch><step>F</step><octave>3</octave></pitch>
        <duration>8</duration>
        <type>half</type>
      </note>
    </measure>

    <!-- ===== PHRASE 4 (mm 13-16): Neapolitan + dim7 back to Gm ===== -->

    <!-- Measure 13: Ab major chord (Neapolitan of Gm) -->
    <!-- Ab2(eighth=2) C3(eighth=2) Eb3(eighth=2) Ab3(eighth=2) Eb3(eighth=2) C3(eighth=2) Ab2(quarter=4) = 16 -->
    <measure number="13">
      <direction placement="below">
        <direction-type><dynamics><mf/></dynamics></direction-type>
        <sound dynamics="80"/>
      </direction>
      <note>
        <pitch><step>A</step><alter>-1</alter><octave>2</octave></pitch>
        <duration>2</duration>
        <type>eighth</type>
      </note>
      <note>
        <pitch><step>C</step><octave>3</octave></pitch>
        <duration>2</duration>
        <type>eighth</type>
      </note>
      <note>
        <pitch><step>E</step><alter>-1</alter><octave>3</octave></pitch>
        <duration>2</duration>
        <type>eighth</type>
      </note>
      <note>
        <pitch><step>A</step><alter>-1</alter><octave>3</octave></pitch>
        <duration>2</duration>
        <type>eighth</type>
      </note>
      <note>
        <pitch><step>E</step><alter>-1</alter><octave>3</octave></pitch>
        <duration>2</duration>
        <type>eighth</type>
      </note>
      <note>
        <pitch><step>C</step><octave>3</octave></pitch>
        <duration>2</duration>
        <type>eighth</type>
      </note>
      <note>
        <pitch><step>A</step><alter>-1</alter><octave>2</octave></pitch>
        <duration>4</duration>
        <type>quarter</type>
      </note>
    </measure>

    <!-- Measure 14: F#dim7 arpeggio (vii dim7 of Gm) with crescendo -->
    <!-- F#3(eighth=2) A3(eighth=2) C4(eighth=2) Eb4(eighth=2) C4(eighth=2) A3(eighth=2) F#3(quarter=4) = 16 -->
    <measure number="14">
      <direction placement="below">
        <direction-type><wedge type="crescendo"/></direction-type>
      </direction>
      <note>
        <pitch><step>F</step><alter>1</alter><octave>3</octave></pitch>
        <duration>2</duration>
        <type>eighth</type>
      </note>
      <note>
        <pitch><step>A</step><octave>3</octave></pitch>
        <duration>2</duration>
        <type>eighth</type>
      </note>
      <note>
        <pitch><step>C</step><octave>4</octave></pitch>
        <duration>2</duration>
        <type>eighth</type>
      </note>
      <note>
        <pitch><step>E</step><alter>-1</alter><octave>4</octave></pitch>
        <duration>2</duration>
        <type>eighth</type>
      </note>
      <note>
        <pitch><step>C</step><octave>4</octave></pitch>
        <duration>2</duration>
        <type>eighth</type>
      </note>
      <note>
        <pitch><step>A</step><octave>3</octave></pitch>
        <duration>2</duration>
        <type>eighth</type>
      </note>
      <note>
        <pitch><step>F</step><alter>1</alter><octave>3</octave></pitch>
        <duration>4</duration>
        <type>quarter</type>
      </note>
    </measure>

    <!-- Measure 15: D7 (V7) arpeggio - dominant preparation -->
    <!-- D3(eighth=2) F#3(eighth=2) A3(eighth=2) C4(eighth=2) A3(eighth=2) F#3(eighth=2) D3(quarter=4) = 16 -->
    <measure number="15">
      <direction placement="below">
        <direction-type><wedge type="stop"/></direction-type>
      </direction>
      <note>
        <pitch><step>D</step><octave>3</octave></pitch>
        <duration>2</duration>
        <type>eighth</type>
      </note>
      <note>
        <pitch><step>F</step><alter>1</alter><octave>3</octave></pitch>
        <duration>2</duration>
        <type>eighth</type>
      </note>
      <note>
        <pitch><step>A</step><octave>3</octave></pitch>
        <duration>2</duration>
        <type>eighth</type>
      </note>
      <note>
        <pitch><step>C</step><octave>4</octave></pitch>
        <duration>2</duration>
        <type>eighth</type>
      </note>
      <note>
        <pitch><step>A</step><octave>3</octave></pitch>
        <duration>2</duration>
        <type>eighth</type>
      </note>
      <note>
        <pitch><step>F</step><alter>1</alter><octave>3</octave></pitch>
        <duration>2</duration>
        <type>eighth</type>
      </note>
      <note>
        <pitch><step>D</step><octave>3</octave></pitch>
        <duration>4</duration>
        <type>quarter</type>
      </note>
    </measure>

    <!-- Measure 16: Gm -> D7 cadence -->
    <!-- Gm: G3+Bb3+D4(half=8) D7: D3+F#3+A3+C4(half=8) = 16 -->
    <measure number="16">
      <note>
        <pitch><step>G</step><octave>3</octave></pitch>
        <duration>8</duration>
        <type>half</type>
      </note>
      <note>
        <chord/>
        <pitch><step>B</step><alter>-1</alter><octave>3</octave></pitch>
        <duration>8</duration>
        <type>half</type>
      </note>
      <note>
        <chord/>
        <pitch><step>D</step><octave>4</octave></pitch>
        <duration>8</duration>
        <type>half</type>
      </note>
      <note>
        <pitch><step>D</step><octave>3</octave></pitch>
        <duration>8</duration>
        <type>half</type>
      </note>
      <note>
        <chord/>
        <pitch><step>F</step><alter>1</alter><octave>3</octave></pitch>
        <duration>8</duration>
        <type>half</type>
      </note>
      <note>
        <chord/>
        <pitch><step>A</step><octave>3</octave></pitch>
        <duration>8</duration>
        <type>half</type>
      </note>
      <note>
        <chord/>
        <pitch><step>C</step><octave>4</octave></pitch>
        <duration>8</duration>
        <type>half</type>
      </note>
    </measure>

    <!-- ===== PHRASE 5 (mm 17-20): Return, gentle Gm ===== -->

    <!-- Measure 17: Gentle Gm7 arpeggio, p -->
    <!-- G3(eighth=2) Bb3(eighth=2) D4(eighth=2) F4(eighth=2) D4(eighth=2) Bb3(eighth=2) G3(quarter=4) = 16 -->
    <measure number="17">
      <direction placement="below">
        <direction-type><dynamics><p/></dynamics></direction-type>
        <sound dynamics="55"/>
      </direction>
      <note>
        <pitch><step>G</step><octave>3</octave></pitch>
        <duration>2</duration>
        <type>eighth</type>
      </note>
      <note>
        <pitch><step>B</step><alter>-1</alter><octave>3</octave></pitch>
        <duration>2</duration>
        <type>eighth</type>
      </note>
      <note>
        <pitch><step>D</step><octave>4</octave></pitch>
        <duration>2</duration>
        <type>eighth</type>
      </note>
      <note>
        <pitch><step>F</step><octave>4</octave></pitch>
        <duration>2</duration>
        <type>eighth</type>
      </note>
      <note>
        <pitch><step>D</step><octave>4</octave></pitch>
        <duration>2</duration>
        <type>eighth</type>
      </note>
      <note>
        <pitch><step>B</step><alter>-1</alter><octave>3</octave></pitch>
        <duration>2</duration>
        <type>eighth</type>
      </note>
      <note>
        <pitch><step>G</step><octave>3</octave></pitch>
        <duration>4</duration>
        <type>quarter</type>
      </note>
    </measure>

    <!-- Measure 18: EbMaj7 -> D7 transition -->
    <!-- Eb3(eighth=2) G3(eighth=2) Bb3(eighth=2) D4(eighth=2) D3(eighth=2) F#3(eighth=2) A3(quarter=4) = 16 -->
    <measure number="18">
      <note>
        <pitch><step>E</step><alter>-1</alter><octave>3</octave></pitch>
        <duration>2</duration>
        <type>eighth</type>
      </note>
      <note>
        <pitch><step>G</step><octave>3</octave></pitch>
        <duration>2</duration>
        <type>eighth</type>
      </note>
      <note>
        <pitch><step>B</step><alter>-1</alter><octave>3</octave></pitch>
        <duration>2</duration>
        <type>eighth</type>
      </note>
      <note>
        <pitch><step>D</step><octave>4</octave></pitch>
        <duration>2</duration>
        <type>eighth</type>
      </note>
      <note>
        <pitch><step>D</step><octave>3</octave></pitch>
        <duration>2</duration>
        <type>eighth</type>
      </note>
      <note>
        <pitch><step>F</step><alter>1</alter><octave>3</octave></pitch>
        <duration>2</duration>
        <type>eighth</type>
      </note>
      <note>
        <pitch><step>A</step><octave>3</octave></pitch>
        <duration>4</duration>
        <type>quarter</type>
      </note>
    </measure>

    <!-- Measure 19: Cm7 -> D7 final cadence approach with diminuendo -->
    <!-- Cm7: C3+Eb3+G3+Bb3(half=8) D7: D3+F#3+A3+C4(half=8) = 16 -->
    <measure number="19">
      <direction placement="below">
        <direction-type><wedge type="diminuendo"/></direction-type>
      </direction>
      <note>
        <pitch><step>C</step><octave>3</octave></pitch>
        <duration>8</duration>
        <type>half</type>
      </note>
      <note>
        <chord/>
        <pitch><step>E</step><alter>-1</alter><octave>3</octave></pitch>
        <duration>8</duration>
        <type>half</type>
      </note>
      <note>
        <chord/>
        <pitch><step>G</step><octave>3</octave></pitch>
        <duration>8</duration>
        <type>half</type>
      </note>
      <note>
        <chord/>
        <pitch><step>B</step><alter>-1</alter><octave>3</octave></pitch>
        <duration>8</duration>
        <type>half</type>
      </note>
      <note>
        <pitch><step>D</step><octave>3</octave></pitch>
        <duration>8</duration>
        <type>half</type>
      </note>
      <note>
        <chord/>
        <pitch><step>F</step><alter>1</alter><octave>3</octave></pitch>
        <duration>8</duration>
        <type>half</type>
      </note>
      <note>
        <chord/>
        <pitch><step>A</step><octave>3</octave></pitch>
        <duration>8</duration>
        <type>half</type>
      </note>
      <note>
        <chord/>
        <pitch><step>C</step><octave>4</octave></pitch>
        <duration>8</duration>
        <type>half</type>
      </note>
    </measure>

    <!-- Measure 20: Gm resolution - gentle, rest in second half -->
    <!-- G3+Bb3+D4(half=8) rest(half=8) = 16 -->
    <measure number="20">
      <direction placement="below">
        <direction-type><wedge type="stop"/></direction-type>
      </direction>
      <note>
        <pitch><step>G</step><octave>3</octave></pitch>
        <duration>8</duration>
        <type>half</type>
      </note>
      <note>
        <chord/>
        <pitch><step>B</step><alter>-1</alter><octave>3</octave></pitch>
        <duration>8</duration>
        <type>half</type>
      </note>
      <note>
        <chord/>
        <pitch><step>D</step><octave>4</octave></pitch>
        <duration>8</duration>
        <type>half</type>
      </note>
      <note>
        <rest/>
        <duration>8</duration>
        <type>half</type>
      </note>
    </measure>

    <!-- ===== PHRASE 6 (mm 21-24): Final coda ===== -->

    <!-- Measure 21: Gm arpeggio, pp, winding down -->
    <!-- G3(eighth=2) Bb3(eighth=2) D4(eighth=2) G4(eighth=2) D4(eighth=2) Bb3(eighth=2) G3(quarter=4) = 16 -->
    <measure number="21">
      <direction placement="below">
        <direction-type><dynamics><pp/></dynamics></direction-type>
        <sound dynamics="40"/>
      </direction>
      <note>
        <pitch><step>G</step><octave>3</octave></pitch>
        <duration>2</duration>
        <type>eighth</type>
      </note>
      <note>
        <pitch><step>B</step><alter>-1</alter><octave>3</octave></pitch>
        <duration>2</duration>
        <type>eighth</type>
      </note>
      <note>
        <pitch><step>D</step><octave>4</octave></pitch>
        <duration>2</duration>
        <type>eighth</type>
      </note>
      <note>
        <pitch><step>G</step><octave>4</octave></pitch>
        <duration>2</duration>
        <type>eighth</type>
      </note>
      <note>
        <pitch><step>D</step><octave>4</octave></pitch>
        <duration>2</duration>
        <type>eighth</type>
      </note>
      <note>
        <pitch><step>B</step><alter>-1</alter><octave>3</octave></pitch>
        <duration>2</duration>
        <type>eighth</type>
      </note>
      <note>
        <pitch><step>G</step><octave>3</octave></pitch>
        <duration>4</duration>
        <type>quarter</type>
      </note>
    </measure>

    <!-- Measure 22: D7 -> Gm final -->
    <!-- D3+F#3+A3+C4(half=8) G3+Bb3+D4(half=8) = 16 -->
    <measure number="22">
      <note>
        <pitch><step>D</step><octave>3</octave></pitch>
        <duration>8</duration>
        <type>half</type>
      </note>
      <note>
        <chord/>
        <pitch><step>F</step><alter>1</alter><octave>3</octave></pitch>
        <duration>8</duration>
        <type>half</type>
      </note>
      <note>
        <chord/>
        <pitch><step>A</step><octave>3</octave></pitch>
        <duration>8</duration>
        <type>half</type>
      </note>
      <note>
        <chord/>
        <pitch><step>C</step><octave>4</octave></pitch>
        <duration>8</duration>
        <type>half</type>
      </note>
      <note>
        <pitch><step>G</step><octave>3</octave></pitch>
        <duration>8</duration>
        <type>half</type>
      </note>
      <note>
        <chord/>
        <pitch><step>B</step><alter>-1</alter><octave>3</octave></pitch>
        <duration>8</duration>
        <type>half</type>
      </note>
      <note>
        <chord/>
        <pitch><step>D</step><octave>4</octave></pitch>
        <duration>8</duration>
        <type>half</type>
      </note>
    </measure>

    <!-- Measure 23: Cm7 -> D7 last sigh -->
    <!-- Cm7: C3+Eb3+G3+Bb3(half=8) D7: D3+F#3+A3(half=8) = 16 -->
    <measure number="23">
      <note>
        <pitch><step>C</step><octave>3</octave></pitch>
        <duration>8</duration>
        <type>half</type>
      </note>
      <note>
        <chord/>
        <pitch><step>E</step><alter>-1</alter><octave>3</octave></pitch>
        <duration>8</duration>
        <type>half</type>
      </note>
      <note>
        <chord/>
        <pitch><step>G</step><octave>3</octave></pitch>
        <duration>8</duration>
        <type>half</type>
      </note>
      <note>
        <chord/>
        <pitch><step>B</step><alter>-1</alter><octave>3</octave></pitch>
        <duration>8</duration>
        <type>half</type>
      </note>
      <note>
        <pitch><step>D</step><octave>3</octave></pitch>
        <duration>8</duration>
        <type>half</type>
      </note>
      <note>
        <chord/>
        <pitch><step>F</step><alter>1</alter><octave>3</octave></pitch>
        <duration>8</duration>
        <type>half</type>
      </note>
      <note>
        <chord/>
        <pitch><step>A</step><octave>3</octave></pitch>
        <duration>8</duration>
        <type>half</type>
      </note>
    </measure>

    <!-- Measure 24: Final Gm chord - whole note, ppp, fermata -->
    <!-- G3+Bb3+D4(whole=16, fermata) = 16 -->
    <measure number="24">
      <direction placement="below">
        <direction-type><dynamics><ppp/></dynamics></direction-type>
        <sound dynamics="30"/>
      </direction>
      <note>
        <pitch><step>G</step><octave>3</octave></pitch>
        <duration>16</duration>
        <type>whole</type>
        <notations>
          <fermata/>
        </notations>
      </note>
      <note>
        <chord/>
        <pitch><step>B</step><alter>-1</alter><octave>3</octave></pitch>
        <duration>16</duration>
        <type>whole</type>
      </note>
      <note>
        <chord/>
        <pitch><step>D</step><octave>4</octave></pitch>
        <duration>16</duration>
        <type>whole</type>
      </note>
      <barline location="right">
        <bar-style>light-heavy</bar-style>
      </barline>
    </measure>

  </part>
</score-partwise>
