<?xml version="1.0" encoding="UTF-8"?>
<!DOCTYPE score-partwise PUBLIC "-//Recordare//DTD MusicXML 4.0 Partwise//EN"
  "http://www.musicxml.org/dtds/partwise.dtd">
<score-partwise version="4.0">
  <work>
    <work-title>Duet in G minor</work-title>
  </work>
  <identification>
    <creator type="composer">MusicLaude</creator>
  </identification>
  <part-list>
    <score-part id="P1">
      <part-name>Violin</part-name>
      <score-instrument id="P1-I1">
        <instrument-name>Violin</instrument-name>
      </score-instrument>
      <midi-instrument id="P1-I1">
        <midi-channel>1</midi-channel>
        <midi-program>41</midi-program>
      </midi-instrument>
    </score-part>
    <score-part id="P2">
      <part-name>Piano</part-name>
      <score-instrument id="P2-I1">
        <instrument-name>Piano</instrument-name>
      </score-instrument>
      <midi-instrument id="P2-I1">
        <midi-channel>2</midi-channel>
        <midi-program>1</midi-program>
      </midi-instrument>
    </score-part>
  </part-list>

  <!-- =============================== -->
  <!-- PART 1: VIOLIN                  -->
  <!-- =============================== -->
  <part id="P1">

    <!-- Measure 1: Violin rests (piano intro) -->
    <measure number="1">
      <attributes>
        <divisions>4</divisions>
        <key><fifths>-2</fifths><mode>minor</mode></key>
        <time><beats>4</beats><beat-type>4</beat-type></time>
        <clef><sign>G</sign><line>2</line></clef>
      </attributes>
      <direction placement="above">
        <direction-type>
          <metronome>
            <beat-unit>quarter</beat-unit>
            <per-minute>88</per-minute>
          </metronome>
        </direction-type>
        <sound tempo="88"/>
      </direction>
      <!-- whole rest = 16 -->
      <note>
        <rest/>
        <duration>16</duration>
        <type>whole</type>
      </note>
    </measure>

    <!-- Measure 2: Violin rests (piano intro continues) -->
    <measure number="2">
      <note>
        <rest/>
        <duration>16</duration>
        <type>whole</type>
      </note>
    </measure>

    <!-- Phrase A1: measures 3-6 (4-bar phrase) -->

    <!-- Measure 3: Violin enters with passionate G minor melody, mp -->
    <!-- D5(dotted-quarter=6) D5(eighth=2) Eb5(quarter=4) D5(quarter=4) = 16 -->
    <measure number="3">
      <direction placement="below">
        <direction-type><dynamics><mp/></dynamics></direction-type>
        <sound dynamics="70"/>
      </direction>
      <note>
        <pitch><step>D</step><octave>5</octave></pitch>
        <duration>6</duration>
        <type>quarter</type>
        <dot/>
      </note>
      <note>
        <pitch><step>D</step><octave>5</octave></pitch>
        <duration>2</duration>
        <type>eighth</type>
      </note>
      <note>
        <pitch><step>E</step><alter>-1</alter><octave>5</octave></pitch>
        <duration>4</duration>
        <type>quarter</type>
      </note>
      <note>
        <pitch><step>D</step><octave>5</octave></pitch>
        <duration>4</duration>
        <type>quarter</type>
      </note>
    </measure>

    <!-- Measure 4: Descending, phrase continues -->
    <!-- C5(half=8) Bb4(quarter=4) A4(quarter=4) = 16 -->
    <measure number="4">
      <note>
        <pitch><step>C</step><octave>5</octave></pitch>
        <duration>8</duration>
        <type>half</type>
      </note>
      <note>
        <pitch><step>B</step><alter>-1</alter><octave>4</octave></pitch>
        <duration>4</duration>
        <type>quarter</type>
      </note>
      <note>
        <pitch><step>A</step><octave>4</octave></pitch>
        <duration>4</duration>
        <type>quarter</type>
      </note>
    </measure>

    <!-- Measure 5: Ascending with crescendo -->
    <!-- Bb4(dotted-quarter=6) C5(eighth=2) D5(quarter=4) F5(quarter=4) = 16 -->
    <measure number="5">
      <direction placement="below">
        <direction-type><wedge type="crescendo"/></direction-type>
      </direction>
      <note>
        <pitch><step>B</step><alter>-1</alter><octave>4</octave></pitch>
        <duration>6</duration>
        <type>quarter</type>
        <dot/>
      </note>
      <note>
        <pitch><step>C</step><octave>5</octave></pitch>
        <duration>2</duration>
        <type>eighth</type>
      </note>
      <note>
        <pitch><step>D</step><octave>5</octave></pitch>
        <duration>4</duration>
        <type>quarter</type>
      </note>
      <note>
        <pitch><step>F</step><octave>5</octave></pitch>
        <duration>4</duration>
        <type>quarter</type>
      </note>
    </measure>

    <!-- Measure 6: Phrase A1 cadence - clear ending with long note + rest -->
    <!-- F5(half=8) Eb5(quarter=4) rest(quarter=4) = 16 -->
    <measure number="6">
      <direction placement="below">
        <direction-type><wedge type="stop"/></direction-type>
      </direction>
      <direction placement="below">
        <direction-type><dynamics><mf/></dynamics></direction-type>
        <sound dynamics="80"/>
      </direction>
      <note>
        <pitch><step>F</step><octave>5</octave></pitch>
        <duration>8</duration>
        <type>half</type>
      </note>
      <note>
        <pitch><step>E</step><alter>-1</alter><octave>5</octave></pitch>
        <duration>4</duration>
        <type>quarter</type>
      </note>
      <note>
        <rest/>
        <duration>4</duration>
        <type>quarter</type>
      </note>
    </measure>

    <!-- Phrase A2: measures 7-10 (4-bar phrase) -->

    <!-- Measure 7: Singing line with turn -->
    <!-- D5(dotted-quarter=6) C5(eighth=2) D5(eighth=2) Eb5(eighth=2) D5(quarter=4) = 16 -->
    <measure number="7">
      <note>
        <pitch><step>D</step><octave>5</octave></pitch>
        <duration>6</duration>
        <type>quarter</type>
        <dot/>
      </note>
      <note>
        <pitch><step>C</step><octave>5</octave></pitch>
        <duration>2</duration>
        <type>eighth</type>
      </note>
      <note>
        <pitch><step>D</step><octave>5</octave></pitch>
        <duration>2</duration>
        <type>eighth</type>
      </note>
      <note>
        <pitch><step>E</step><alter>-1</alter><octave>5</octave></pitch>
        <duration>2</duration>
        <type>eighth</type>
      </note>
      <note>
        <pitch><step>D</step><octave>5</octave></pitch>
        <duration>4</duration>
        <type>quarter</type>
      </note>
    </measure>

    <!-- Measure 8: Continuing descent -->
    <!-- C5(half=8) Bb4(quarter=4) A4(quarter=4) = 16 -->
    <measure number="8">
      <note>
        <pitch><step>C</step><octave>5</octave></pitch>
        <duration>8</duration>
        <type>half</type>
      </note>
      <note>
        <pitch><step>B</step><alter>-1</alter><octave>4</octave></pitch>
        <duration>4</duration>
        <type>quarter</type>
      </note>
      <note>
        <pitch><step>A</step><octave>4</octave></pitch>
        <duration>4</duration>
        <type>quarter</type>
      </note>
    </measure>

    <!-- Measure 9: Rising to phrase peak -->
    <!-- Bb4(dotted-quarter=6) C5(eighth=2) D5(half=8) = 16 -->
    <measure number="9">
      <note>
        <pitch><step>B</step><alter>-1</alter><octave>4</octave></pitch>
        <duration>6</duration>
        <type>quarter</type>
        <dot/>
      </note>
      <note>
        <pitch><step>C</step><octave>5</octave></pitch>
        <duration>2</duration>
        <type>eighth</type>
      </note>
      <note>
        <pitch><step>D</step><octave>5</octave></pitch>
        <duration>8</duration>
        <type>half</type>
      </note>
    </measure>

    <!-- Measure 10: Phrase A2 cadence - long note + rest -->
    <!-- Bb4(dotted-half=12) rest(quarter=4) = 16 -->
    <measure number="10">
      <note>
        <pitch><step>B</step><alter>-1</alter><octave>4</octave></pitch>
        <duration>12</duration>
        <type>half</type>
        <dot/>
      </note>
      <note>
        <rest/>
        <duration>4</duration>
        <type>quarter</type>
      </note>
    </measure>

    <!-- Phrase B: measures 11-14 (4-bar contrasting phrase) -->

    <!-- Measure 11: B section - more agitated, forte, accented (lowered range) -->
    <!-- F5(quarter=4,accent) G5(quarter=4) A5(quarter=4) G5(quarter=4) = 16 -->
    <measure number="11">
      <direction placement="below">
        <direction-type><dynamics><f/></dynamics></direction-type>
        <sound dynamics="100"/>
      </direction>
      <note>
        <pitch><step>F</step><octave>5</octave></pitch>
        <duration>4</duration>
        <type>quarter</type>
        <notations>
          <articulations><accent/></articulations>
        </notations>
      </note>
      <note>
        <pitch><step>G</step><octave>5</octave></pitch>
        <duration>4</duration>
        <type>quarter</type>
      </note>
      <note>
        <pitch><step>A</step><octave>5</octave></pitch>
        <duration>4</duration>
        <type>quarter</type>
      </note>
      <note>
        <pitch><step>G</step><octave>5</octave></pitch>
        <duration>4</duration>
        <type>quarter</type>
      </note>
    </measure>

    <!-- Measure 12: Dramatic peak (lowered from D6 to Bb5) -->
    <!-- Bb5(half=8,accent) A5(quarter=4) G5(quarter=4) = 16 -->
    <measure number="12">
      <note>
        <pitch><step>B</step><alter>-1</alter><octave>5</octave></pitch>
        <duration>8</duration>
        <type>half</type>
        <notations>
          <articulations><accent/></articulations>
        </notations>
      </note>
      <note>
        <pitch><step>A</step><octave>5</octave></pitch>
        <duration>4</duration>
        <type>quarter</type>
      </note>
      <note>
        <pitch><step>G</step><octave>5</octave></pitch>
        <duration>4</duration>
        <type>quarter</type>
      </note>
    </measure>

    <!-- Measure 13: Descending passionately with diminuendo (lowered) -->
    <!-- F5(dotted-quarter=6) Eb5(eighth=2) D5(quarter=4) C5(quarter=4) = 16 -->
    <measure number="13">
      <direction placement="below">
        <direction-type><wedge type="diminuendo"/></direction-type>
      </direction>
      <note>
        <pitch><step>F</step><octave>5</octave></pitch>
        <duration>6</duration>
        <type>quarter</type>
        <dot/>
      </note>
      <note>
        <pitch><step>E</step><alter>-1</alter><octave>5</octave></pitch>
        <duration>2</duration>
        <type>eighth</type>
      </note>
      <note>
        <pitch><step>D</step><octave>5</octave></pitch>
        <duration>4</duration>
        <type>quarter</type>
      </note>
      <note>
        <pitch><step>C</step><octave>5</octave></pitch>
        <duration>4</duration>
        <type>quarter</type>
      </note>
    </measure>

    <!-- Measure 14: B section cadence - half note + rest -->
    <!-- D5(half=8) rest(quarter=4) D5(quarter=4) = 16 -->
    <measure number="14">
      <direction placement="below">
        <direction-type><wedge type="stop"/></direction-type>
      </direction>
      <note>
        <pitch><step>D</step><octave>5</octave></pitch>
        <duration>8</duration>
        <type>half</type>
      </note>
      <note>
        <rest/>
        <duration>4</duration>
        <type>quarter</type>
      </note>
      <note>
        <pitch><step>D</step><octave>5</octave></pitch>
        <duration>4</duration>
        <type>quarter</type>
      </note>
    </measure>

    <!-- Return: measures 15-18 (4-bar closing phrase) -->

    <!-- Measure 15: Return - calm, p, singing quietly -->
    <!-- Bb4(dotted-quarter=6) A4(eighth=2) G4(half=8) = 16 -->
    <measure number="15">
      <direction placement="below">
        <direction-type><dynamics><p/></dynamics></direction-type>
        <sound dynamics="55"/>
      </direction>
      <note>
        <pitch><step>B</step><alter>-1</alter><octave>4</octave></pitch>
        <duration>6</duration>
        <type>quarter</type>
        <dot/>
      </note>
      <note>
        <pitch><step>A</step><octave>4</octave></pitch>
        <duration>2</duration>
        <type>eighth</type>
      </note>
      <note>
        <pitch><step>G</step><octave>4</octave></pitch>
        <duration>8</duration>
        <type>half</type>
      </note>
    </measure>

    <!-- Measure 16: Gentle echo of A theme -->
    <!-- A4(quarter=4) Bb4(quarter=4) C5(quarter=4) D5(quarter=4) = 16 -->
    <measure number="16">
      <note>
        <pitch><step>A</step><octave>4</octave></pitch>
        <duration>4</duration>
        <type>quarter</type>
      </note>
      <note>
        <pitch><step>B</step><alter>-1</alter><octave>4</octave></pitch>
        <duration>4</duration>
        <type>quarter</type>
      </note>
      <note>
        <pitch><step>C</step><octave>5</octave></pitch>
        <duration>4</duration>
        <type>quarter</type>
      </note>
      <note>
        <pitch><step>D</step><octave>5</octave></pitch>
        <duration>4</duration>
        <type>quarter</type>
      </note>
    </measure>

    <!-- Measure 17: Final descent -->
    <!-- C5(half=8) Bb4(quarter=4) A4(quarter=4) = 16 -->
    <measure number="17">
      <direction placement="below">
        <direction-type><wedge type="diminuendo"/></direction-type>
      </direction>
      <note>
        <pitch><step>C</step><octave>5</octave></pitch>
        <duration>8</duration>
        <type>half</type>
      </note>
      <note>
        <pitch><step>B</step><alter>-1</alter><octave>4</octave></pitch>
        <duration>4</duration>
        <type>quarter</type>
      </note>
      <note>
        <pitch><step>A</step><octave>4</octave></pitch>
        <duration>4</duration>
        <type>quarter</type>
      </note>
    </measure>

    <!-- Measure 18: Final bar - G4 whole note with fermata, pp -->
    <!-- G4(whole=16, fermata) = 16 -->
    <measure number="18">
      <direction placement="below">
        <direction-type><wedge type="stop"/></direction-type>
      </direction>
      <direction placement="below">
        <direction-type><dynamics><pp/></dynamics></direction-type>
        <sound dynamics="40"/>
      </direction>
      <note>
        <pitch><step>G</step><octave>4</octave></pitch>
        <duration>16</duration>
        <type>whole</type>
        <notations>
          <fermata/>
        </notations>
      </note>
      <barline location="right">
        <bar-style>light-heavy</bar-style>
      </barline>
    </measure>

  </part>

  <!-- =============================== -->
  <!-- PART 2: PIANO                   -->
  <!-- =============================== -->
  <part id="P2">

    <!-- Measure 1: Piano intro - pp, arpeggiated G minor chord -->
    <!-- G3(eighth=2) Bb3(eighth=2) D4(eighth=2) G4(eighth=2) D4(eighth=2) Bb3(eighth=2) G3(quarter=4) = 16 -->
    <measure number="1">
      <attributes>
        <divisions>4</divisions>
        <key><fifths>-2</fifths><mode>minor</mode></key>
        <time><beats>4</beats><beat-type>4</beat-type></time>
        <clef><sign>G</sign><line>2</line></clef>
      </attributes>
      <direction placement="above">
        <direction-type>
          <metronome>
            <beat-unit>quarter</beat-unit>
            <per-minute>88</per-minute>
          </metronome>
        </direction-type>
        <sound tempo="88"/>
      </direction>
      <direction placement="below">
        <direction-type><dynamics><pp/></dynamics></direction-type>
        <sound dynamics="40"/>
      </direction>
      <note>
        <pitch><step>G</step><octave>3</octave></pitch>
        <duration>2</duration>
        <type>eighth</type>
      </note>
      <note>
        <pitch><step>B</step><alter>-1</alter><octave>3</octave></pitch>
        <duration>2</duration>
        <type>eighth</type>
      </note>
      <note>
        <pitch><step>D</step><octave>4</octave></pitch>
        <duration>2</duration>
        <type>eighth</type>
      </note>
      <note>
        <pitch><step>G</step><octave>4</octave></pitch>
        <duration>2</duration>
        <type>eighth</type>
      </note>
      <note>
        <pitch><step>D</step><octave>4</octave></pitch>
        <duration>2</duration>
        <type>eighth</type>
      </note>
      <note>
        <pitch><step>B</step><alter>-1</alter><octave>3</octave></pitch>
        <duration>2</duration>
        <type>eighth</type>
      </note>
      <note>
        <pitch><step>G</step><octave>3</octave></pitch>
        <duration>4</duration>
        <type>quarter</type>
      </note>
    </measure>

    <!-- Measure 2: Piano intro continues - D7 to Gm arpeggio -->
    <!-- D3(eighth=2) F#3(eighth=2) A3(eighth=2) C4(eighth=2) A3(eighth=2) F#3(eighth=2) D3(quarter=4) = 16 -->
    <measure number="2">
      <note>
        <pitch><step>D</step><octave>3</octave></pitch>
        <duration>2</duration>
        <type>eighth</type>
      </note>
      <note>
        <pitch><step>F</step><alter>1</alter><octave>3</octave></pitch>
        <duration>2</duration>
        <type>eighth</type>
      </note>
      <note>
        <pitch><step>A</step><octave>3</octave></pitch>
        <duration>2</duration>
        <type>eighth</type>
      </note>
      <note>
        <pitch><step>C</step><octave>4</octave></pitch>
        <duration>2</duration>
        <type>eighth</type>
      </note>
      <note>
        <pitch><step>A</step><octave>3</octave></pitch>
        <duration>2</duration>
        <type>eighth</type>
      </note>
      <note>
        <pitch><step>F</step><alter>1</alter><octave>3</octave></pitch>
        <duration>2</duration>
        <type>eighth</type>
      </note>
      <note>
        <pitch><step>D</step><octave>3</octave></pitch>
        <duration>4</duration>
        <type>quarter</type>
      </note>
    </measure>

    <!-- Measure 3: Gm under violin melody - arpeggiated pattern -->
    <!-- G3(eighth=2) D4(eighth=2) G4(eighth=2) Bb4(eighth=2) G4(eighth=2) D4(eighth=2) G3(quarter=4) = 16 -->
    <measure number="3">
      <note>
        <pitch><step>G</step><octave>3</octave></pitch>
        <duration>2</duration>
        <type>eighth</type>
      </note>
      <note>
        <pitch><step>D</step><octave>4</octave></pitch>
        <duration>2</duration>
        <type>eighth</type>
      </note>
      <note>
        <pitch><step>G</step><octave>4</octave></pitch>
        <duration>2</duration>
        <type>eighth</type>
      </note>
      <note>
        <pitch><step>B</step><alter>-1</alter><octave>4</octave></pitch>
        <duration>2</duration>
        <type>eighth</type>
      </note>
      <note>
        <pitch><step>G</step><octave>4</octave></pitch>
        <duration>2</duration>
        <type>eighth</type>
      </note>
      <note>
        <pitch><step>D</step><octave>4</octave></pitch>
        <duration>2</duration>
        <type>eighth</type>
      </note>
      <note>
        <pitch><step>G</step><octave>3</octave></pitch>
        <duration>4</duration>
        <type>quarter</type>
      </note>
    </measure>

    <!-- Measure 4: Cm chord arpeggio (raised: Eb3 base instead of C3) -->
    <!-- Eb3(eighth=2) G3(eighth=2) C4(eighth=2) Eb4(eighth=2) C4(eighth=2) G3(eighth=2) Eb3(quarter=4) = 16 -->
    <measure number="4">
      <note>
        <pitch><step>E</step><alter>-1</alter><octave>3</octave></pitch>
        <duration>2</duration>
        <type>eighth</type>
      </note>
      <note>
        <pitch><step>G</step><octave>3</octave></pitch>
        <duration>2</duration>
        <type>eighth</type>
      </note>
      <note>
        <pitch><step>C</step><octave>4</octave></pitch>
        <duration>2</duration>
        <type>eighth</type>
      </note>
      <note>
        <pitch><step>E</step><alter>-1</alter><octave>4</octave></pitch>
        <duration>2</duration>
        <type>eighth</type>
      </note>
      <note>
        <pitch><step>C</step><octave>4</octave></pitch>
        <duration>2</duration>
        <type>eighth</type>
      </note>
      <note>
        <pitch><step>G</step><octave>3</octave></pitch>
        <duration>2</duration>
        <type>eighth</type>
      </note>
      <note>
        <pitch><step>E</step><alter>-1</alter><octave>3</octave></pitch>
        <duration>4</duration>
        <type>quarter</type>
      </note>
    </measure>

    <!-- Measure 5: Eb major arpeggio (relative major) with crescendo -->
    <!-- Eb3(eighth=2) G3(eighth=2) Bb3(eighth=2) Eb4(eighth=2) Bb3(eighth=2) G3(eighth=2) Eb3(quarter=4) = 16 -->
    <measure number="5">
      <direction placement="below">
        <direction-type><wedge type="crescendo"/></direction-type>
      </direction>
      <note>
        <pitch><step>E</step><alter>-1</alter><octave>3</octave></pitch>
        <duration>2</duration>
        <type>eighth</type>
      </note>
      <note>
        <pitch><step>G</step><octave>3</octave></pitch>
        <duration>2</duration>
        <type>eighth</type>
      </note>
      <note>
        <pitch><step>B</step><alter>-1</alter><octave>3</octave></pitch>
        <duration>2</duration>
        <type>eighth</type>
      </note>
      <note>
        <pitch><step>E</step><alter>-1</alter><octave>4</octave></pitch>
        <duration>2</duration>
        <type>eighth</type>
      </note>
      <note>
        <pitch><step>B</step><alter>-1</alter><octave>3</octave></pitch>
        <duration>2</duration>
        <type>eighth</type>
      </note>
      <note>
        <pitch><step>G</step><octave>3</octave></pitch>
        <duration>2</duration>
        <type>eighth</type>
      </note>
      <note>
        <pitch><step>E</step><alter>-1</alter><octave>3</octave></pitch>
        <duration>4</duration>
        <type>quarter</type>
      </note>
    </measure>

    <!-- Measure 6: D7 arpeggio (dominant) -->
    <!-- D3(eighth=2) F#3(eighth=2) A3(eighth=2) D4(eighth=2) A3(eighth=2) F#3(eighth=2) D3(quarter=4) = 16 -->
    <measure number="6">
      <direction placement="below">
        <direction-type><wedge type="stop"/></direction-type>
      </direction>
      <note>
        <pitch><step>D</step><octave>3</octave></pitch>
        <duration>2</duration>
        <type>eighth</type>
      </note>
      <note>
        <pitch><step>F</step><alter>1</alter><octave>3</octave></pitch>
        <duration>2</duration>
        <type>eighth</type>
      </note>
      <note>
        <pitch><step>A</step><octave>3</octave></pitch>
        <duration>2</duration>
        <type>eighth</type>
      </note>
      <note>
        <pitch><step>D</step><octave>4</octave></pitch>
        <duration>2</duration>
        <type>eighth</type>
      </note>
      <note>
        <pitch><step>A</step><octave>3</octave></pitch>
        <duration>2</duration>
        <type>eighth</type>
      </note>
      <note>
        <pitch><step>F</step><alter>1</alter><octave>3</octave></pitch>
        <duration>2</duration>
        <type>eighth</type>
      </note>
      <note>
        <pitch><step>D</step><octave>3</octave></pitch>
        <duration>4</duration>
        <type>quarter</type>
      </note>
    </measure>

    <!-- Measure 7: Gm arpeggio again -->
    <!-- G3(eighth=2) Bb3(eighth=2) D4(eighth=2) G4(eighth=2) D4(eighth=2) Bb3(eighth=2) G3(quarter=4) = 16 -->
    <measure number="7">
      <note>
        <pitch><step>G</step><octave>3</octave></pitch>
        <duration>2</duration>
        <type>eighth</type>
      </note>
      <note>
        <pitch><step>B</step><alter>-1</alter><octave>3</octave></pitch>
        <duration>2</duration>
        <type>eighth</type>
      </note>
      <note>
        <pitch><step>D</step><octave>4</octave></pitch>
        <duration>2</duration>
        <type>eighth</type>
      </note>
      <note>
        <pitch><step>G</step><octave>4</octave></pitch>
        <duration>2</duration>
        <type>eighth</type>
      </note>
      <note>
        <pitch><step>D</step><octave>4</octave></pitch>
        <duration>2</duration>
        <type>eighth</type>
      </note>
      <note>
        <pitch><step>B</step><alter>-1</alter><octave>3</octave></pitch>
        <duration>2</duration>
        <type>eighth</type>
      </note>
      <note>
        <pitch><step>G</step><octave>3</octave></pitch>
        <duration>4</duration>
        <type>quarter</type>
      </note>
    </measure>

    <!-- Measure 8: Cm -> D7 cadence -->
    <!-- Eb3+G3+C4(half=8) then D3+F#3+A3(half=8) = 16 -->
    <measure number="8">
      <note>
        <pitch><step>E</step><alter>-1</alter><octave>3</octave></pitch>
        <duration>8</duration>
        <type>half</type>
      </note>
      <note>
        <chord/>
        <pitch><step>G</step><octave>3</octave></pitch>
        <duration>8</duration>
        <type>half</type>
      </note>
      <note>
        <chord/>
        <pitch><step>C</step><octave>4</octave></pitch>
        <duration>8</duration>
        <type>half</type>
      </note>
      <note>
        <pitch><step>D</step><octave>3</octave></pitch>
        <duration>8</duration>
        <type>half</type>
        <notations>
          <articulations><staccato/></articulations>
        </notations>
      </note>
      <note>
        <chord/>
        <pitch><step>F</step><alter>1</alter><octave>3</octave></pitch>
        <duration>8</duration>
        <type>half</type>
      </note>
      <note>
        <chord/>
        <pitch><step>A</step><octave>3</octave></pitch>
        <duration>8</duration>
        <type>half</type>
      </note>
    </measure>

    <!-- Measure 9: Gm arpeggio (under violin A2 phrase) -->
    <!-- G3(eighth=2) Bb3(eighth=2) D4(eighth=2) G4(eighth=2) D4(eighth=2) Bb3(eighth=2) G3(quarter=4) = 16 -->
    <measure number="9">
      <note>
        <pitch><step>G</step><octave>3</octave></pitch>
        <duration>2</duration>
        <type>eighth</type>
      </note>
      <note>
        <pitch><step>B</step><alter>-1</alter><octave>3</octave></pitch>
        <duration>2</duration>
        <type>eighth</type>
      </note>
      <note>
        <pitch><step>D</step><octave>4</octave></pitch>
        <duration>2</duration>
        <type>eighth</type>
      </note>
      <note>
        <pitch><step>G</step><octave>4</octave></pitch>
        <duration>2</duration>
        <type>eighth</type>
      </note>
      <note>
        <pitch><step>D</step><octave>4</octave></pitch>
        <duration>2</duration>
        <type>eighth</type>
      </note>
      <note>
        <pitch><step>B</step><alter>-1</alter><octave>3</octave></pitch>
        <duration>2</duration>
        <type>eighth</type>
      </note>
      <note>
        <pitch><step>G</step><octave>3</octave></pitch>
        <duration>4</duration>
        <type>quarter</type>
      </note>
    </measure>

    <!-- Measure 10: Cm -> D7 cadence (phrase A2 ending) -->
    <!-- Eb3+G3+C4(half=8) D3+F#3+A3(half=8) = 16 -->
    <measure number="10">
      <note>
        <pitch><step>E</step><alter>-1</alter><octave>3</octave></pitch>
        <duration>8</duration>
        <type>half</type>
      </note>
      <note>
        <chord/>
        <pitch><step>G</step><octave>3</octave></pitch>
        <duration>8</duration>
        <type>half</type>
      </note>
      <note>
        <chord/>
        <pitch><step>C</step><octave>4</octave></pitch>
        <duration>8</duration>
        <type>half</type>
      </note>
      <note>
        <pitch><step>D</step><octave>3</octave></pitch>
        <duration>8</duration>
        <type>half</type>
      </note>
      <note>
        <chord/>
        <pitch><step>F</step><alter>1</alter><octave>3</octave></pitch>
        <duration>8</duration>
        <type>half</type>
      </note>
      <note>
        <chord/>
        <pitch><step>A</step><octave>3</octave></pitch>
        <duration>8</duration>
        <type>half</type>
      </note>
    </measure>

    <!-- Measure 11: B section - forte, block chords with staccato -->
    <!-- Gm chord(quarter=4,staccato) Gm(quarter=4) Cm(quarter=4,staccato) Cm(quarter=4) = 16 -->
    <measure number="11">
      <note>
        <pitch><step>G</step><octave>3</octave></pitch>
        <duration>4</duration>
        <type>quarter</type>
        <notations>
          <articulations><staccato/></articulations>
        </notations>
      </note>
      <note>
        <chord/>
        <pitch><step>B</step><alter>-1</alter><octave>3</octave></pitch>
        <duration>4</duration>
        <type>quarter</type>
      </note>
      <note>
        <chord/>
        <pitch><step>D</step><octave>4</octave></pitch>
        <duration>4</duration>
        <type>quarter</type>
      </note>
      <note>
        <pitch><step>G</step><octave>3</octave></pitch>
        <duration>4</duration>
        <type>quarter</type>
      </note>
      <note>
        <chord/>
        <pitch><step>B</step><alter>-1</alter><octave>3</octave></pitch>
        <duration>4</duration>
        <type>quarter</type>
      </note>
      <note>
        <chord/>
        <pitch><step>D</step><octave>4</octave></pitch>
        <duration>4</duration>
        <type>quarter</type>
      </note>
      <note>
        <pitch><step>E</step><alter>-1</alter><octave>3</octave></pitch>
        <duration>4</duration>
        <type>quarter</type>
        <notations>
          <articulations><staccato/></articulations>
        </notations>
      </note>
      <note>
        <chord/>
        <pitch><step>G</step><octave>3</octave></pitch>
        <duration>4</duration>
        <type>quarter</type>
      </note>
      <note>
        <chord/>
        <pitch><step>C</step><octave>4</octave></pitch>
        <duration>4</duration>
        <type>quarter</type>
      </note>
      <note>
        <pitch><step>E</step><alter>-1</alter><octave>3</octave></pitch>
        <duration>4</duration>
        <type>quarter</type>
      </note>
      <note>
        <chord/>
        <pitch><step>G</step><octave>3</octave></pitch>
        <duration>4</duration>
        <type>quarter</type>
      </note>
      <note>
        <chord/>
        <pitch><step>C</step><octave>4</octave></pitch>
        <duration>4</duration>
        <type>quarter</type>
      </note>
    </measure>

    <!-- Measure 12: D7 dramatic chords -->
    <!-- D7(half chord=8, accent) Gm(half chord=8) = 16 -->
    <measure number="12">
      <note>
        <pitch><step>D</step><octave>3</octave></pitch>
        <duration>8</duration>
        <type>half</type>
        <notations>
          <articulations><accent/></articulations>
        </notations>
      </note>
      <note>
        <chord/>
        <pitch><step>F</step><alter>1</alter><octave>3</octave></pitch>
        <duration>8</duration>
        <type>half</type>
      </note>
      <note>
        <chord/>
        <pitch><step>A</step><octave>3</octave></pitch>
        <duration>8</duration>
        <type>half</type>
      </note>
      <note>
        <chord/>
        <pitch><step>C</step><octave>4</octave></pitch>
        <duration>8</duration>
        <type>half</type>
      </note>
      <note>
        <pitch><step>G</step><octave>3</octave></pitch>
        <duration>8</duration>
        <type>half</type>
      </note>
      <note>
        <chord/>
        <pitch><step>B</step><alter>-1</alter><octave>3</octave></pitch>
        <duration>8</duration>
        <type>half</type>
      </note>
      <note>
        <chord/>
        <pitch><step>D</step><octave>4</octave></pitch>
        <duration>8</duration>
        <type>half</type>
      </note>
      <note>
        <chord/>
        <pitch><step>G</step><octave>4</octave></pitch>
        <duration>8</duration>
        <type>half</type>
      </note>
    </measure>

    <!-- Measure 13: Cm arpeggiated descending with diminuendo (raised: Eb3 base) -->
    <!-- Eb3(eighth=2) G3(eighth=2) C4(eighth=2) Eb4(eighth=2) C4(eighth=2) G3(eighth=2) Eb3(quarter=4) = 16 -->
    <measure number="13">
      <direction placement="below">
        <direction-type><wedge type="diminuendo"/></direction-type>
      </direction>
      <note>
        <pitch><step>E</step><alter>-1</alter><octave>3</octave></pitch>
        <duration>2</duration>
        <type>eighth</type>
      </note>
      <note>
        <pitch><step>G</step><octave>3</octave></pitch>
        <duration>2</duration>
        <type>eighth</type>
      </note>
      <note>
        <pitch><step>C</step><octave>4</octave></pitch>
        <duration>2</duration>
        <type>eighth</type>
      </note>
      <note>
        <pitch><step>E</step><alter>-1</alter><octave>4</octave></pitch>
        <duration>2</duration>
        <type>eighth</type>
      </note>
      <note>
        <pitch><step>C</step><octave>4</octave></pitch>
        <duration>2</duration>
        <type>eighth</type>
      </note>
      <note>
        <pitch><step>G</step><octave>3</octave></pitch>
        <duration>2</duration>
        <type>eighth</type>
      </note>
      <note>
        <pitch><step>E</step><alter>-1</alter><octave>3</octave></pitch>
        <duration>4</duration>
        <type>quarter</type>
      </note>
    </measure>

    <!-- Measure 14: D7 -> Gm cadential -->
    <!-- D3+F#3+A3(half=8) G3+Bb3+D4(half=8) = 16 -->
    <measure number="14">
      <direction placement="below">
        <direction-type><wedge type="stop"/></direction-type>
      </direction>
      <note>
        <pitch><step>D</step><octave>3</octave></pitch>
        <duration>8</duration>
        <type>half</type>
      </note>
      <note>
        <chord/>
        <pitch><step>F</step><alter>1</alter><octave>3</octave></pitch>
        <duration>8</duration>
        <type>half</type>
      </note>
      <note>
        <chord/>
        <pitch><step>A</step><octave>3</octave></pitch>
        <duration>8</duration>
        <type>half</type>
      </note>
      <note>
        <pitch><step>G</step><octave>3</octave></pitch>
        <duration>8</duration>
        <type>half</type>
      </note>
      <note>
        <chord/>
        <pitch><step>B</step><alter>-1</alter><octave>3</octave></pitch>
        <duration>8</duration>
        <type>half</type>
      </note>
      <note>
        <chord/>
        <pitch><step>D</step><octave>4</octave></pitch>
        <duration>8</duration>
        <type>half</type>
      </note>
    </measure>

    <!-- Measure 15: Return section - gentle Gm arpeggio -->
    <!-- G3(eighth=2) Bb3(eighth=2) D4(eighth=2) G4(eighth=2) D4(eighth=2) Bb3(eighth=2) G3(quarter=4) = 16 -->
    <measure number="15">
      <note>
        <pitch><step>G</step><octave>3</octave></pitch>
        <duration>2</duration>
        <type>eighth</type>
      </note>
      <note>
        <pitch><step>B</step><alter>-1</alter><octave>3</octave></pitch>
        <duration>2</duration>
        <type>eighth</type>
      </note>
      <note>
        <pitch><step>D</step><octave>4</octave></pitch>
        <duration>2</duration>
        <type>eighth</type>
      </note>
      <note>
        <pitch><step>G</step><octave>4</octave></pitch>
        <duration>2</duration>
        <type>eighth</type>
      </note>
      <note>
        <pitch><step>D</step><octave>4</octave></pitch>
        <duration>2</duration>
        <type>eighth</type>
      </note>
      <note>
        <pitch><step>B</step><alter>-1</alter><octave>3</octave></pitch>
        <duration>2</duration>
        <type>eighth</type>
      </note>
      <note>
        <pitch><step>G</step><octave>3</octave></pitch>
        <duration>4</duration>
        <type>quarter</type>
      </note>
    </measure>

    <!-- Measure 16: Eb -> D7 transition -->
    <!-- Eb3(eighth=2) G3(eighth=2) Bb3(eighth=2) Eb4(eighth=2) D3(eighth=2) F#3(eighth=2) A3(quarter=4) = 16 -->
    <measure number="16">
      <note>
        <pitch><step>E</step><alter>-1</alter><octave>3</octave></pitch>
        <duration>2</duration>
        <type>eighth</type>
      </note>
      <note>
        <pitch><step>G</step><octave>3</octave></pitch>
        <duration>2</duration>
        <type>eighth</type>
      </note>
      <note>
        <pitch><step>B</step><alter>-1</alter><octave>3</octave></pitch>
        <duration>2</duration>
        <type>eighth</type>
      </note>
      <note>
        <pitch><step>E</step><alter>-1</alter><octave>4</octave></pitch>
        <duration>2</duration>
        <type>eighth</type>
      </note>
      <note>
        <pitch><step>D</step><octave>3</octave></pitch>
        <duration>2</duration>
        <type>eighth</type>
      </note>
      <note>
        <pitch><step>F</step><alter>1</alter><octave>3</octave></pitch>
        <duration>2</duration>
        <type>eighth</type>
      </note>
      <note>
        <pitch><step>A</step><octave>3</octave></pitch>
        <duration>4</duration>
        <type>quarter</type>
      </note>
    </measure>

    <!-- Measure 17: Cm -> D7 final cadence approach with diminuendo -->
    <!-- Eb3+G3+C4(half=8) D3+F#3+A3(half=8) = 16 -->
    <measure number="17">
      <direction placement="below">
        <direction-type><wedge type="diminuendo"/></direction-type>
      </direction>
      <note>
        <pitch><step>E</step><alter>-1</alter><octave>3</octave></pitch>
        <duration>8</duration>
        <type>half</type>
      </note>
      <note>
        <chord/>
        <pitch><step>G</step><octave>3</octave></pitch>
        <duration>8</duration>
        <type>half</type>
      </note>
      <note>
        <chord/>
        <pitch><step>C</step><octave>4</octave></pitch>
        <duration>8</duration>
        <type>half</type>
      </note>
      <note>
        <pitch><step>D</step><octave>3</octave></pitch>
        <duration>8</duration>
        <type>half</type>
      </note>
      <note>
        <chord/>
        <pitch><step>F</step><alter>1</alter><octave>3</octave></pitch>
        <duration>8</duration>
        <type>half</type>
      </note>
      <note>
        <chord/>
        <pitch><step>A</step><octave>3</octave></pitch>
        <duration>8</duration>
        <type>half</type>
      </note>
    </measure>

    <!-- Measure 18: Final Gm chord - whole note, fermata -->
    <!-- G3+Bb3+D4(whole=16, fermata) = 16 -->
    <measure number="18">
      <direction placement="below">
        <direction-type><wedge type="stop"/></direction-type>
      </direction>
      <note>
        <pitch><step>G</step><octave>3</octave></pitch>
        <duration>16</duration>
        <type>whole</type>
        <notations>
          <fermata/>
        </notations>
      </note>
      <note>
        <chord/>
        <pitch><step>B</step><alter>-1</alter><octave>3</octave></pitch>
        <duration>16</duration>
        <type>whole</type>
      </note>
      <note>
        <chord/>
        <pitch><step>D</step><octave>4</octave></pitch>
        <duration>16</duration>
        <type>whole</type>
      </note>
      <barline location="right">
        <bar-style>light-heavy</bar-style>
      </barline>
    </measure>

  </part>
</score-partwise>
