<?xml version="1.0" encoding="UTF-8"?>
<!DOCTYPE score-partwise PUBLIC "-//Recordare//DTD MusicXML 4.0 Partwise//EN"
  "http://www.musicxml.org/dtds/partwise.dtd">
<score-partwise version="4.0">
  <work>
    <work-title>Prelude in Eb Major</work-title>
  </work>
  <identification>
    <creator type="composer">MusicLaude</creator>
  </identification>
  <part-list>
    <score-part id="P1">
      <part-name>Piano</part-name>
      <score-instrument id="P1-I1">
        <instrument-name>Piano</instrument-name>
      </score-instrument>
      <midi-instrument id="P1-I1">
        <midi-channel>1</midi-channel>
        <midi-program>1</midi-program>
      </midi-instrument>
    </score-part>
  </part-list>
  <part id="P1">

    <!-- ============================================================ -->
    <!-- SECTION A: Opening Statement (mm 1-4) — Eb major, mp, 72 BPM -->
    <!-- Motif: ascending arpeggio 8th+8th -> quarter -> 8th+8th -> quarter -->
    <!-- ============================================================ -->

    <!-- Measure 1: Ebmaj7 arpeggio — opening motif statement -->
    <!-- Voice 1: G4+Bb4(2) D5(2) Eb5(4) D5+F5(2) Eb5(2) Bb4(4) = 16 -->
    <!-- Voice 2: Eb2(8) Bb2(8) = 16 -->
    <measure number="1">
      <attributes>
        <divisions>4</divisions>
        <key><fifths>-3</fifths></key>
        <time><beats>4</beats><beat-type>4</beat-type></time>
        <staves>2</staves>
        <clef number="1"><sign>G</sign><line>2</line></clef>
        <clef number="2"><sign>F</sign><line>4</line></clef>
      </attributes>
      <direction placement="above">
        <direction-type>
          <words default-y="15" font-style="italic">Andante cantabile</words>
        </direction-type>
      </direction>
      <direction placement="above">
        <direction-type>
          <metronome>
            <beat-unit>quarter</beat-unit>
            <per-minute>72</per-minute>
          </metronome>
        </direction-type>
        <sound tempo="72"/>
      </direction>
      <direction placement="below">
        <direction-type><dynamics><mp/></dynamics></direction-type>
        <staff>1</staff>
        <sound dynamics="54"/>
      </direction>
      <!-- Treble: voice 1 — Ebmaj7 arpeggio motif -->
      <note>
        <pitch><step>G</step><octave>4</octave></pitch>
        <duration>2</duration>
        <voice>1</voice>
        <type>eighth</type>
        <staff>1</staff>
      </note>
      <note>
        <chord/>
        <pitch><step>B</step><alter>-1</alter><octave>4</octave></pitch>
        <duration>2</duration>
        <voice>1</voice>
        <type>eighth</type>
        <staff>1</staff>
      </note>
      <note>
        <pitch><step>D</step><octave>5</octave></pitch>
        <duration>2</duration>
        <voice>1</voice>
        <type>eighth</type>
        <staff>1</staff>
      </note>
      <note>
        <pitch><step>E</step><alter>-1</alter><octave>5</octave></pitch>
        <duration>4</duration>
        <voice>1</voice>
        <type>quarter</type>
        <staff>1</staff>
        <notations>
          <articulations><tenuto/></articulations>
        </notations>
      </note>
      <note>
        <pitch><step>D</step><octave>5</octave></pitch>
        <duration>2</duration>
        <voice>1</voice>
        <type>eighth</type>
        <staff>1</staff>
      </note>
      <note>
        <chord/>
        <pitch><step>F</step><octave>5</octave></pitch>
        <duration>2</duration>
        <voice>1</voice>
        <type>eighth</type>
        <staff>1</staff>
      </note>
      <note>
        <pitch><step>E</step><alter>-1</alter><octave>5</octave></pitch>
        <duration>2</duration>
        <voice>1</voice>
        <type>eighth</type>
        <staff>1</staff>
      </note>
      <note>
        <pitch><step>B</step><alter>-1</alter><octave>4</octave></pitch>
        <duration>2</duration>
        <voice>1</voice>
        <type>eighth</type>
        <staff>1</staff>
      </note>
      <!-- total voice 1: 2+2+4+2+2+2+2 = 16 -->

      <!-- Bass: voice 2 -->
      <note>
        <pitch><step>E</step><alter>-1</alter><octave>2</octave></pitch>
        <duration>8</duration>
        <voice>2</voice>
        <type>half</type>
        <staff>2</staff>
        <notations>
          <articulations><tenuto/></articulations>
        </notations>
      </note>
      <note>
        <pitch><step>B</step><alter>-1</alter><octave>2</octave></pitch>
        <duration>8</duration>
        <voice>2</voice>
        <type>half</type>
        <staff>2</staff>
      </note>
      <!-- total voice 2: 8+8 = 16 -->
    </measure>

    <!-- Measure 2: Abmaj7 — motif continues, chromatic passing tone D natural -->
    <!-- Voice 1: Ab4+C5(2) Eb5(2) G5(4) F5(2) D5[natural-chromatic](2) Eb5(4) = 16 -->
    <!-- Voice 2: Ab2(12) Eb3(4) = 16 -->
    <measure number="2">
      <direction placement="below">
        <direction-type><wedge type="crescendo"/></direction-type>
        <staff>1</staff>
      </direction>
      <note>
        <pitch><step>A</step><alter>-1</alter><octave>4</octave></pitch>
        <duration>2</duration>
        <voice>1</voice>
        <type>eighth</type>
        <staff>1</staff>
      </note>
      <note>
        <chord/>
        <pitch><step>C</step><octave>5</octave></pitch>
        <duration>2</duration>
        <voice>1</voice>
        <type>eighth</type>
        <staff>1</staff>
      </note>
      <note>
        <pitch><step>E</step><alter>-1</alter><octave>5</octave></pitch>
        <duration>2</duration>
        <voice>1</voice>
        <type>eighth</type>
        <staff>1</staff>
      </note>
      <note>
        <pitch><step>G</step><octave>5</octave></pitch>
        <duration>4</duration>
        <voice>1</voice>
        <type>quarter</type>
        <staff>1</staff>
        <notations>
          <articulations><tenuto/></articulations>
        </notations>
      </note>
      <!-- chromatic passing tone: F5 -> D5(natural) -> Eb5 -->
      <note>
        <pitch><step>F</step><octave>5</octave></pitch>
        <duration>2</duration>
        <voice>1</voice>
        <type>eighth</type>
        <staff>1</staff>
      </note>
      <note>
        <pitch><step>D</step><octave>5</octave></pitch>
        <duration>2</duration>
        <voice>1</voice>
        <type>eighth</type>
        <staff>1</staff>
      </note>
      <note>
        <pitch><step>E</step><alter>-1</alter><octave>5</octave></pitch>
        <duration>4</duration>
        <voice>1</voice>
        <type>quarter</type>
        <staff>1</staff>
      </note>
      <!-- total voice 1: 2+2+4+2+2+4 = 16 -->

      <!-- Bass: voice 2 -->
      <note>
        <pitch><step>A</step><alter>-1</alter><octave>2</octave></pitch>
        <duration>12</duration>
        <voice>2</voice>
        <type>half</type>
        <dot/>
        <staff>2</staff>
      </note>
      <note>
        <pitch><step>E</step><alter>-1</alter><octave>3</octave></pitch>
        <duration>4</duration>
        <voice>2</voice>
        <type>quarter</type>
        <staff>2</staff>
      </note>
      <!-- total voice 2: 12+4 = 16 -->
    </measure>

    <!-- Measure 3: Fm9 — motif variation with 9th -->
    <!-- Voice 1: F4+Ab4(2) C5(2) Eb5(6) G5(2) F5(4) = 16 -->
    <!-- Voice 2: F2(8) C3(8) = 16 -->
    <measure number="3">
      <note>
        <pitch><step>F</step><octave>4</octave></pitch>
        <duration>2</duration>
        <voice>1</voice>
        <type>eighth</type>
        <staff>1</staff>
      </note>
      <note>
        <chord/>
        <pitch><step>A</step><alter>-1</alter><octave>4</octave></pitch>
        <duration>2</duration>
        <voice>1</voice>
        <type>eighth</type>
        <staff>1</staff>
      </note>
      <note>
        <pitch><step>C</step><octave>5</octave></pitch>
        <duration>2</duration>
        <voice>1</voice>
        <type>eighth</type>
        <staff>1</staff>
      </note>
      <note>
        <pitch><step>E</step><alter>-1</alter><octave>5</octave></pitch>
        <duration>6</duration>
        <voice>1</voice>
        <type>quarter</type>
        <dot/>
        <staff>1</staff>
      </note>
      <note>
        <pitch><step>G</step><octave>5</octave></pitch>
        <duration>2</duration>
        <voice>1</voice>
        <type>eighth</type>
        <staff>1</staff>
      </note>
      <note>
        <pitch><step>F</step><octave>5</octave></pitch>
        <duration>4</duration>
        <voice>1</voice>
        <type>quarter</type>
        <staff>1</staff>
      </note>
      <!-- total voice 1: 2+2+6+2+4 = 16 -->

      <!-- Bass: voice 2 -->
      <note>
        <pitch><step>F</step><octave>2</octave></pitch>
        <duration>8</duration>
        <voice>2</voice>
        <type>half</type>
        <staff>2</staff>
      </note>
      <note>
        <pitch><step>C</step><octave>3</octave></pitch>
        <duration>8</duration>
        <voice>2</voice>
        <type>half</type>
        <staff>2</staff>
      </note>
      <!-- total voice 2: 8+8 = 16 -->
    </measure>

    <!-- Measure 4: Bb7 → Eb — cadence with REST (breathing point!) -->
    <!-- Voice 1: Bb4+D5+Ab5(4) F5(2) Eb5(2) quarter-rest(4) G4+Bb4(4) = 16 -->
    <!-- Voice 2: Bb2(8) Eb2(4) quarter-rest(4) = 16 -->
    <measure number="4">
      <direction placement="below">
        <direction-type><wedge type="stop"/></direction-type>
        <staff>1</staff>
      </direction>
      <!-- Bb7 chord -->
      <note>
        <pitch><step>B</step><alter>-1</alter><octave>4</octave></pitch>
        <duration>4</duration>
        <voice>1</voice>
        <type>quarter</type>
        <staff>1</staff>
      </note>
      <note>
        <chord/>
        <pitch><step>D</step><octave>5</octave></pitch>
        <duration>4</duration>
        <voice>1</voice>
        <type>quarter</type>
        <staff>1</staff>
      </note>
      <note>
        <chord/>
        <pitch><step>A</step><alter>-1</alter><octave>5</octave></pitch>
        <duration>4</duration>
        <voice>1</voice>
        <type>quarter</type>
        <staff>1</staff>
      </note>
      <note>
        <pitch><step>F</step><octave>5</octave></pitch>
        <duration>2</duration>
        <voice>1</voice>
        <type>eighth</type>
        <staff>1</staff>
      </note>
      <note>
        <pitch><step>E</step><alter>-1</alter><octave>5</octave></pitch>
        <duration>2</duration>
        <voice>1</voice>
        <type>eighth</type>
        <staff>1</staff>
      </note>
      <!-- REST — the music breathes -->
      <note>
        <rest/>
        <duration>4</duration>
        <voice>1</voice>
        <type>quarter</type>
        <staff>1</staff>
      </note>
      <!-- pickup: echo of motif head -->
      <note>
        <pitch><step>G</step><octave>4</octave></pitch>
        <duration>4</duration>
        <voice>1</voice>
        <type>quarter</type>
        <staff>1</staff>
      </note>
      <note>
        <chord/>
        <pitch><step>B</step><alter>-1</alter><octave>4</octave></pitch>
        <duration>4</duration>
        <voice>1</voice>
        <type>quarter</type>
        <staff>1</staff>
      </note>
      <!-- total voice 1: 4+2+2+4+4 = 16 -->

      <!-- Bass: voice 2 -->
      <note>
        <pitch><step>B</step><alter>-1</alter><octave>2</octave></pitch>
        <duration>8</duration>
        <voice>2</voice>
        <type>half</type>
        <staff>2</staff>
      </note>
      <note>
        <pitch><step>E</step><alter>-1</alter><octave>2</octave></pitch>
        <duration>4</duration>
        <voice>2</voice>
        <type>quarter</type>
        <staff>2</staff>
      </note>
      <note>
        <rest/>
        <duration>4</duration>
        <voice>2</voice>
        <type>quarter</type>
        <staff>2</staff>
      </note>
      <!-- total voice 2: 8+4+4 = 16 -->
    </measure>

    <!-- ============================================================ -->
    <!-- SECTION B: Development (mm 5-8) — Cm7, G7(V/vi), modulations -->
    <!-- Motif transposed to C minor, then Bb major -->
    <!-- ============================================================ -->

    <!-- Measure 5: Cm7 — motif transposed to C minor (same rhythm!) -->
    <!-- Voice 1: Eb4+G4(2) Bb4(2) C5(4) Bb4+D5(2) C5(2) G4(2) Eb4(2) = 16 -->
    <!-- Voice 2: C3(12) G2(4) = 16 -->
    <measure number="5">
      <direction placement="above">
        <direction-type>
          <metronome>
            <beat-unit>quarter</beat-unit>
            <per-minute>76</per-minute>
          </metronome>
        </direction-type>
        <sound tempo="76"/>
      </direction>
      <direction placement="below">
        <direction-type><dynamics><mf/></dynamics></direction-type>
        <staff>1</staff>
        <sound dynamics="80"/>
      </direction>
      <!-- Motif in Cm7: same rhythm as m1 transposed -->
      <note>
        <pitch><step>E</step><alter>-1</alter><octave>4</octave></pitch>
        <duration>2</duration>
        <voice>1</voice>
        <type>eighth</type>
        <staff>1</staff>
      </note>
      <note>
        <chord/>
        <pitch><step>G</step><octave>4</octave></pitch>
        <duration>2</duration>
        <voice>1</voice>
        <type>eighth</type>
        <staff>1</staff>
      </note>
      <note>
        <pitch><step>B</step><alter>-1</alter><octave>4</octave></pitch>
        <duration>2</duration>
        <voice>1</voice>
        <type>eighth</type>
        <staff>1</staff>
      </note>
      <note>
        <pitch><step>C</step><octave>5</octave></pitch>
        <duration>4</duration>
        <voice>1</voice>
        <type>quarter</type>
        <staff>1</staff>
        <notations>
          <articulations><tenuto/></articulations>
        </notations>
      </note>
      <note>
        <pitch><step>B</step><alter>-1</alter><octave>4</octave></pitch>
        <duration>2</duration>
        <voice>1</voice>
        <type>eighth</type>
        <staff>1</staff>
      </note>
      <note>
        <chord/>
        <pitch><step>D</step><octave>5</octave></pitch>
        <duration>2</duration>
        <voice>1</voice>
        <type>eighth</type>
        <staff>1</staff>
      </note>
      <note>
        <pitch><step>C</step><octave>5</octave></pitch>
        <duration>2</duration>
        <voice>1</voice>
        <type>eighth</type>
        <staff>1</staff>
      </note>
      <note>
        <pitch><step>G</step><octave>4</octave></pitch>
        <duration>2</duration>
        <voice>1</voice>
        <type>eighth</type>
        <staff>1</staff>
      </note>
      <!-- total voice 1: 2+2+4+2+2+2+2 = 16 -->

      <!-- Bass: voice 2 -->
      <note>
        <pitch><step>C</step><octave>3</octave></pitch>
        <duration>12</duration>
        <voice>2</voice>
        <type>half</type>
        <dot/>
        <staff>2</staff>
      </note>
      <note>
        <pitch><step>G</step><octave>2</octave></pitch>
        <duration>4</duration>
        <voice>2</voice>
        <type>quarter</type>
        <staff>2</staff>
      </note>
      <!-- total voice 2: 12+4 = 16 -->
    </measure>

    <!-- Measure 6: G7 (V7/vi = secondary dominant → Cm) with chromatic A natural -->
    <!-- Voice 1: G4+B4[natural](2) D5(2) F5(4) E5[natural-chromatic](2) D5(2) B4[natural](4) = 16 -->
    <!-- Voice 2: G2(8) D3(8) = 16 -->
    <measure number="6">
      <direction placement="below">
        <direction-type><wedge type="crescendo"/></direction-type>
        <staff>1</staff>
      </direction>
      <!-- G7: secondary dominant V7/vi, chromatic B natural and E natural -->
      <note>
        <pitch><step>G</step><octave>4</octave></pitch>
        <duration>2</duration>
        <voice>1</voice>
        <type>eighth</type>
        <staff>1</staff>
      </note>
      <note>
        <chord/>
        <pitch><step>B</step><octave>4</octave></pitch>
        <duration>2</duration>
        <voice>1</voice>
        <type>eighth</type>
        <staff>1</staff>
      </note>
      <note>
        <pitch><step>D</step><octave>5</octave></pitch>
        <duration>2</duration>
        <voice>1</voice>
        <type>eighth</type>
        <staff>1</staff>
      </note>
      <note>
        <pitch><step>F</step><octave>5</octave></pitch>
        <duration>4</duration>
        <voice>1</voice>
        <type>quarter</type>
        <staff>1</staff>
        <notations>
          <articulations><tenuto/></articulations>
        </notations>
      </note>
      <!-- chromatic: E natural passing tone -->
      <note>
        <pitch><step>E</step><octave>5</octave></pitch>
        <duration>2</duration>
        <voice>1</voice>
        <type>eighth</type>
        <staff>1</staff>
      </note>
      <note>
        <pitch><step>D</step><octave>5</octave></pitch>
        <duration>2</duration>
        <voice>1</voice>
        <type>eighth</type>
        <staff>1</staff>
      </note>
      <note>
        <pitch><step>B</step><octave>4</octave></pitch>
        <duration>4</duration>
        <voice>1</voice>
        <type>quarter</type>
        <staff>1</staff>
      </note>
      <!-- total voice 1: 2+2+4+2+2+4 = 16 -->

      <!-- Bass: voice 2 -->
      <note>
        <pitch><step>G</step><octave>2</octave></pitch>
        <duration>8</duration>
        <voice>2</voice>
        <type>half</type>
        <staff>2</staff>
      </note>
      <note>
        <pitch><step>D</step><octave>3</octave></pitch>
        <duration>8</duration>
        <voice>2</voice>
        <type>half</type>
        <staff>2</staff>
      </note>
      <!-- total voice 2: 8+8 = 16 -->
    </measure>

    <!-- Measure 7: Cm7 → F9 — resolution then pivot to Bb, with rest -->
    <!-- Voice 1: C5+Eb5+G5(4) rest(4) A4[natural]+C5(2) Eb5(2) F5(4) = 16 -->
    <!-- Voice 2: C3(8) F2(8) = 16 -->
    <measure number="7">
      <direction placement="below">
        <direction-type><wedge type="stop"/></direction-type>
        <staff>1</staff>
      </direction>
      <!-- Cm7 resolution -->
      <note>
        <pitch><step>C</step><octave>5</octave></pitch>
        <duration>4</duration>
        <voice>1</voice>
        <type>quarter</type>
        <staff>1</staff>
      </note>
      <note>
        <chord/>
        <pitch><step>E</step><alter>-1</alter><octave>5</octave></pitch>
        <duration>4</duration>
        <voice>1</voice>
        <type>quarter</type>
        <staff>1</staff>
      </note>
      <note>
        <chord/>
        <pitch><step>G</step><octave>5</octave></pitch>
        <duration>4</duration>
        <voice>1</voice>
        <type>quarter</type>
        <staff>1</staff>
      </note>
      <!-- REST — breathing space -->
      <note>
        <rest/>
        <duration>4</duration>
        <voice>1</voice>
        <type>quarter</type>
        <staff>1</staff>
      </note>
      <!-- F9: A natural = chromatic, pivot to Bb -->
      <note>
        <pitch><step>A</step><octave>4</octave></pitch>
        <duration>2</duration>
        <voice>1</voice>
        <type>eighth</type>
        <staff>1</staff>
      </note>
      <note>
        <chord/>
        <pitch><step>C</step><octave>5</octave></pitch>
        <duration>2</duration>
        <voice>1</voice>
        <type>eighth</type>
        <staff>1</staff>
      </note>
      <note>
        <pitch><step>E</step><alter>-1</alter><octave>5</octave></pitch>
        <duration>2</duration>
        <voice>1</voice>
        <type>eighth</type>
        <staff>1</staff>
      </note>
      <note>
        <pitch><step>F</step><octave>5</octave></pitch>
        <duration>4</duration>
        <voice>1</voice>
        <type>quarter</type>
        <staff>1</staff>
      </note>
      <!-- total voice 1: 4+4+2+2+4 = 16 -->

      <!-- Bass: voice 2 -->
      <note>
        <pitch><step>C</step><octave>3</octave></pitch>
        <duration>8</duration>
        <voice>2</voice>
        <type>half</type>
        <staff>2</staff>
      </note>
      <note>
        <pitch><step>F</step><octave>2</octave></pitch>
        <duration>8</duration>
        <voice>2</voice>
        <type>half</type>
        <staff>2</staff>
      </note>
      <!-- total voice 2: 8+8 = 16 -->
    </measure>

    <!-- Measure 8: Bb major — arrival, motif in Bb (high register) -->
    <!-- Voice 1: Bb4+D5+F5(6) A5[natural](2) Bb5(4) F5(4) = 16 -->
    <!-- Voice 2: Bb1(8) F2(8) = 16 -->
    <measure number="8">
      <note>
        <pitch><step>B</step><alter>-1</alter><octave>4</octave></pitch>
        <duration>6</duration>
        <voice>1</voice>
        <type>quarter</type>
        <dot/>
        <staff>1</staff>
      </note>
      <note>
        <chord/>
        <pitch><step>D</step><octave>5</octave></pitch>
        <duration>6</duration>
        <voice>1</voice>
        <type>quarter</type>
        <dot/>
        <staff>1</staff>
      </note>
      <note>
        <chord/>
        <pitch><step>F</step><octave>5</octave></pitch>
        <duration>6</duration>
        <voice>1</voice>
        <type>quarter</type>
        <dot/>
        <staff>1</staff>
      </note>
      <!-- chromatic A natural passing tone -->
      <note>
        <pitch><step>A</step><octave>5</octave></pitch>
        <duration>2</duration>
        <voice>1</voice>
        <type>eighth</type>
        <staff>1</staff>
      </note>
      <note>
        <pitch><step>B</step><alter>-1</alter><octave>5</octave></pitch>
        <duration>4</duration>
        <voice>1</voice>
        <type>quarter</type>
        <staff>1</staff>
        <notations>
          <articulations><tenuto/></articulations>
        </notations>
      </note>
      <note>
        <pitch><step>F</step><octave>5</octave></pitch>
        <duration>4</duration>
        <voice>1</voice>
        <type>quarter</type>
        <staff>1</staff>
      </note>
      <!-- total voice 1: 6+2+4+4 = 16 -->

      <!-- Bass: voice 2 — low Bb for range -->
      <note>
        <pitch><step>B</step><alter>-1</alter><octave>1</octave></pitch>
        <duration>8</duration>
        <voice>2</voice>
        <type>half</type>
        <staff>2</staff>
      </note>
      <note>
        <pitch><step>F</step><octave>2</octave></pitch>
        <duration>8</duration>
        <voice>2</voice>
        <type>half</type>
        <staff>2</staff>
      </note>
      <!-- total voice 2: 8+8 = 16 -->
    </measure>

    <!-- ============================================================ -->
    <!-- SECTION C: Harmonic exploration (mm 9-12) — Gb, Neapolitan, dim7 -->
    <!-- More modulations, extended chords, wider range -->
    <!-- ============================================================ -->

    <!-- Measure 9: Ebm7 → Gb major — surprise modulation to Gb -->
    <!-- Voice 1: Eb4+Gb4(2) Bb4(2) Db5(4) rest(4) Gb5(2) F5(2) = 16 -->
    <!-- Voice 2: Gb2(8) Db3(8) = 16 -->
    <measure number="9">
      <direction placement="above">
        <direction-type>
          <metronome>
            <beat-unit>quarter</beat-unit>
            <per-minute>66</per-minute>
          </metronome>
        </direction-type>
        <sound tempo="66"/>
      </direction>
      <direction placement="below">
        <direction-type><dynamics><f/></dynamics></direction-type>
        <staff>1</staff>
        <sound dynamics="96"/>
      </direction>
      <!-- Gb major: modulation, motif rhythm -->
      <note>
        <pitch><step>E</step><alter>-1</alter><octave>4</octave></pitch>
        <duration>2</duration>
        <voice>1</voice>
        <type>eighth</type>
        <staff>1</staff>
      </note>
      <note>
        <chord/>
        <pitch><step>G</step><alter>-1</alter><octave>4</octave></pitch>
        <duration>2</duration>
        <voice>1</voice>
        <type>eighth</type>
        <staff>1</staff>
      </note>
      <note>
        <pitch><step>B</step><alter>-1</alter><octave>4</octave></pitch>
        <duration>2</duration>
        <voice>1</voice>
        <type>eighth</type>
        <staff>1</staff>
      </note>
      <note>
        <pitch><step>D</step><alter>-1</alter><octave>5</octave></pitch>
        <duration>4</duration>
        <voice>1</voice>
        <type>quarter</type>
        <staff>1</staff>
        <notations>
          <articulations><tenuto/></articulations>
        </notations>
      </note>
      <!-- REST — breathing -->
      <note>
        <rest/>
        <duration>4</duration>
        <voice>1</voice>
        <type>quarter</type>
        <staff>1</staff>
      </note>
      <note>
        <pitch><step>G</step><alter>-1</alter><octave>5</octave></pitch>
        <duration>2</duration>
        <voice>1</voice>
        <type>eighth</type>
        <staff>1</staff>
      </note>
      <note>
        <pitch><step>F</step><octave>5</octave></pitch>
        <duration>2</duration>
        <voice>1</voice>
        <type>eighth</type>
        <staff>1</staff>
      </note>
      <!-- total voice 1: 2+2+4+4+2+2 = 16 -->

      <!-- Bass: voice 2 -->
      <note>
        <pitch><step>G</step><alter>-1</alter><octave>2</octave></pitch>
        <duration>8</duration>
        <voice>2</voice>
        <type>half</type>
        <staff>2</staff>
      </note>
      <note>
        <pitch><step>D</step><alter>-1</alter><octave>3</octave></pitch>
        <duration>8</duration>
        <voice>2</voice>
        <type>half</type>
        <staff>2</staff>
      </note>
      <!-- total voice 2: 8+8 = 16 -->
    </measure>

    <!-- Measure 10: Dbmaj7 — Neapolitan region, rich voicing -->
    <!-- Voice 1: Db5+F5+Ab5+C6(6) Bb5(2) Ab5+F5(4) Eb5(4) = 16 -->
    <!-- Voice 2: Db2(12) Ab2(4) = 16 -->
    <measure number="10">
      <direction placement="below">
        <direction-type><wedge type="crescendo"/></direction-type>
        <staff>1</staff>
      </direction>
      <!-- Dbmaj7: Neapolitan color, wide voicing up to C6 -->
      <note>
        <pitch><step>D</step><alter>-1</alter><octave>5</octave></pitch>
        <duration>6</duration>
        <voice>1</voice>
        <type>quarter</type>
        <dot/>
        <staff>1</staff>
        <notations>
          <articulations><tenuto/></articulations>
        </notations>
      </note>
      <note>
        <chord/>
        <pitch><step>F</step><octave>5</octave></pitch>
        <duration>6</duration>
        <voice>1</voice>
        <type>quarter</type>
        <dot/>
        <staff>1</staff>
      </note>
      <note>
        <chord/>
        <pitch><step>A</step><alter>-1</alter><octave>5</octave></pitch>
        <duration>6</duration>
        <voice>1</voice>
        <type>quarter</type>
        <dot/>
        <staff>1</staff>
      </note>
      <note>
        <chord/>
        <pitch><step>C</step><octave>6</octave></pitch>
        <duration>6</duration>
        <voice>1</voice>
        <type>quarter</type>
        <dot/>
        <staff>1</staff>
      </note>
      <note>
        <pitch><step>B</step><alter>-1</alter><octave>5</octave></pitch>
        <duration>2</duration>
        <voice>1</voice>
        <type>eighth</type>
        <staff>1</staff>
      </note>
      <note>
        <pitch><step>F</step><octave>5</octave></pitch>
        <duration>4</duration>
        <voice>1</voice>
        <type>quarter</type>
        <staff>1</staff>
      </note>
      <note>
        <chord/>
        <pitch><step>A</step><alter>-1</alter><octave>5</octave></pitch>
        <duration>4</duration>
        <voice>1</voice>
        <type>quarter</type>
        <staff>1</staff>
      </note>
      <note>
        <pitch><step>E</step><alter>-1</alter><octave>5</octave></pitch>
        <duration>4</duration>
        <voice>1</voice>
        <type>quarter</type>
        <staff>1</staff>
        <notations>
          <articulations><staccato/></articulations>
        </notations>
      </note>
      <!-- total voice 1: 6+2+4+4 = 16 -->

      <!-- Bass: voice 2 — deep Db -->
      <note>
        <pitch><step>D</step><alter>-1</alter><octave>2</octave></pitch>
        <duration>12</duration>
        <voice>2</voice>
        <type>half</type>
        <dot/>
        <staff>2</staff>
      </note>
      <note>
        <pitch><step>A</step><alter>-1</alter><octave>2</octave></pitch>
        <duration>4</duration>
        <voice>2</voice>
        <type>quarter</type>
        <staff>2</staff>
      </note>
      <!-- total voice 2: 12+4 = 16 -->
    </measure>

    <!-- Measure 11: Bdim7 → Bb7(b9) — diminished 7th, dominant tension -->
    <!-- Voice 1: B4+D5+F5+Ab5(4) Cb5[=B4]+Eb5(2) F5(2) D5+F5+Ab5(8) = 16 -->
    <!-- Voice 2: B1(8) Bb1(8) = 16 -->
    <measure number="11">
      <direction placement="below">
        <direction-type><wedge type="stop"/></direction-type>
        <staff>1</staff>
      </direction>
      <direction placement="below">
        <direction-type><dynamics><ff/></dynamics></direction-type>
        <staff>1</staff>
        <sound dynamics="112"/>
      </direction>
      <!-- Bdim7: B-D-F-Ab -->
      <note>
        <pitch><step>B</step><octave>4</octave></pitch>
        <duration>4</duration>
        <voice>1</voice>
        <type>quarter</type>
        <staff>1</staff>
      </note>
      <note>
        <chord/>
        <pitch><step>D</step><octave>5</octave></pitch>
        <duration>4</duration>
        <voice>1</voice>
        <type>quarter</type>
        <staff>1</staff>
      </note>
      <note>
        <chord/>
        <pitch><step>F</step><octave>5</octave></pitch>
        <duration>4</duration>
        <voice>1</voice>
        <type>quarter</type>
        <staff>1</staff>
      </note>
      <note>
        <chord/>
        <pitch><step>A</step><alter>-1</alter><octave>5</octave></pitch>
        <duration>4</duration>
        <voice>1</voice>
        <type>quarter</type>
        <staff>1</staff>
      </note>
      <!-- Bb7b9: chromatic Cb (=B natural enharmonic) and Eb -->
      <note>
        <pitch><step>B</step><octave>4</octave></pitch>
        <duration>2</duration>
        <voice>1</voice>
        <type>eighth</type>
        <staff>1</staff>
      </note>
      <note>
        <chord/>
        <pitch><step>E</step><alter>-1</alter><octave>5</octave></pitch>
        <duration>2</duration>
        <voice>1</voice>
        <type>eighth</type>
        <staff>1</staff>
      </note>
      <note>
        <pitch><step>F</step><octave>5</octave></pitch>
        <duration>2</duration>
        <voice>1</voice>
        <type>eighth</type>
        <staff>1</staff>
      </note>
      <!-- Bb7: resolving chord -->
      <note>
        <pitch><step>D</step><octave>5</octave></pitch>
        <duration>8</duration>
        <voice>1</voice>
        <type>half</type>
        <staff>1</staff>
      </note>
      <note>
        <chord/>
        <pitch><step>F</step><octave>5</octave></pitch>
        <duration>8</duration>
        <voice>1</voice>
        <type>half</type>
        <staff>1</staff>
      </note>
      <note>
        <chord/>
        <pitch><step>A</step><alter>-1</alter><octave>5</octave></pitch>
        <duration>8</duration>
        <voice>1</voice>
        <type>half</type>
        <staff>1</staff>
      </note>
      <!-- total voice 1: 4+2+2+8 = 16 -->

      <direction placement="below">
        <direction-type><wedge type="diminuendo"/></direction-type>
        <staff>1</staff>
      </direction>

      <!-- Bass: voice 2 — chromatic bass B→Bb -->
      <note>
        <pitch><step>B</step><octave>1</octave></pitch>
        <duration>8</duration>
        <voice>2</voice>
        <type>half</type>
        <staff>2</staff>
      </note>
      <note>
        <pitch><step>B</step><alter>-1</alter><octave>1</octave></pitch>
        <duration>8</duration>
        <voice>2</voice>
        <type>half</type>
        <staff>2</staff>
      </note>
      <!-- total voice 2: 8+8 = 16 -->
    </measure>

    <!-- Measure 12: Ebmaj7 — climax resolves, with rest -->
    <!-- Voice 1: Eb5+G5+Bb5+D6(12) rest(4) = 16 -->
    <!-- Voice 2: Eb2(16) = 16 -->
    <measure number="12">
      <direction placement="below">
        <direction-type><wedge type="stop"/></direction-type>
        <staff>1</staff>
      </direction>
      <note>
        <pitch><step>E</step><alter>-1</alter><octave>5</octave></pitch>
        <duration>12</duration>
        <voice>1</voice>
        <type>half</type>
        <dot/>
        <staff>1</staff>
        <notations>
          <articulations><tenuto/></articulations>
        </notations>
      </note>
      <note>
        <chord/>
        <pitch><step>G</step><octave>5</octave></pitch>
        <duration>12</duration>
        <voice>1</voice>
        <type>half</type>
        <dot/>
        <staff>1</staff>
      </note>
      <note>
        <chord/>
        <pitch><step>B</step><alter>-1</alter><octave>5</octave></pitch>
        <duration>12</duration>
        <voice>1</voice>
        <type>half</type>
        <dot/>
        <staff>1</staff>
      </note>
      <note>
        <chord/>
        <pitch><step>D</step><octave>6</octave></pitch>
        <duration>12</duration>
        <voice>1</voice>
        <type>half</type>
        <dot/>
        <staff>1</staff>
      </note>
      <!-- REST — big breath after climax -->
      <note>
        <rest/>
        <duration>4</duration>
        <voice>1</voice>
        <type>quarter</type>
        <staff>1</staff>
      </note>
      <!-- total voice 1: 12+4 = 16 -->

      <!-- Bass: voice 2 -->
      <note>
        <pitch><step>E</step><alter>-1</alter><octave>2</octave></pitch>
        <duration>16</duration>
        <voice>2</voice>
        <type>whole</type>
        <staff>2</staff>
      </note>
      <!-- total voice 2: 16 -->
    </measure>

    <!-- ============================================================ -->
    <!-- SECTION D: Recapitulation (mm 13-16) — motif returns, more color -->
    <!-- Abmaj7, German augmented 6th, Fm9, Bb13 -->
    <!-- ============================================================ -->

    <!-- Measure 13: Abmaj7 — motif returns in Ab, a tempo -->
    <!-- Voice 1: Ab4+C5(2) Eb5(2) G5(4) F5(2) Eb5(2) C5(4) = 16 -->
    <!-- Voice 2: Ab2(12) Eb3(4) = 16 -->
    <measure number="13">
      <direction placement="above">
        <direction-type>
          <words default-y="15" font-style="italic">a tempo</words>
        </direction-type>
      </direction>
      <direction placement="above">
        <direction-type>
          <metronome>
            <beat-unit>quarter</beat-unit>
            <per-minute>72</per-minute>
          </metronome>
        </direction-type>
        <sound tempo="72"/>
      </direction>
      <direction placement="below">
        <direction-type><dynamics><p/></dynamics></direction-type>
        <staff>1</staff>
        <sound dynamics="49"/>
      </direction>
      <!-- Motif in Ab — same rhythm as m1 -->
      <note>
        <pitch><step>A</step><alter>-1</alter><octave>4</octave></pitch>
        <duration>2</duration>
        <voice>1</voice>
        <type>eighth</type>
        <staff>1</staff>
      </note>
      <note>
        <chord/>
        <pitch><step>C</step><octave>5</octave></pitch>
        <duration>2</duration>
        <voice>1</voice>
        <type>eighth</type>
        <staff>1</staff>
      </note>
      <note>
        <pitch><step>E</step><alter>-1</alter><octave>5</octave></pitch>
        <duration>2</duration>
        <voice>1</voice>
        <type>eighth</type>
        <staff>1</staff>
      </note>
      <note>
        <pitch><step>G</step><octave>5</octave></pitch>
        <duration>4</duration>
        <voice>1</voice>
        <type>quarter</type>
        <staff>1</staff>
        <notations>
          <articulations><tenuto/></articulations>
        </notations>
      </note>
      <note>
        <pitch><step>F</step><octave>5</octave></pitch>
        <duration>2</duration>
        <voice>1</voice>
        <type>eighth</type>
        <staff>1</staff>
      </note>
      <note>
        <pitch><step>E</step><alter>-1</alter><octave>5</octave></pitch>
        <duration>2</duration>
        <voice>1</voice>
        <type>eighth</type>
        <staff>1</staff>
      </note>
      <note>
        <pitch><step>C</step><octave>5</octave></pitch>
        <duration>4</duration>
        <voice>1</voice>
        <type>quarter</type>
        <staff>1</staff>
      </note>
      <!-- total voice 1: 2+2+4+2+2+4 = 16 -->

      <!-- Bass: voice 2 -->
      <note>
        <pitch><step>A</step><alter>-1</alter><octave>2</octave></pitch>
        <duration>12</duration>
        <voice>2</voice>
        <type>half</type>
        <dot/>
        <staff>2</staff>
      </note>
      <note>
        <pitch><step>E</step><alter>-1</alter><octave>3</octave></pitch>
        <duration>4</duration>
        <voice>2</voice>
        <type>quarter</type>
        <staff>2</staff>
      </note>
      <!-- total voice 2: 12+4 = 16 -->
    </measure>

    <!-- Measure 14: German augmented 6th (Ab-C-Eb-F#) → Bb -->
    <!-- Voice 1: Ab4+C5+Eb5(4) F#5[Ger+6](2) G5(2) rest(4) D5+F5(4) = 16 -->
    <!-- Voice 2: Ab2(8) rest(4) Bb2(4) = 16 -->
    <measure number="14">
      <direction placement="below">
        <direction-type><wedge type="crescendo"/></direction-type>
        <staff>1</staff>
      </direction>
      <!-- German augmented 6th: Ab-C-Eb-F# resolving to Bb -->
      <note>
        <pitch><step>A</step><alter>-1</alter><octave>4</octave></pitch>
        <duration>4</duration>
        <voice>1</voice>
        <type>quarter</type>
        <staff>1</staff>
      </note>
      <note>
        <chord/>
        <pitch><step>C</step><octave>5</octave></pitch>
        <duration>4</duration>
        <voice>1</voice>
        <type>quarter</type>
        <staff>1</staff>
      </note>
      <note>
        <chord/>
        <pitch><step>E</step><alter>-1</alter><octave>5</octave></pitch>
        <duration>4</duration>
        <voice>1</voice>
        <type>quarter</type>
        <staff>1</staff>
      </note>
      <!-- F# = augmented 6th, chromatic -->
      <note>
        <pitch><step>F</step><alter>1</alter><octave>5</octave></pitch>
        <duration>2</duration>
        <voice>1</voice>
        <type>eighth</type>
        <staff>1</staff>
      </note>
      <!-- resolves up to G -->
      <note>
        <pitch><step>G</step><octave>5</octave></pitch>
        <duration>2</duration>
        <voice>1</voice>
        <type>eighth</type>
        <staff>1</staff>
      </note>
      <!-- REST -->
      <note>
        <rest/>
        <duration>4</duration>
        <voice>1</voice>
        <type>quarter</type>
        <staff>1</staff>
      </note>
      <!-- Bb7 pickup -->
      <note>
        <pitch><step>D</step><octave>5</octave></pitch>
        <duration>4</duration>
        <voice>1</voice>
        <type>quarter</type>
        <staff>1</staff>
      </note>
      <note>
        <chord/>
        <pitch><step>F</step><octave>5</octave></pitch>
        <duration>4</duration>
        <voice>1</voice>
        <type>quarter</type>
        <staff>1</staff>
      </note>
      <!-- total voice 1: 4+2+2+4+4 = 16 -->

      <!-- Bass: voice 2 -->
      <note>
        <pitch><step>A</step><alter>-1</alter><octave>2</octave></pitch>
        <duration>8</duration>
        <voice>2</voice>
        <type>half</type>
        <staff>2</staff>
      </note>
      <note>
        <rest/>
        <duration>4</duration>
        <voice>2</voice>
        <type>quarter</type>
        <staff>2</staff>
      </note>
      <note>
        <pitch><step>B</step><alter>-1</alter><octave>2</octave></pitch>
        <duration>4</duration>
        <voice>2</voice>
        <type>quarter</type>
        <staff>2</staff>
      </note>
      <!-- total voice 2: 8+4+4 = 16 -->
    </measure>

    <!-- Measure 15: Fm9 → Bb13 — penultimate, dying away -->
    <!-- Voice 1: F4+Ab4+C5+G5(4) Eb5(2) C5(2) rest(4) Bb4+D5+Ab5(4) = 16 -->
    <!-- Voice 2: F2(8) Bb2(8) = 16 -->
    <measure number="15">
      <direction placement="below">
        <direction-type><wedge type="stop"/></direction-type>
        <staff>1</staff>
      </direction>
      <direction placement="below">
        <direction-type><dynamics><pp/></dynamics></direction-type>
        <staff>1</staff>
        <sound dynamics="36"/>
      </direction>
      <!-- Fm9 -->
      <note>
        <pitch><step>F</step><octave>4</octave></pitch>
        <duration>4</duration>
        <voice>1</voice>
        <type>quarter</type>
        <staff>1</staff>
      </note>
      <note>
        <chord/>
        <pitch><step>A</step><alter>-1</alter><octave>4</octave></pitch>
        <duration>4</duration>
        <voice>1</voice>
        <type>quarter</type>
        <staff>1</staff>
      </note>
      <note>
        <chord/>
        <pitch><step>C</step><octave>5</octave></pitch>
        <duration>4</duration>
        <voice>1</voice>
        <type>quarter</type>
        <staff>1</staff>
      </note>
      <note>
        <chord/>
        <pitch><step>G</step><octave>5</octave></pitch>
        <duration>4</duration>
        <voice>1</voice>
        <type>quarter</type>
        <staff>1</staff>
      </note>
      <note>
        <pitch><step>E</step><alter>-1</alter><octave>5</octave></pitch>
        <duration>2</duration>
        <voice>1</voice>
        <type>eighth</type>
        <staff>1</staff>
      </note>
      <note>
        <pitch><step>C</step><octave>5</octave></pitch>
        <duration>2</duration>
        <voice>1</voice>
        <type>eighth</type>
        <staff>1</staff>
      </note>
      <!-- REST -->
      <note>
        <rest/>
        <duration>4</duration>
        <voice>1</voice>
        <type>quarter</type>
        <staff>1</staff>
      </note>
      <!-- Bb13: Bb+D+Ab+G = dominant 13th -->
      <note>
        <pitch><step>B</step><alter>-1</alter><octave>4</octave></pitch>
        <duration>4</duration>
        <voice>1</voice>
        <type>quarter</type>
        <staff>1</staff>
      </note>
      <note>
        <chord/>
        <pitch><step>D</step><octave>5</octave></pitch>
        <duration>4</duration>
        <voice>1</voice>
        <type>quarter</type>
        <staff>1</staff>
      </note>
      <note>
        <chord/>
        <pitch><step>A</step><alter>-1</alter><octave>5</octave></pitch>
        <duration>4</duration>
        <voice>1</voice>
        <type>quarter</type>
        <staff>1</staff>
      </note>
      <!-- total voice 1: 4+2+2+4+4 = 16 -->

      <!-- Bass: voice 2 -->
      <note>
        <pitch><step>F</step><octave>2</octave></pitch>
        <duration>8</duration>
        <voice>2</voice>
        <type>half</type>
        <staff>2</staff>
      </note>
      <note>
        <pitch><step>B</step><alter>-1</alter><octave>2</octave></pitch>
        <duration>8</duration>
        <voice>2</voice>
        <type>half</type>
        <staff>2</staff>
      </note>
      <!-- total voice 2: 8+8 = 16 -->
    </measure>

    <!-- ============================================================ -->
    <!-- SECTION E: Coda (mm 16-20) — final motif recall, dissolution -->
    <!-- ============================================================ -->

    <!-- Measure 16: Ebmaj9 — motif one last time, gentle -->
    <!-- Voice 1: G4+Bb4(2) D5(2) F5(4) rest(2) Eb5(2) D5(2) Bb4(2) = 16 -->
    <!-- Voice 2: Eb2(8) Bb2(8) = 16 -->
    <measure number="16">
      <direction placement="below">
        <direction-type><dynamics><p/></dynamics></direction-type>
        <staff>1</staff>
        <sound dynamics="49"/>
      </direction>
      <!-- Final motif statement — same opening rhythm -->
      <note>
        <pitch><step>G</step><octave>4</octave></pitch>
        <duration>2</duration>
        <voice>1</voice>
        <type>eighth</type>
        <staff>1</staff>
      </note>
      <note>
        <chord/>
        <pitch><step>B</step><alter>-1</alter><octave>4</octave></pitch>
        <duration>2</duration>
        <voice>1</voice>
        <type>eighth</type>
        <staff>1</staff>
      </note>
      <note>
        <pitch><step>D</step><octave>5</octave></pitch>
        <duration>2</duration>
        <voice>1</voice>
        <type>eighth</type>
        <staff>1</staff>
      </note>
      <note>
        <pitch><step>F</step><octave>5</octave></pitch>
        <duration>4</duration>
        <voice>1</voice>
        <type>quarter</type>
        <staff>1</staff>
        <notations>
          <articulations><tenuto/></articulations>
        </notations>
      </note>
      <!-- rest within phrase — gentle breath -->
      <note>
        <rest/>
        <duration>2</duration>
        <voice>1</voice>
        <type>eighth</type>
        <staff>1</staff>
      </note>
      <note>
        <pitch><step>E</step><alter>-1</alter><octave>5</octave></pitch>
        <duration>2</duration>
        <voice>1</voice>
        <type>eighth</type>
        <staff>1</staff>
      </note>
      <note>
        <pitch><step>D</step><octave>5</octave></pitch>
        <duration>2</duration>
        <voice>1</voice>
        <type>eighth</type>
        <staff>1</staff>
      </note>
      <note>
        <pitch><step>B</step><alter>-1</alter><octave>4</octave></pitch>
        <duration>2</duration>
        <voice>1</voice>
        <type>eighth</type>
        <staff>1</staff>
      </note>
      <!-- total voice 1: 2+2+4+2+2+2+2 = 16 -->

      <!-- Bass: voice 2 -->
      <note>
        <pitch><step>E</step><alter>-1</alter><octave>2</octave></pitch>
        <duration>8</duration>
        <voice>2</voice>
        <type>half</type>
        <staff>2</staff>
      </note>
      <note>
        <pitch><step>B</step><alter>-1</alter><octave>2</octave></pitch>
        <duration>8</duration>
        <voice>2</voice>
        <type>half</type>
        <staff>2</staff>
      </note>
      <!-- total voice 2: 8+8 = 16 -->
    </measure>

    <!-- Measure 17: Cm9 → Ab/C — motif fragment in low register -->
    <!-- Voice 1: C4+Eb4(2) G4(2) Bb4(4) rest(4) Ab4+C5(4) = 16 -->
    <!-- Voice 2: C2(8) Ab2(8) = 16 -->
    <measure number="17">
      <direction placement="below">
        <direction-type><wedge type="diminuendo"/></direction-type>
        <staff>1</staff>
      </direction>
      <!-- Motif fragment in lower register for range utilization -->
      <note>
        <pitch><step>C</step><octave>4</octave></pitch>
        <duration>2</duration>
        <voice>1</voice>
        <type>eighth</type>
        <staff>1</staff>
      </note>
      <note>
        <chord/>
        <pitch><step>E</step><alter>-1</alter><octave>4</octave></pitch>
        <duration>2</duration>
        <voice>1</voice>
        <type>eighth</type>
        <staff>1</staff>
      </note>
      <note>
        <pitch><step>G</step><octave>4</octave></pitch>
        <duration>2</duration>
        <voice>1</voice>
        <type>eighth</type>
        <staff>1</staff>
      </note>
      <note>
        <pitch><step>B</step><alter>-1</alter><octave>4</octave></pitch>
        <duration>4</duration>
        <voice>1</voice>
        <type>quarter</type>
        <staff>1</staff>
      </note>
      <!-- REST -->
      <note>
        <rest/>
        <duration>4</duration>
        <voice>1</voice>
        <type>quarter</type>
        <staff>1</staff>
      </note>
      <!-- Ab/C: borrowed chord color -->
      <note>
        <pitch><step>A</step><alter>-1</alter><octave>4</octave></pitch>
        <duration>4</duration>
        <voice>1</voice>
        <type>quarter</type>
        <staff>1</staff>
      </note>
      <note>
        <chord/>
        <pitch><step>C</step><octave>5</octave></pitch>
        <duration>4</duration>
        <voice>1</voice>
        <type>quarter</type>
        <staff>1</staff>
      </note>
      <!-- total voice 1: 2+2+4+4+4 = 16 -->

      <!-- Bass: voice 2 — low register -->
      <note>
        <pitch><step>C</step><octave>2</octave></pitch>
        <duration>8</duration>
        <voice>2</voice>
        <type>half</type>
        <staff>2</staff>
      </note>
      <note>
        <pitch><step>A</step><alter>-1</alter><octave>2</octave></pitch>
        <duration>8</duration>
        <voice>2</voice>
        <type>half</type>
        <staff>2</staff>
      </note>
      <!-- total voice 2: 8+8 = 16 -->
    </measure>

    <!-- Measure 18: E major (Neapolitan, enharmonic Fb) → Bb7 -->
    <!-- Voice 1: E4+G#4+B4(4) rest(4) D5(2) A4[natural-passing](2) Bb4+D5(4) = 16 -->
    <!-- Voice 2: E2(8) Bb2(8) = 16 -->
    <measure number="18">
      <direction placement="below">
        <direction-type><wedge type="stop"/></direction-type>
        <staff>1</staff>
      </direction>
      <!-- E major = enharmonic Neapolitan (Fb major) -->
      <note>
        <pitch><step>E</step><octave>4</octave></pitch>
        <duration>4</duration>
        <voice>1</voice>
        <type>quarter</type>
        <staff>1</staff>
      </note>
      <note>
        <chord/>
        <pitch><step>G</step><alter>1</alter><octave>4</octave></pitch>
        <duration>4</duration>
        <voice>1</voice>
        <type>quarter</type>
        <staff>1</staff>
      </note>
      <note>
        <chord/>
        <pitch><step>B</step><octave>4</octave></pitch>
        <duration>4</duration>
        <voice>1</voice>
        <type>quarter</type>
        <staff>1</staff>
      </note>
      <!-- REST -->
      <note>
        <rest/>
        <duration>4</duration>
        <voice>1</voice>
        <type>quarter</type>
        <staff>1</staff>
      </note>
      <!-- chromatic passing: D natural, A natural -->
      <note>
        <pitch><step>D</step><octave>5</octave></pitch>
        <duration>2</duration>
        <voice>1</voice>
        <type>eighth</type>
        <staff>1</staff>
      </note>
      <note>
        <pitch><step>A</step><octave>4</octave></pitch>
        <duration>2</duration>
        <voice>1</voice>
        <type>eighth</type>
        <staff>1</staff>
      </note>
      <!-- Bb7 resolution -->
      <note>
        <pitch><step>B</step><alter>-1</alter><octave>4</octave></pitch>
        <duration>4</duration>
        <voice>1</voice>
        <type>quarter</type>
        <staff>1</staff>
      </note>
      <note>
        <chord/>
        <pitch><step>D</step><octave>5</octave></pitch>
        <duration>4</duration>
        <voice>1</voice>
        <type>quarter</type>
        <staff>1</staff>
      </note>
      <!-- total voice 1: 4+4+2+2+4 = 16 -->

      <!-- Bass: voice 2 -->
      <note>
        <pitch><step>E</step><octave>2</octave></pitch>
        <duration>8</duration>
        <voice>2</voice>
        <type>half</type>
        <staff>2</staff>
      </note>
      <note>
        <pitch><step>B</step><alter>-1</alter><octave>2</octave></pitch>
        <duration>8</duration>
        <voice>2</voice>
        <type>half</type>
        <staff>2</staff>
      </note>
      <!-- total voice 2: 8+8 = 16 -->
    </measure>

    <!-- Measure 19: Ebmaj7 — penultimate, dissolving motif fragment -->
    <!-- Voice 1: G4+Bb4+D5(6) rest(2) Eb5(4) D5(4) = 16 -->
    <!-- Voice 2: Eb2(16) = 16 -->
    <measure number="19">
      <direction placement="below">
        <direction-type><dynamics><pp/></dynamics></direction-type>
        <staff>1</staff>
        <sound dynamics="36"/>
      </direction>
      <!-- Dissolving fragment of motif -->
      <note>
        <pitch><step>G</step><octave>4</octave></pitch>
        <duration>6</duration>
        <voice>1</voice>
        <type>quarter</type>
        <dot/>
        <staff>1</staff>
      </note>
      <note>
        <chord/>
        <pitch><step>B</step><alter>-1</alter><octave>4</octave></pitch>
        <duration>6</duration>
        <voice>1</voice>
        <type>quarter</type>
        <dot/>
        <staff>1</staff>
      </note>
      <note>
        <chord/>
        <pitch><step>D</step><octave>5</octave></pitch>
        <duration>6</duration>
        <voice>1</voice>
        <type>quarter</type>
        <dot/>
        <staff>1</staff>
      </note>
      <!-- gentle breath -->
      <note>
        <rest/>
        <duration>2</duration>
        <voice>1</voice>
        <type>eighth</type>
        <staff>1</staff>
      </note>
      <note>
        <pitch><step>E</step><alter>-1</alter><octave>5</octave></pitch>
        <duration>4</duration>
        <voice>1</voice>
        <type>quarter</type>
        <staff>1</staff>
      </note>
      <note>
        <pitch><step>D</step><octave>5</octave></pitch>
        <duration>4</duration>
        <voice>1</voice>
        <type>quarter</type>
        <staff>1</staff>
      </note>
      <!-- total voice 1: 6+2+4+4 = 16 -->

      <direction placement="below">
        <direction-type><wedge type="diminuendo"/></direction-type>
        <staff>1</staff>
      </direction>

      <!-- Bass: voice 2 -->
      <note>
        <pitch><step>E</step><alter>-1</alter><octave>2</octave></pitch>
        <duration>16</duration>
        <voice>2</voice>
        <type>whole</type>
        <staff>2</staff>
      </note>
      <!-- total voice 2: 16 -->
    </measure>

    <!-- Measure 20: Ebmaj9 — final chord with fermata, ppp -->
    <!-- Voice 1: G4+Bb4+D5+F5(16) = 16 -->
    <!-- Voice 2: Eb2+Bb2(16) = 16 -->
    <measure number="20">
      <direction placement="below">
        <direction-type><wedge type="stop"/></direction-type>
        <staff>1</staff>
      </direction>
      <direction placement="below">
        <direction-type><dynamics><ppp/></dynamics></direction-type>
        <staff>1</staff>
        <sound dynamics="24"/>
      </direction>
      <!-- Final Ebmaj9 chord with fermata -->
      <note>
        <pitch><step>G</step><octave>4</octave></pitch>
        <duration>16</duration>
        <voice>1</voice>
        <type>whole</type>
        <staff>1</staff>
        <notations>
          <fermata type="upright"/>
        </notations>
      </note>
      <note>
        <chord/>
        <pitch><step>B</step><alter>-1</alter><octave>4</octave></pitch>
        <duration>16</duration>
        <voice>1</voice>
        <type>whole</type>
        <staff>1</staff>
      </note>
      <note>
        <chord/>
        <pitch><step>D</step><octave>5</octave></pitch>
        <duration>16</duration>
        <voice>1</voice>
        <type>whole</type>
        <staff>1</staff>
      </note>
      <note>
        <chord/>
        <pitch><step>F</step><octave>5</octave></pitch>
        <duration>16</duration>
        <voice>1</voice>
        <type>whole</type>
        <staff>1</staff>
      </note>
      <!-- total voice 1: 16 -->

      <!-- Bass: voice 2 -->
      <note>
        <pitch><step>E</step><alter>-1</alter><octave>2</octave></pitch>
        <duration>16</duration>
        <voice>2</voice>
        <type>whole</type>
        <staff>2</staff>
        <notations>
          <fermata type="upright"/>
        </notations>
      </note>
      <note>
        <chord/>
        <pitch><step>B</step><alter>-1</alter><octave>2</octave></pitch>
        <duration>16</duration>
        <voice>2</voice>
        <type>whole</type>
        <staff>2</staff>
      </note>
      <!-- total voice 2: 16 -->

      <barline location="right">
        <bar-style>light-heavy</bar-style>
      </barline>
    </measure>

  </part>
</score-partwise>
