<?xml version="1.0" encoding="UTF-8"?>
<!DOCTYPE score-partwise PUBLIC "-//Recordare//DTD MusicXML 4.0 Partwise//EN"
  "http://www.musicxml.org/dtds/partwise.dtd">
<score-partwise version="4.0">
  <work>
    <work-title>Piano Waltz in A Major</work-title>
  </work>
  <identification>
    <creator type="composer">MusicLaude</creator>
  </identification>
  <part-list>
    <score-part id="P1">
      <part-name>Piano</part-name>
      <score-instrument id="P1-I1">
        <instrument-name>Piano</instrument-name>
      </score-instrument>
      <midi-instrument id="P1-I1">
        <midi-channel>1</midi-channel>
        <midi-program>1</midi-program>
      </midi-instrument>
    </score-part>
  </part-list>
  <part id="P1">

    <!-- ==================== MEASURE 1 (A section, I chord: Amaj7 - opening motif) ==================== -->
    <measure number="1">
      <attributes>
        <divisions>4</divisions>
        <key><fifths>3</fifths></key>
        <time><beats>3</beats><beat-type>4</beat-type></time>
        <staves>2</staves>
        <clef number="1"><sign>G</sign><line>2</line></clef>
        <clef number="2"><sign>F</sign><line>4</line></clef>
      </attributes>
      <!-- Tempo marking -->
      <direction placement="above">
        <direction-type>
          <words default-y="20" font-size="12" font-weight="bold">Tempo di Valse</words>
        </direction-type>
      </direction>
      <direction placement="above">
        <direction-type>
          <metronome>
            <beat-unit>quarter</beat-unit>
            <per-minute>138</per-minute>
          </metronome>
        </direction-type>
        <sound tempo="138"/>
      </direction>
      <!-- Dynamics: p -->
      <direction placement="below">
        <direction-type><dynamics><p/></dynamics></direction-type>
        <staff>1</staff>
        <sound dynamics="54"/>
      </direction>
      <!-- TREBLE: pickup rest, E5-F#5 eighths, A5 quarter [MOTIF a] -->
      <note>
        <rest/>
        <duration>4</duration>
        <voice>1</voice>
        <type>quarter</type>
        <staff>1</staff>
      </note>
      <note>
        <pitch><step>E</step><octave>5</octave></pitch>
        <duration>2</duration>
        <voice>1</voice>
        <type>eighth</type>
        <staff>1</staff>
        <notations>
          <slur type="start" number="1"/>
        </notations>
      </note>
      <note>
        <pitch><step>F</step><alter>1</alter><octave>5</octave></pitch>
        <duration>2</duration>
        <voice>1</voice>
        <type>eighth</type>
        <staff>1</staff>
      </note>
      <note>
        <pitch><step>A</step><octave>5</octave></pitch>
        <duration>4</duration>
        <voice>1</voice>
        <type>quarter</type>
        <staff>1</staff>
      </note>
      <!-- BACKUP to write staff 2 -->
      <backup><duration>12</duration></backup>
      <!-- BASS: A2 staccato + Amaj7 chord (A3-C#4-E4-G#4) -->
      <note>
        <pitch><step>A</step><octave>2</octave></pitch>
        <duration>4</duration>
        <voice>3</voice>
        <type>quarter</type>
        <staff>2</staff>
        <notations>
          <articulations><staccato/></articulations>
        </notations>
      </note>
      <note>
        <pitch><step>A</step><octave>3</octave></pitch>
        <duration>4</duration>
        <voice>3</voice>
        <type>quarter</type>
        <staff>2</staff>
      </note>
      <note>
        <chord/>
        <pitch><step>C</step><alter>1</alter><octave>4</octave></pitch>
        <duration>4</duration>
        <voice>3</voice>
        <type>quarter</type>
        <staff>2</staff>
      </note>
      <note>
        <chord/>
        <pitch><step>G</step><alter>1</alter><octave>4</octave></pitch>
        <duration>4</duration>
        <voice>3</voice>
        <type>quarter</type>
        <staff>2</staff>
      </note>
      <note>
        <pitch><step>A</step><octave>3</octave></pitch>
        <duration>4</duration>
        <voice>3</voice>
        <type>quarter</type>
        <staff>2</staff>
      </note>
      <note>
        <chord/>
        <pitch><step>E</step><octave>4</octave></pitch>
        <duration>4</duration>
        <voice>3</voice>
        <type>quarter</type>
        <staff>2</staff>
      </note>
    </measure>

    <!-- ==================== MEASURE 2 (I chord continuing - motif answered) ==================== -->
    <measure number="2">
      <!-- TREBLE: G#5 dotted quarter, F#5 eighth, E5 quarter -->
      <note>
        <pitch><step>G</step><alter>1</alter><octave>5</octave></pitch>
        <duration>6</duration>
        <voice>1</voice>
        <type>quarter</type>
        <dot/>
        <staff>1</staff>
      </note>
      <note>
        <pitch><step>F</step><alter>1</alter><octave>5</octave></pitch>
        <duration>2</duration>
        <voice>1</voice>
        <type>eighth</type>
        <staff>1</staff>
      </note>
      <note>
        <pitch><step>E</step><octave>5</octave></pitch>
        <duration>4</duration>
        <voice>1</voice>
        <type>quarter</type>
        <staff>1</staff>
      </note>
      <backup><duration>12</duration></backup>
      <!-- BASS: A2 + Asus4 chord (A3-D4-E4) then A triad -->
      <note>
        <pitch><step>A</step><octave>2</octave></pitch>
        <duration>4</duration>
        <voice>3</voice>
        <type>quarter</type>
        <staff>2</staff>
        <notations>
          <articulations><staccato/></articulations>
        </notations>
      </note>
      <note>
        <pitch><step>A</step><octave>3</octave></pitch>
        <duration>4</duration>
        <voice>3</voice>
        <type>quarter</type>
        <staff>2</staff>
      </note>
      <note>
        <chord/>
        <pitch><step>D</step><octave>4</octave></pitch>
        <duration>4</duration>
        <voice>3</voice>
        <type>quarter</type>
        <staff>2</staff>
      </note>
      <note>
        <chord/>
        <pitch><step>E</step><octave>4</octave></pitch>
        <duration>4</duration>
        <voice>3</voice>
        <type>quarter</type>
        <staff>2</staff>
      </note>
      <note>
        <pitch><step>A</step><octave>3</octave></pitch>
        <duration>4</duration>
        <voice>3</voice>
        <type>quarter</type>
        <staff>2</staff>
      </note>
      <note>
        <chord/>
        <pitch><step>C</step><alter>1</alter><octave>4</octave></pitch>
        <duration>4</duration>
        <voice>3</voice>
        <type>quarter</type>
        <staff>2</staff>
      </note>
      <note>
        <chord/>
        <pitch><step>E</step><octave>4</octave></pitch>
        <duration>4</duration>
        <voice>3</voice>
        <type>quarter</type>
        <staff>2</staff>
      </note>
    </measure>

    <!-- ==================== MEASURE 3 (IV chord: Dmaj7, motif transposed down) ==================== -->
    <measure number="3">
      <!-- TREBLE: motif transposed: D5-E5 eighths, F#5 quarter, quarter rest [MOTIF a at IV] -->
      <note>
        <pitch><step>D</step><octave>5</octave></pitch>
        <duration>2</duration>
        <voice>1</voice>
        <type>eighth</type>
        <staff>1</staff>
      </note>
      <note>
        <pitch><step>E</step><octave>5</octave></pitch>
        <duration>2</duration>
        <voice>1</voice>
        <type>eighth</type>
        <staff>1</staff>
      </note>
      <note>
        <pitch><step>F</step><alter>1</alter><octave>5</octave></pitch>
        <duration>4</duration>
        <voice>1</voice>
        <type>quarter</type>
        <staff>1</staff>
      </note>
      <!-- REST: breathing space -->
      <note>
        <rest/>
        <duration>4</duration>
        <voice>1</voice>
        <type>quarter</type>
        <staff>1</staff>
      </note>
      <backup><duration>12</duration></backup>
      <!-- BASS: D3 + Dmaj7 chord (D3-F#3-A3-C#4) -->
      <note>
        <pitch><step>D</step><octave>3</octave></pitch>
        <duration>4</duration>
        <voice>3</voice>
        <type>quarter</type>
        <staff>2</staff>
        <notations>
          <articulations><staccato/></articulations>
        </notations>
      </note>
      <note>
        <pitch><step>F</step><alter>1</alter><octave>3</octave></pitch>
        <duration>4</duration>
        <voice>3</voice>
        <type>quarter</type>
        <staff>2</staff>
      </note>
      <note>
        <chord/>
        <pitch><step>A</step><octave>3</octave></pitch>
        <duration>4</duration>
        <voice>3</voice>
        <type>quarter</type>
        <staff>2</staff>
      </note>
      <note>
        <chord/>
        <pitch><step>C</step><alter>1</alter><octave>4</octave></pitch>
        <duration>4</duration>
        <voice>3</voice>
        <type>quarter</type>
        <staff>2</staff>
      </note>
      <note>
        <pitch><step>D</step><octave>3</octave></pitch>
        <duration>4</duration>
        <voice>3</voice>
        <type>quarter</type>
        <staff>2</staff>
      </note>
      <note>
        <chord/>
        <pitch><step>F</step><alter>1</alter><octave>3</octave></pitch>
        <duration>4</duration>
        <voice>3</voice>
        <type>quarter</type>
        <staff>2</staff>
      </note>
      <note>
        <chord/>
        <pitch><step>A</step><octave>3</octave></pitch>
        <duration>4</duration>
        <voice>3</voice>
        <type>quarter</type>
        <staff>2</staff>
      </note>
    </measure>

    <!-- ==================== MEASURE 4 (V7 chord: E7, chromatic passing tone C natural) ==================== -->
    <measure number="4">
      <!-- TREBLE: G#5 dotted quarter, chromatic: E5 sixteenth-D#5 sixteenth, B4 quarter -->
      <note>
        <pitch><step>G</step><alter>1</alter><octave>5</octave></pitch>
        <duration>6</duration>
        <voice>1</voice>
        <type>quarter</type>
        <dot/>
        <staff>1</staff>
      </note>
      <note>
        <pitch><step>E</step><octave>5</octave></pitch>
        <duration>1</duration>
        <voice>1</voice>
        <type>16th</type>
        <staff>1</staff>
      </note>
      <note>
        <pitch><step>D</step><alter>1</alter><octave>5</octave></pitch>
        <duration>1</duration>
        <voice>1</voice>
        <type>16th</type>
        <staff>1</staff>
        <accidental>sharp</accidental>
      </note>
      <note>
        <pitch><step>B</step><octave>4</octave></pitch>
        <duration>4</duration>
        <voice>1</voice>
        <type>quarter</type>
        <staff>1</staff>
        <notations>
          <slur type="stop" number="1"/>
        </notations>
      </note>
      <backup><duration>12</duration></backup>
      <!-- BASS: E2 + E7 chord (E3-G#3-B3-D4) -->
      <note>
        <pitch><step>E</step><octave>2</octave></pitch>
        <duration>4</duration>
        <voice>3</voice>
        <type>quarter</type>
        <staff>2</staff>
        <notations>
          <articulations><staccato/></articulations>
        </notations>
      </note>
      <note>
        <pitch><step>E</step><octave>3</octave></pitch>
        <duration>4</duration>
        <voice>3</voice>
        <type>quarter</type>
        <staff>2</staff>
      </note>
      <note>
        <chord/>
        <pitch><step>G</step><alter>1</alter><octave>3</octave></pitch>
        <duration>4</duration>
        <voice>3</voice>
        <type>quarter</type>
        <staff>2</staff>
      </note>
      <note>
        <chord/>
        <pitch><step>B</step><octave>3</octave></pitch>
        <duration>4</duration>
        <voice>3</voice>
        <type>quarter</type>
        <staff>2</staff>
      </note>
      <note>
        <chord/>
        <pitch><step>D</step><octave>4</octave></pitch>
        <duration>4</duration>
        <voice>3</voice>
        <type>quarter</type>
        <staff>2</staff>
      </note>
      <note>
        <pitch><step>E</step><octave>3</octave></pitch>
        <duration>4</duration>
        <voice>3</voice>
        <type>quarter</type>
        <staff>2</staff>
      </note>
      <note>
        <chord/>
        <pitch><step>G</step><alter>1</alter><octave>3</octave></pitch>
        <duration>4</duration>
        <voice>3</voice>
        <type>quarter</type>
        <staff>2</staff>
      </note>
      <note>
        <chord/>
        <pitch><step>B</step><octave>3</octave></pitch>
        <duration>4</duration>
        <voice>3</voice>
        <type>quarter</type>
        <staff>2</staff>
      </note>
    </measure>

    <!-- ==================== MEASURE 5 (I chord, motif varied: rhythmic augmentation) ==================== -->
    <measure number="5">
      <!-- TREBLE: motif in augmentation: A4 quarter, C#5-E5 eighths, F#5 quarter [MOTIF a varied] -->
      <note>
        <pitch><step>A</step><octave>4</octave></pitch>
        <duration>4</duration>
        <voice>1</voice>
        <type>quarter</type>
        <staff>1</staff>
        <notations>
          <slur type="start" number="1"/>
        </notations>
      </note>
      <note>
        <pitch><step>C</step><alter>1</alter><octave>5</octave></pitch>
        <duration>2</duration>
        <voice>1</voice>
        <type>eighth</type>
        <staff>1</staff>
      </note>
      <note>
        <pitch><step>E</step><octave>5</octave></pitch>
        <duration>2</duration>
        <voice>1</voice>
        <type>eighth</type>
        <staff>1</staff>
      </note>
      <note>
        <pitch><step>F</step><alter>1</alter><octave>5</octave></pitch>
        <duration>4</duration>
        <voice>1</voice>
        <type>quarter</type>
        <staff>1</staff>
      </note>
      <backup><duration>12</duration></backup>
      <!-- BASS: A2 + A7 chord (A3-C#4-E4-G4 natural = dominant of D) -->
      <note>
        <pitch><step>A</step><octave>2</octave></pitch>
        <duration>4</duration>
        <voice>3</voice>
        <type>quarter</type>
        <staff>2</staff>
        <notations>
          <articulations><staccato/></articulations>
        </notations>
      </note>
      <note>
        <pitch><step>A</step><octave>3</octave></pitch>
        <duration>4</duration>
        <voice>3</voice>
        <type>quarter</type>
        <staff>2</staff>
      </note>
      <note>
        <chord/>
        <pitch><step>C</step><alter>1</alter><octave>4</octave></pitch>
        <duration>4</duration>
        <voice>3</voice>
        <type>quarter</type>
        <staff>2</staff>
      </note>
      <note>
        <chord/>
        <pitch><step>E</step><octave>4</octave></pitch>
        <duration>4</duration>
        <voice>3</voice>
        <type>quarter</type>
        <staff>2</staff>
      </note>
      <note>
        <chord/>
        <pitch><step>G</step><octave>4</octave></pitch>
        <duration>4</duration>
        <voice>3</voice>
        <type>quarter</type>
        <staff>2</staff>
        <accidental>natural</accidental>
      </note>
      <note>
        <pitch><step>A</step><octave>3</octave></pitch>
        <duration>4</duration>
        <voice>3</voice>
        <type>quarter</type>
        <staff>2</staff>
      </note>
      <note>
        <chord/>
        <pitch><step>C</step><alter>1</alter><octave>4</octave></pitch>
        <duration>4</duration>
        <voice>3</voice>
        <type>quarter</type>
        <staff>2</staff>
      </note>
      <note>
        <chord/>
        <pitch><step>E</step><octave>4</octave></pitch>
        <duration>4</duration>
        <voice>3</voice>
        <type>quarter</type>
        <staff>2</staff>
      </note>
    </measure>

    <!-- ==================== MEASURE 6 (vi7: F#m7, descending answer with chromatic) ==================== -->
    <measure number="6">
      <!-- TREBLE: E5 dotted quarter, D#5 eighth (chromatic passing), C#5 quarter -->
      <note>
        <pitch><step>E</step><octave>5</octave></pitch>
        <duration>6</duration>
        <voice>1</voice>
        <type>quarter</type>
        <dot/>
        <staff>1</staff>
      </note>
      <note>
        <pitch><step>D</step><alter>1</alter><octave>5</octave></pitch>
        <duration>2</duration>
        <voice>1</voice>
        <type>eighth</type>
        <staff>1</staff>
        <accidental>sharp</accidental>
      </note>
      <note>
        <pitch><step>C</step><alter>1</alter><octave>5</octave></pitch>
        <duration>4</duration>
        <voice>1</voice>
        <type>quarter</type>
        <staff>1</staff>
        <notations>
          <slur type="stop" number="1"/>
        </notations>
      </note>
      <backup><duration>12</duration></backup>
      <!-- BASS: F#2 + F#m7 chord (F#3-A3-C#4-E4) -->
      <note>
        <pitch><step>F</step><alter>1</alter><octave>2</octave></pitch>
        <duration>4</duration>
        <voice>3</voice>
        <type>quarter</type>
        <staff>2</staff>
        <notations>
          <articulations><staccato/></articulations>
        </notations>
      </note>
      <note>
        <pitch><step>F</step><alter>1</alter><octave>3</octave></pitch>
        <duration>4</duration>
        <voice>3</voice>
        <type>quarter</type>
        <staff>2</staff>
      </note>
      <note>
        <chord/>
        <pitch><step>A</step><octave>3</octave></pitch>
        <duration>4</duration>
        <voice>3</voice>
        <type>quarter</type>
        <staff>2</staff>
      </note>
      <note>
        <chord/>
        <pitch><step>C</step><alter>1</alter><octave>4</octave></pitch>
        <duration>4</duration>
        <voice>3</voice>
        <type>quarter</type>
        <staff>2</staff>
      </note>
      <note>
        <chord/>
        <pitch><step>E</step><octave>4</octave></pitch>
        <duration>4</duration>
        <voice>3</voice>
        <type>quarter</type>
        <staff>2</staff>
      </note>
      <note>
        <pitch><step>F</step><alter>1</alter><octave>3</octave></pitch>
        <duration>4</duration>
        <voice>3</voice>
        <type>quarter</type>
        <staff>2</staff>
      </note>
      <note>
        <chord/>
        <pitch><step>A</step><octave>3</octave></pitch>
        <duration>4</duration>
        <voice>3</voice>
        <type>quarter</type>
        <staff>2</staff>
      </note>
      <note>
        <chord/>
        <pitch><step>C</step><alter>1</alter><octave>4</octave></pitch>
        <duration>4</duration>
        <voice>3</voice>
        <type>quarter</type>
        <staff>2</staff>
      </note>
    </measure>

    <!-- ==================== MEASURE 7 (ii7: Bm7, crescendo, motif fragment) ==================== -->
    <measure number="7">
      <direction placement="below">
        <direction-type><wedge type="crescendo"/></direction-type>
        <staff>1</staff>
      </direction>
      <!-- TREBLE: B4-C#5 eighths (motif fragment), D5 dotted quarter, rest eighth -->
      <note>
        <pitch><step>B</step><octave>4</octave></pitch>
        <duration>2</duration>
        <voice>1</voice>
        <type>eighth</type>
        <staff>1</staff>
        <notations>
          <slur type="start" number="1"/>
        </notations>
      </note>
      <note>
        <pitch><step>C</step><alter>1</alter><octave>5</octave></pitch>
        <duration>2</duration>
        <voice>1</voice>
        <type>eighth</type>
        <staff>1</staff>
      </note>
      <note>
        <pitch><step>F</step><alter>1</alter><octave>5</octave></pitch>
        <duration>6</duration>
        <voice>1</voice>
        <type>quarter</type>
        <dot/>
        <staff>1</staff>
      </note>
      <!-- REST: breathing space -->
      <note>
        <rest/>
        <duration>2</duration>
        <voice>1</voice>
        <type>eighth</type>
        <staff>1</staff>
      </note>
      <backup><duration>12</duration></backup>
      <!-- BASS: B2 + Bm7 chord (B3-D4-F#4-A4) -->
      <note>
        <pitch><step>B</step><octave>2</octave></pitch>
        <duration>4</duration>
        <voice>3</voice>
        <type>quarter</type>
        <staff>2</staff>
        <notations>
          <articulations><staccato/></articulations>
        </notations>
      </note>
      <note>
        <pitch><step>B</step><octave>3</octave></pitch>
        <duration>4</duration>
        <voice>3</voice>
        <type>quarter</type>
        <staff>2</staff>
      </note>
      <note>
        <chord/>
        <pitch><step>D</step><octave>4</octave></pitch>
        <duration>4</duration>
        <voice>3</voice>
        <type>quarter</type>
        <staff>2</staff>
      </note>
      <note>
        <chord/>
        <pitch><step>F</step><alter>1</alter><octave>4</octave></pitch>
        <duration>4</duration>
        <voice>3</voice>
        <type>quarter</type>
        <staff>2</staff>
      </note>
      <note>
        <chord/>
        <pitch><step>A</step><octave>4</octave></pitch>
        <duration>4</duration>
        <voice>3</voice>
        <type>quarter</type>
        <staff>2</staff>
      </note>
      <note>
        <pitch><step>B</step><octave>3</octave></pitch>
        <duration>4</duration>
        <voice>3</voice>
        <type>quarter</type>
        <staff>2</staff>
      </note>
      <note>
        <chord/>
        <pitch><step>D</step><octave>4</octave></pitch>
        <duration>4</duration>
        <voice>3</voice>
        <type>quarter</type>
        <staff>2</staff>
      </note>
      <note>
        <chord/>
        <pitch><step>F</step><alter>1</alter><octave>4</octave></pitch>
        <duration>4</duration>
        <voice>3</voice>
        <type>quarter</type>
        <staff>2</staff>
      </note>
    </measure>

    <!-- ==================== MEASURE 8 (V7sus4 -> V7, half cadence) ==================== -->
    <measure number="8">
      <direction placement="below">
        <direction-type><wedge type="stop"/></direction-type>
        <staff>1</staff>
      </direction>
      <!-- TREBLE: E5 quarter, D5 eighth, C#5 eighth, B4 quarter -->
      <note>
        <pitch><step>E</step><octave>5</octave></pitch>
        <duration>4</duration>
        <voice>1</voice>
        <type>quarter</type>
        <staff>1</staff>
      </note>
      <note>
        <pitch><step>D</step><octave>5</octave></pitch>
        <duration>2</duration>
        <voice>1</voice>
        <type>eighth</type>
        <staff>1</staff>
      </note>
      <note>
        <pitch><step>C</step><alter>1</alter><octave>5</octave></pitch>
        <duration>2</duration>
        <voice>1</voice>
        <type>eighth</type>
        <staff>1</staff>
      </note>
      <note>
        <pitch><step>B</step><octave>4</octave></pitch>
        <duration>4</duration>
        <voice>1</voice>
        <type>quarter</type>
        <staff>1</staff>
        <notations>
          <slur type="stop" number="1"/>
        </notations>
      </note>
      <backup><duration>12</duration></backup>
      <!-- BASS: E2 + Esus4 (E3-A3-B3) then E7 (E3-G#3-B3-D4) -->
      <note>
        <pitch><step>E</step><octave>2</octave></pitch>
        <duration>4</duration>
        <voice>3</voice>
        <type>quarter</type>
        <staff>2</staff>
        <notations>
          <articulations><staccato/></articulations>
        </notations>
      </note>
      <note>
        <pitch><step>E</step><octave>3</octave></pitch>
        <duration>4</duration>
        <voice>3</voice>
        <type>quarter</type>
        <staff>2</staff>
      </note>
      <note>
        <chord/>
        <pitch><step>A</step><octave>3</octave></pitch>
        <duration>4</duration>
        <voice>3</voice>
        <type>quarter</type>
        <staff>2</staff>
      </note>
      <note>
        <chord/>
        <pitch><step>B</step><octave>3</octave></pitch>
        <duration>4</duration>
        <voice>3</voice>
        <type>quarter</type>
        <staff>2</staff>
      </note>
      <note>
        <pitch><step>E</step><octave>3</octave></pitch>
        <duration>4</duration>
        <voice>3</voice>
        <type>quarter</type>
        <staff>2</staff>
      </note>
      <note>
        <chord/>
        <pitch><step>G</step><alter>1</alter><octave>3</octave></pitch>
        <duration>4</duration>
        <voice>3</voice>
        <type>quarter</type>
        <staff>2</staff>
      </note>
      <note>
        <chord/>
        <pitch><step>B</step><octave>3</octave></pitch>
        <duration>4</duration>
        <voice>3</voice>
        <type>quarter</type>
        <staff>2</staff>
      </note>
      <note>
        <chord/>
        <pitch><step>D</step><octave>4</octave></pitch>
        <duration>4</duration>
        <voice>3</voice>
        <type>quarter</type>
        <staff>2</staff>
      </note>
    </measure>

    <!-- ==================== MEASURE 9 (B section, IV: D major, mf, new character) ==================== -->
    <measure number="9">
      <direction placement="below">
        <direction-type><dynamics><mf/></dynamics></direction-type>
        <staff>1</staff>
        <sound dynamics="80"/>
      </direction>
      <!-- TREBLE: F#5 quarter (accented), A5-F#5 eighths, D5 quarter -->
      <note>
        <pitch><step>F</step><alter>1</alter><octave>5</octave></pitch>
        <duration>4</duration>
        <voice>1</voice>
        <type>quarter</type>
        <staff>1</staff>
        <notations>
          <slur type="start" number="1"/>
          <articulations><accent/></articulations>
        </notations>
      </note>
      <note>
        <pitch><step>A</step><octave>5</octave></pitch>
        <duration>2</duration>
        <voice>1</voice>
        <type>eighth</type>
        <staff>1</staff>
      </note>
      <note>
        <pitch><step>F</step><alter>1</alter><octave>5</octave></pitch>
        <duration>2</duration>
        <voice>1</voice>
        <type>eighth</type>
        <staff>1</staff>
      </note>
      <note>
        <pitch><step>D</step><octave>5</octave></pitch>
        <duration>4</duration>
        <voice>1</voice>
        <type>quarter</type>
        <staff>1</staff>
      </note>
      <backup><duration>12</duration></backup>
      <!-- BASS: D3 + Dmaj7 (D3-F#3-A3-C#4) -->
      <note>
        <pitch><step>D</step><octave>3</octave></pitch>
        <duration>4</duration>
        <voice>3</voice>
        <type>quarter</type>
        <staff>2</staff>
        <notations>
          <articulations><staccato/></articulations>
        </notations>
      </note>
      <note>
        <pitch><step>D</step><octave>3</octave></pitch>
        <duration>4</duration>
        <voice>3</voice>
        <type>quarter</type>
        <staff>2</staff>
      </note>
      <note>
        <chord/>
        <pitch><step>F</step><alter>1</alter><octave>3</octave></pitch>
        <duration>4</duration>
        <voice>3</voice>
        <type>quarter</type>
        <staff>2</staff>
      </note>
      <note>
        <chord/>
        <pitch><step>A</step><octave>3</octave></pitch>
        <duration>4</duration>
        <voice>3</voice>
        <type>quarter</type>
        <staff>2</staff>
      </note>
      <note>
        <chord/>
        <pitch><step>C</step><alter>1</alter><octave>4</octave></pitch>
        <duration>4</duration>
        <voice>3</voice>
        <type>quarter</type>
        <staff>2</staff>
      </note>
      <note>
        <pitch><step>D</step><octave>3</octave></pitch>
        <duration>4</duration>
        <voice>3</voice>
        <type>quarter</type>
        <staff>2</staff>
      </note>
      <note>
        <chord/>
        <pitch><step>F</step><alter>1</alter><octave>3</octave></pitch>
        <duration>4</duration>
        <voice>3</voice>
        <type>quarter</type>
        <staff>2</staff>
      </note>
      <note>
        <chord/>
        <pitch><step>A</step><octave>3</octave></pitch>
        <duration>4</duration>
        <voice>3</voice>
        <type>quarter</type>
        <staff>2</staff>
      </note>
    </measure>

    <!-- ==================== MEASURE 10 (V9: E9, higher range) ==================== -->
    <measure number="10">
      <!-- TREBLE: E5 dotted quarter, G#5 eighth, B5 quarter (reaching high) -->
      <note>
        <pitch><step>E</step><octave>5</octave></pitch>
        <duration>6</duration>
        <voice>1</voice>
        <type>quarter</type>
        <dot/>
        <staff>1</staff>
      </note>
      <note>
        <pitch><step>G</step><alter>1</alter><octave>5</octave></pitch>
        <duration>2</duration>
        <voice>1</voice>
        <type>eighth</type>
        <staff>1</staff>
      </note>
      <note>
        <pitch><step>B</step><octave>5</octave></pitch>
        <duration>4</duration>
        <voice>1</voice>
        <type>quarter</type>
        <staff>1</staff>
      </note>
      <backup><duration>12</duration></backup>
      <!-- BASS: E2 + E9 chord (E3-G#3-B3-D4-F#4) -->
      <note>
        <pitch><step>E</step><octave>2</octave></pitch>
        <duration>4</duration>
        <voice>3</voice>
        <type>quarter</type>
        <staff>2</staff>
        <notations>
          <articulations><staccato/></articulations>
        </notations>
      </note>
      <note>
        <pitch><step>E</step><octave>3</octave></pitch>
        <duration>4</duration>
        <voice>3</voice>
        <type>quarter</type>
        <staff>2</staff>
      </note>
      <note>
        <chord/>
        <pitch><step>G</step><alter>1</alter><octave>3</octave></pitch>
        <duration>4</duration>
        <voice>3</voice>
        <type>quarter</type>
        <staff>2</staff>
      </note>
      <note>
        <chord/>
        <pitch><step>D</step><octave>4</octave></pitch>
        <duration>4</duration>
        <voice>3</voice>
        <type>quarter</type>
        <staff>2</staff>
      </note>
      <note>
        <chord/>
        <pitch><step>F</step><alter>1</alter><octave>4</octave></pitch>
        <duration>4</duration>
        <voice>3</voice>
        <type>quarter</type>
        <staff>2</staff>
      </note>
      <note>
        <pitch><step>E</step><octave>3</octave></pitch>
        <duration>4</duration>
        <voice>3</voice>
        <type>quarter</type>
        <staff>2</staff>
      </note>
      <note>
        <chord/>
        <pitch><step>G</step><alter>1</alter><octave>3</octave></pitch>
        <duration>4</duration>
        <voice>3</voice>
        <type>quarter</type>
        <staff>2</staff>
      </note>
      <note>
        <chord/>
        <pitch><step>B</step><octave>3</octave></pitch>
        <duration>4</duration>
        <voice>3</voice>
        <type>quarter</type>
        <staff>2</staff>
      </note>
    </measure>

    <!-- ==================== MEASURE 11 (vi: F#m, motif echo high then dropping) ==================== -->
    <measure number="11">
      <!-- TREBLE: A5 quarter (accented), F#5-E5 eighths, C#5 quarter -->
      <note>
        <pitch><step>A</step><octave>5</octave></pitch>
        <duration>4</duration>
        <voice>1</voice>
        <type>quarter</type>
        <staff>1</staff>
        <notations>
          <articulations><accent/></articulations>
        </notations>
      </note>
      <note>
        <pitch><step>F</step><alter>1</alter><octave>5</octave></pitch>
        <duration>2</duration>
        <voice>1</voice>
        <type>eighth</type>
        <staff>1</staff>
      </note>
      <note>
        <pitch><step>E</step><octave>5</octave></pitch>
        <duration>2</duration>
        <voice>1</voice>
        <type>eighth</type>
        <staff>1</staff>
      </note>
      <note>
        <pitch><step>C</step><alter>1</alter><octave>5</octave></pitch>
        <duration>4</duration>
        <voice>1</voice>
        <type>quarter</type>
        <staff>1</staff>
      </note>
      <backup><duration>12</duration></backup>
      <!-- BASS: F#2 + F#m add9 (F#3-A3-C#4-G#4) -->
      <note>
        <pitch><step>F</step><alter>1</alter><octave>2</octave></pitch>
        <duration>4</duration>
        <voice>3</voice>
        <type>quarter</type>
        <staff>2</staff>
        <notations>
          <articulations><staccato/></articulations>
        </notations>
      </note>
      <note>
        <pitch><step>F</step><alter>1</alter><octave>3</octave></pitch>
        <duration>4</duration>
        <voice>3</voice>
        <type>quarter</type>
        <staff>2</staff>
      </note>
      <note>
        <chord/>
        <pitch><step>A</step><octave>3</octave></pitch>
        <duration>4</duration>
        <voice>3</voice>
        <type>quarter</type>
        <staff>2</staff>
      </note>
      <note>
        <chord/>
        <pitch><step>C</step><alter>1</alter><octave>4</octave></pitch>
        <duration>4</duration>
        <voice>3</voice>
        <type>quarter</type>
        <staff>2</staff>
      </note>
      <note>
        <pitch><step>F</step><alter>1</alter><octave>3</octave></pitch>
        <duration>4</duration>
        <voice>3</voice>
        <type>quarter</type>
        <staff>2</staff>
      </note>
      <note>
        <chord/>
        <pitch><step>A</step><octave>3</octave></pitch>
        <duration>4</duration>
        <voice>3</voice>
        <type>quarter</type>
        <staff>2</staff>
      </note>
      <note>
        <chord/>
        <pitch><step>G</step><alter>1</alter><octave>4</octave></pitch>
        <duration>4</duration>
        <voice>3</voice>
        <type>quarter</type>
        <staff>2</staff>
      </note>
    </measure>

    <!-- ==================== MEASURE 12 (V7: E7 - transition, rest then motif) ==================== -->
    <measure number="12">
      <!-- TREBLE: quarter rest, then B4-D5 eighths, E5 quarter [motif fragment] -->
      <note>
        <rest/>
        <duration>4</duration>
        <voice>1</voice>
        <type>quarter</type>
        <staff>1</staff>
      </note>
      <note>
        <pitch><step>B</step><octave>4</octave></pitch>
        <duration>2</duration>
        <voice>1</voice>
        <type>eighth</type>
        <staff>1</staff>
      </note>
      <note>
        <pitch><step>D</step><octave>5</octave></pitch>
        <duration>2</duration>
        <voice>1</voice>
        <type>eighth</type>
        <staff>1</staff>
      </note>
      <note>
        <pitch><step>E</step><octave>5</octave></pitch>
        <duration>4</duration>
        <voice>1</voice>
        <type>quarter</type>
        <staff>1</staff>
        <notations>
          <slur type="stop" number="1"/>
        </notations>
      </note>
      <backup><duration>12</duration></backup>
      <!-- BASS: E3 + E7 chord (E3-G#3-B3-D4) -->
      <note>
        <pitch><step>E</step><octave>3</octave></pitch>
        <duration>4</duration>
        <voice>3</voice>
        <type>quarter</type>
        <staff>2</staff>
        <notations>
          <articulations><staccato/></articulations>
        </notations>
      </note>
      <note>
        <pitch><step>E</step><octave>3</octave></pitch>
        <duration>4</duration>
        <voice>3</voice>
        <type>quarter</type>
        <staff>2</staff>
      </note>
      <note>
        <chord/>
        <pitch><step>G</step><alter>1</alter><octave>3</octave></pitch>
        <duration>4</duration>
        <voice>3</voice>
        <type>quarter</type>
        <staff>2</staff>
      </note>
      <note>
        <chord/>
        <pitch><step>B</step><octave>3</octave></pitch>
        <duration>4</duration>
        <voice>3</voice>
        <type>quarter</type>
        <staff>2</staff>
      </note>
      <note>
        <chord/>
        <pitch><step>D</step><octave>4</octave></pitch>
        <duration>4</duration>
        <voice>3</voice>
        <type>quarter</type>
        <staff>2</staff>
      </note>
      <note>
        <pitch><step>E</step><octave>3</octave></pitch>
        <duration>4</duration>
        <voice>3</voice>
        <type>quarter</type>
        <staff>2</staff>
      </note>
      <note>
        <chord/>
        <pitch><step>G</step><alter>1</alter><octave>3</octave></pitch>
        <duration>4</duration>
        <voice>3</voice>
        <type>quarter</type>
        <staff>2</staff>
      </note>
      <note>
        <chord/>
        <pitch><step>B</step><octave>3</octave></pitch>
        <duration>4</duration>
        <voice>3</voice>
        <type>quarter</type>
        <staff>2</staff>
      </note>
    </measure>

    <!-- ==================== MEASURE 13 (C section: TONICIZATION to E major, V/V->V) ==================== -->
    <!-- Brief tonicization: B7 = V of E = V/V in A -->
    <measure number="13">
      <direction placement="below">
        <direction-type><dynamics><mp/></dynamics></direction-type>
        <staff>1</staff>
        <sound dynamics="64"/>
      </direction>
      <!-- TREBLE: motif in E major: B4-C#5 eighths, E5 dotted quarter, eighth rest -->
      <note>
        <pitch><step>B</step><octave>4</octave></pitch>
        <duration>2</duration>
        <voice>1</voice>
        <type>eighth</type>
        <staff>1</staff>
        <notations>
          <slur type="start" number="1"/>
        </notations>
      </note>
      <note>
        <pitch><step>C</step><alter>1</alter><octave>5</octave></pitch>
        <duration>2</duration>
        <voice>1</voice>
        <type>eighth</type>
        <staff>1</staff>
      </note>
      <note>
        <pitch><step>E</step><octave>5</octave></pitch>
        <duration>6</duration>
        <voice>1</voice>
        <type>quarter</type>
        <dot/>
        <staff>1</staff>
      </note>
      <!-- REST -->
      <note>
        <rest/>
        <duration>2</duration>
        <voice>1</voice>
        <type>eighth</type>
        <staff>1</staff>
      </note>
      <backup><duration>12</duration></backup>
      <!-- BASS: B2 + B7 chord (B3-D#4-F#4-A4) = V/V -->
      <note>
        <pitch><step>B</step><octave>2</octave></pitch>
        <duration>4</duration>
        <voice>3</voice>
        <type>quarter</type>
        <staff>2</staff>
        <notations>
          <articulations><staccato/></articulations>
        </notations>
      </note>
      <note>
        <pitch><step>B</step><octave>3</octave></pitch>
        <duration>4</duration>
        <voice>3</voice>
        <type>quarter</type>
        <staff>2</staff>
      </note>
      <note>
        <chord/>
        <pitch><step>D</step><alter>1</alter><octave>4</octave></pitch>
        <duration>4</duration>
        <voice>3</voice>
        <type>quarter</type>
        <staff>2</staff>
        <accidental>sharp</accidental>
      </note>
      <note>
        <chord/>
        <pitch><step>F</step><alter>1</alter><octave>4</octave></pitch>
        <duration>4</duration>
        <voice>3</voice>
        <type>quarter</type>
        <staff>2</staff>
      </note>
      <note>
        <pitch><step>B</step><octave>3</octave></pitch>
        <duration>4</duration>
        <voice>3</voice>
        <type>quarter</type>
        <staff>2</staff>
      </note>
      <note>
        <chord/>
        <pitch><step>D</step><alter>1</alter><octave>4</octave></pitch>
        <duration>4</duration>
        <voice>3</voice>
        <type>quarter</type>
        <staff>2</staff>
      </note>
      <note>
        <chord/>
        <pitch><step>A</step><octave>4</octave></pitch>
        <duration>4</duration>
        <voice>3</voice>
        <type>quarter</type>
        <staff>2</staff>
      </note>
    </measure>

    <!-- ==================== MEASURE 14 (E major: tonicization target) ==================== -->
    <measure number="14">
      <!-- TREBLE: G#5 sixteenth-F#5 sixteenth-E5 eighth (chromatic turn), E5 dotted quarter, D#5 eighth -->
      <note>
        <pitch><step>G</step><alter>1</alter><octave>5</octave></pitch>
        <duration>1</duration>
        <voice>1</voice>
        <type>16th</type>
        <staff>1</staff>
      </note>
      <note>
        <pitch><step>F</step><alter>1</alter><octave>5</octave></pitch>
        <duration>1</duration>
        <voice>1</voice>
        <type>16th</type>
        <staff>1</staff>
      </note>
      <note>
        <pitch><step>E</step><octave>5</octave></pitch>
        <duration>2</duration>
        <voice>1</voice>
        <type>eighth</type>
        <staff>1</staff>
      </note>
      <note>
        <pitch><step>E</step><octave>5</octave></pitch>
        <duration>6</duration>
        <voice>1</voice>
        <type>quarter</type>
        <dot/>
        <staff>1</staff>
      </note>
      <note>
        <pitch><step>D</step><alter>1</alter><octave>5</octave></pitch>
        <duration>2</duration>
        <voice>1</voice>
        <type>eighth</type>
        <staff>1</staff>
        <accidental>sharp</accidental>
      </note>
      <backup><duration>12</duration></backup>
      <!-- BASS: E3 + E major chord (E3-G#3-B3) = I in E -->
      <note>
        <pitch><step>E</step><octave>3</octave></pitch>
        <duration>4</duration>
        <voice>3</voice>
        <type>quarter</type>
        <staff>2</staff>
        <notations>
          <articulations><staccato/></articulations>
        </notations>
      </note>
      <note>
        <pitch><step>E</step><octave>3</octave></pitch>
        <duration>4</duration>
        <voice>3</voice>
        <type>quarter</type>
        <staff>2</staff>
      </note>
      <note>
        <chord/>
        <pitch><step>G</step><alter>1</alter><octave>3</octave></pitch>
        <duration>4</duration>
        <voice>3</voice>
        <type>quarter</type>
        <staff>2</staff>
      </note>
      <note>
        <chord/>
        <pitch><step>B</step><octave>3</octave></pitch>
        <duration>4</duration>
        <voice>3</voice>
        <type>quarter</type>
        <staff>2</staff>
      </note>
      <note>
        <pitch><step>E</step><octave>3</octave></pitch>
        <duration>4</duration>
        <voice>3</voice>
        <type>quarter</type>
        <staff>2</staff>
      </note>
      <note>
        <chord/>
        <pitch><step>G</step><alter>1</alter><octave>3</octave></pitch>
        <duration>4</duration>
        <voice>3</voice>
        <type>quarter</type>
        <staff>2</staff>
      </note>
      <note>
        <chord/>
        <pitch><step>B</step><octave>3</octave></pitch>
        <duration>4</duration>
        <voice>3</voice>
        <type>quarter</type>
        <staff>2</staff>
      </note>
    </measure>

    <!-- ==================== MEASURE 15 (F#m7: returning to A major via ii-V) ==================== -->
    <measure number="15">
      <!-- TREBLE: E5 quarter, C#5-A4 eighths, quarter rest -->
      <note>
        <pitch><step>E</step><octave>5</octave></pitch>
        <duration>4</duration>
        <voice>1</voice>
        <type>quarter</type>
        <staff>1</staff>
      </note>
      <note>
        <pitch><step>C</step><alter>1</alter><octave>5</octave></pitch>
        <duration>2</duration>
        <voice>1</voice>
        <type>eighth</type>
        <staff>1</staff>
      </note>
      <note>
        <pitch><step>A</step><octave>4</octave></pitch>
        <duration>2</duration>
        <voice>1</voice>
        <type>eighth</type>
        <staff>1</staff>
      </note>
      <!-- REST: breathing -->
      <note>
        <rest/>
        <duration>4</duration>
        <voice>1</voice>
        <type>quarter</type>
        <staff>1</staff>
      </note>
      <backup><duration>12</duration></backup>
      <!-- BASS: F#2 + F#m7 (F#3-A3-C#4-E4) -->
      <note>
        <pitch><step>F</step><alter>1</alter><octave>2</octave></pitch>
        <duration>4</duration>
        <voice>3</voice>
        <type>quarter</type>
        <staff>2</staff>
        <notations>
          <articulations><staccato/></articulations>
        </notations>
      </note>
      <note>
        <pitch><step>F</step><alter>1</alter><octave>3</octave></pitch>
        <duration>4</duration>
        <voice>3</voice>
        <type>quarter</type>
        <staff>2</staff>
      </note>
      <note>
        <chord/>
        <pitch><step>A</step><octave>3</octave></pitch>
        <duration>4</duration>
        <voice>3</voice>
        <type>quarter</type>
        <staff>2</staff>
      </note>
      <note>
        <chord/>
        <pitch><step>C</step><alter>1</alter><octave>4</octave></pitch>
        <duration>4</duration>
        <voice>3</voice>
        <type>quarter</type>
        <staff>2</staff>
      </note>
      <note>
        <chord/>
        <pitch><step>E</step><octave>4</octave></pitch>
        <duration>4</duration>
        <voice>3</voice>
        <type>quarter</type>
        <staff>2</staff>
      </note>
      <note>
        <pitch><step>F</step><alter>1</alter><octave>3</octave></pitch>
        <duration>4</duration>
        <voice>3</voice>
        <type>quarter</type>
        <staff>2</staff>
      </note>
      <note>
        <chord/>
        <pitch><step>A</step><octave>3</octave></pitch>
        <duration>4</duration>
        <voice>3</voice>
        <type>quarter</type>
        <staff>2</staff>
      </note>
      <note>
        <chord/>
        <pitch><step>C</step><alter>1</alter><octave>4</octave></pitch>
        <duration>4</duration>
        <voice>3</voice>
        <type>quarter</type>
        <staff>2</staff>
      </note>
    </measure>

    <!-- ==================== MEASURE 16 (Bdim7: chromatic approach chord, diminished) ==================== -->
    <measure number="16">
      <direction placement="below">
        <direction-type><wedge type="crescendo"/></direction-type>
        <staff>1</staff>
      </direction>
      <!-- TREBLE: motif fragment varied: F#4-G#4 eighths, A4 dotted quarter, eighth rest -->
      <note>
        <pitch><step>F</step><alter>1</alter><octave>4</octave></pitch>
        <duration>2</duration>
        <voice>1</voice>
        <type>eighth</type>
        <staff>1</staff>
        <notations>
          <slur type="start" number="1"/>
        </notations>
      </note>
      <note>
        <pitch><step>G</step><alter>1</alter><octave>4</octave></pitch>
        <duration>2</duration>
        <voice>1</voice>
        <type>eighth</type>
        <staff>1</staff>
      </note>
      <note>
        <pitch><step>A</step><octave>4</octave></pitch>
        <duration>6</duration>
        <voice>1</voice>
        <type>quarter</type>
        <dot/>
        <staff>1</staff>
      </note>
      <note>
        <rest/>
        <duration>2</duration>
        <voice>1</voice>
        <type>eighth</type>
        <staff>1</staff>
      </note>
      <backup><duration>12</duration></backup>
      <!-- BASS: B2 + Bdim7 (B3-D4-F4-Ab4) - chromatic borrowed chord -->
      <note>
        <pitch><step>B</step><octave>2</octave></pitch>
        <duration>4</duration>
        <voice>3</voice>
        <type>quarter</type>
        <staff>2</staff>
        <notations>
          <articulations><staccato/></articulations>
        </notations>
      </note>
      <note>
        <pitch><step>B</step><octave>3</octave></pitch>
        <duration>4</duration>
        <voice>3</voice>
        <type>quarter</type>
        <staff>2</staff>
      </note>
      <note>
        <chord/>
        <pitch><step>D</step><octave>4</octave></pitch>
        <duration>4</duration>
        <voice>3</voice>
        <type>quarter</type>
        <staff>2</staff>
      </note>
      <note>
        <chord/>
        <pitch><step>F</step><octave>4</octave></pitch>
        <duration>4</duration>
        <voice>3</voice>
        <type>quarter</type>
        <staff>2</staff>
        <accidental>natural</accidental>
      </note>
      <note>
        <pitch><step>B</step><octave>3</octave></pitch>
        <duration>4</duration>
        <voice>3</voice>
        <type>quarter</type>
        <staff>2</staff>
      </note>
      <note>
        <chord/>
        <pitch><step>D</step><octave>4</octave></pitch>
        <duration>4</duration>
        <voice>3</voice>
        <type>quarter</type>
        <staff>2</staff>
      </note>
      <note>
        <chord/>
        <pitch><step>A</step><alter>-1</alter><octave>4</octave></pitch>
        <duration>4</duration>
        <voice>3</voice>
        <type>quarter</type>
        <staff>2</staff>
        <accidental>flat</accidental>
      </note>
    </measure>

    <!-- ==================== MEASURE 17 (D section: borrowed bVI = F major, from parallel minor) ==================== -->
    <measure number="17">
      <direction placement="below">
        <direction-type><wedge type="stop"/></direction-type>
        <staff>1</staff>
      </direction>
      <direction placement="below">
        <direction-type><dynamics><f/></dynamics></direction-type>
        <staff>1</staff>
        <sound dynamics="96"/>
      </direction>
      <!-- TREBLE: C5 (natural!) quarter, A4-F4 eighths (borrowed bVI chord tones), C5 quarter -->
      <note>
        <pitch><step>C</step><octave>5</octave></pitch>
        <duration>4</duration>
        <voice>1</voice>
        <type>quarter</type>
        <staff>1</staff>
        <accidental>natural</accidental>
        <notations>
          <articulations><accent/></articulations>
        </notations>
      </note>
      <note>
        <pitch><step>A</step><octave>4</octave></pitch>
        <duration>2</duration>
        <voice>1</voice>
        <type>eighth</type>
        <staff>1</staff>
      </note>
      <note>
        <pitch><step>F</step><octave>4</octave></pitch>
        <duration>2</duration>
        <voice>1</voice>
        <type>eighth</type>
        <staff>1</staff>
        <accidental>natural</accidental>
      </note>
      <note>
        <pitch><step>C</step><octave>5</octave></pitch>
        <duration>4</duration>
        <voice>1</voice>
        <type>quarter</type>
        <staff>1</staff>
      </note>
      <backup><duration>12</duration></backup>
      <!-- BASS: F2 + F major chord (F3-A3-C4) = bVI borrowed from A minor -->
      <note>
        <pitch><step>F</step><octave>2</octave></pitch>
        <duration>4</duration>
        <voice>3</voice>
        <type>quarter</type>
        <staff>2</staff>
        <accidental>natural</accidental>
        <notations>
          <articulations><staccato/></articulations>
        </notations>
      </note>
      <note>
        <pitch><step>F</step><octave>3</octave></pitch>
        <duration>4</duration>
        <voice>3</voice>
        <type>quarter</type>
        <staff>2</staff>
      </note>
      <note>
        <chord/>
        <pitch><step>A</step><octave>3</octave></pitch>
        <duration>4</duration>
        <voice>3</voice>
        <type>quarter</type>
        <staff>2</staff>
      </note>
      <note>
        <chord/>
        <pitch><step>C</step><octave>4</octave></pitch>
        <duration>4</duration>
        <voice>3</voice>
        <type>quarter</type>
        <staff>2</staff>
      </note>
      <note>
        <pitch><step>F</step><octave>3</octave></pitch>
        <duration>4</duration>
        <voice>3</voice>
        <type>quarter</type>
        <staff>2</staff>
      </note>
      <note>
        <chord/>
        <pitch><step>A</step><octave>3</octave></pitch>
        <duration>4</duration>
        <voice>3</voice>
        <type>quarter</type>
        <staff>2</staff>
      </note>
      <note>
        <chord/>
        <pitch><step>C</step><octave>4</octave></pitch>
        <duration>4</duration>
        <voice>3</voice>
        <type>quarter</type>
        <staff>2</staff>
      </note>
    </measure>

    <!-- ==================== MEASURE 18 (Dm: borrowed iv from parallel minor) ==================== -->
    <measure number="18">
      <!-- TREBLE: D5 dotted quarter, C5(nat) eighth, A4 quarter -->
      <note>
        <pitch><step>D</step><octave>5</octave></pitch>
        <duration>6</duration>
        <voice>1</voice>
        <type>quarter</type>
        <dot/>
        <staff>1</staff>
      </note>
      <note>
        <pitch><step>C</step><octave>5</octave></pitch>
        <duration>2</duration>
        <voice>1</voice>
        <type>eighth</type>
        <staff>1</staff>
      </note>
      <note>
        <pitch><step>A</step><octave>4</octave></pitch>
        <duration>4</duration>
        <voice>1</voice>
        <type>quarter</type>
        <staff>1</staff>
        <notations>
          <slur type="stop" number="1"/>
        </notations>
      </note>
      <backup><duration>12</duration></backup>
      <!-- BASS: D3 + Dm chord (D3-F3-A3) = iv borrowed -->
      <note>
        <pitch><step>D</step><octave>3</octave></pitch>
        <duration>4</duration>
        <voice>3</voice>
        <type>quarter</type>
        <staff>2</staff>
        <notations>
          <articulations><staccato/></articulations>
        </notations>
      </note>
      <note>
        <pitch><step>D</step><octave>3</octave></pitch>
        <duration>4</duration>
        <voice>3</voice>
        <type>quarter</type>
        <staff>2</staff>
      </note>
      <note>
        <chord/>
        <pitch><step>F</step><octave>3</octave></pitch>
        <duration>4</duration>
        <voice>3</voice>
        <type>quarter</type>
        <staff>2</staff>
      </note>
      <note>
        <chord/>
        <pitch><step>A</step><octave>3</octave></pitch>
        <duration>4</duration>
        <voice>3</voice>
        <type>quarter</type>
        <staff>2</staff>
      </note>
      <note>
        <pitch><step>D</step><octave>3</octave></pitch>
        <duration>4</duration>
        <voice>3</voice>
        <type>quarter</type>
        <staff>2</staff>
      </note>
      <note>
        <chord/>
        <pitch><step>F</step><octave>3</octave></pitch>
        <duration>4</duration>
        <voice>3</voice>
        <type>quarter</type>
        <staff>2</staff>
      </note>
      <note>
        <chord/>
        <pitch><step>A</step><octave>3</octave></pitch>
        <duration>4</duration>
        <voice>3</voice>
        <type>quarter</type>
        <staff>2</staff>
      </note>
    </measure>

    <!-- ==================== MEASURE 19 (Augmented: C+ = chromatic approach to I) ==================== -->
    <measure number="19">
      <!-- TREBLE: quarter rest, then E4-G#4 eighths (low register!), C5 quarter -->
      <note>
        <rest/>
        <duration>4</duration>
        <voice>1</voice>
        <type>quarter</type>
        <staff>1</staff>
      </note>
      <note>
        <pitch><step>E</step><octave>4</octave></pitch>
        <duration>2</duration>
        <voice>1</voice>
        <type>eighth</type>
        <staff>1</staff>
        <notations>
          <slur type="start" number="1"/>
        </notations>
      </note>
      <note>
        <pitch><step>G</step><alter>1</alter><octave>4</octave></pitch>
        <duration>2</duration>
        <voice>1</voice>
        <type>eighth</type>
        <staff>1</staff>
      </note>
      <note>
        <pitch><step>C</step><octave>5</octave></pitch>
        <duration>4</duration>
        <voice>1</voice>
        <type>quarter</type>
        <staff>1</staff>
      </note>
      <backup><duration>12</duration></backup>
      <!-- BASS: C3 + C augmented (C3-E3-G#3) -->
      <note>
        <pitch><step>C</step><octave>3</octave></pitch>
        <duration>4</duration>
        <voice>3</voice>
        <type>quarter</type>
        <staff>2</staff>
        <accidental>natural</accidental>
        <notations>
          <articulations><staccato/></articulations>
        </notations>
      </note>
      <note>
        <pitch><step>C</step><octave>3</octave></pitch>
        <duration>4</duration>
        <voice>3</voice>
        <type>quarter</type>
        <staff>2</staff>
      </note>
      <note>
        <chord/>
        <pitch><step>E</step><octave>3</octave></pitch>
        <duration>4</duration>
        <voice>3</voice>
        <type>quarter</type>
        <staff>2</staff>
      </note>
      <note>
        <chord/>
        <pitch><step>G</step><alter>1</alter><octave>3</octave></pitch>
        <duration>4</duration>
        <voice>3</voice>
        <type>quarter</type>
        <staff>2</staff>
      </note>
      <note>
        <pitch><step>C</step><octave>3</octave></pitch>
        <duration>4</duration>
        <voice>3</voice>
        <type>quarter</type>
        <staff>2</staff>
      </note>
      <note>
        <chord/>
        <pitch><step>E</step><octave>3</octave></pitch>
        <duration>4</duration>
        <voice>3</voice>
        <type>quarter</type>
        <staff>2</staff>
      </note>
      <note>
        <chord/>
        <pitch><step>G</step><alter>1</alter><octave>3</octave></pitch>
        <duration>4</duration>
        <voice>3</voice>
        <type>quarter</type>
        <staff>2</staff>
      </note>
    </measure>

    <!-- ==================== MEASURE 20 (E7: dominant preparation, building to return) ==================== -->
    <measure number="20">
      <!-- Decrescendo -->
      <direction placement="below">
        <direction-type><wedge type="diminuendo"/></direction-type>
        <staff>1</staff>
      </direction>
      <!-- TREBLE: B4 dotted quarter, A4 sixteenth-G#4 sixteenth, E4 quarter -->
      <note>
        <pitch><step>B</step><octave>4</octave></pitch>
        <duration>6</duration>
        <voice>1</voice>
        <type>quarter</type>
        <dot/>
        <staff>1</staff>
      </note>
      <note>
        <pitch><step>A</step><octave>4</octave></pitch>
        <duration>1</duration>
        <voice>1</voice>
        <type>16th</type>
        <staff>1</staff>
      </note>
      <note>
        <pitch><step>G</step><alter>1</alter><octave>4</octave></pitch>
        <duration>1</duration>
        <voice>1</voice>
        <type>16th</type>
        <staff>1</staff>
      </note>
      <note>
        <pitch><step>E</step><octave>4</octave></pitch>
        <duration>4</duration>
        <voice>1</voice>
        <type>quarter</type>
        <staff>1</staff>
        <notations>
          <slur type="stop" number="1"/>
        </notations>
      </note>
      <backup><duration>12</duration></backup>
      <!-- BASS: E2 + E7 (E3-G#3-B3-D4) -->
      <note>
        <pitch><step>E</step><octave>2</octave></pitch>
        <duration>4</duration>
        <voice>3</voice>
        <type>quarter</type>
        <staff>2</staff>
        <notations>
          <articulations><staccato/></articulations>
        </notations>
      </note>
      <note>
        <pitch><step>E</step><octave>3</octave></pitch>
        <duration>4</duration>
        <voice>3</voice>
        <type>quarter</type>
        <staff>2</staff>
      </note>
      <note>
        <chord/>
        <pitch><step>G</step><alter>1</alter><octave>3</octave></pitch>
        <duration>4</duration>
        <voice>3</voice>
        <type>quarter</type>
        <staff>2</staff>
      </note>
      <note>
        <chord/>
        <pitch><step>B</step><octave>3</octave></pitch>
        <duration>4</duration>
        <voice>3</voice>
        <type>quarter</type>
        <staff>2</staff>
      </note>
      <note>
        <chord/>
        <pitch><step>D</step><octave>4</octave></pitch>
        <duration>4</duration>
        <voice>3</voice>
        <type>quarter</type>
        <staff>2</staff>
      </note>
      <note>
        <pitch><step>E</step><octave>3</octave></pitch>
        <duration>4</duration>
        <voice>3</voice>
        <type>quarter</type>
        <staff>2</staff>
      </note>
      <note>
        <chord/>
        <pitch><step>G</step><alter>1</alter><octave>3</octave></pitch>
        <duration>4</duration>
        <voice>3</voice>
        <type>quarter</type>
        <staff>2</staff>
      </note>
      <note>
        <chord/>
        <pitch><step>B</step><octave>3</octave></pitch>
        <duration>4</duration>
        <voice>3</voice>
        <type>quarter</type>
        <staff>2</staff>
      </note>
    </measure>

    <!-- ==================== MEASURE 21 (A' return: I Amaj7, p, opening motif returns!) ==================== -->
    <measure number="21">
      <direction placement="below">
        <direction-type><wedge type="stop"/></direction-type>
        <staff>1</staff>
      </direction>
      <direction placement="below">
        <direction-type><dynamics><p/></dynamics></direction-type>
        <staff>1</staff>
        <sound dynamics="54"/>
      </direction>
      <!-- TREBLE: EXACT motif return: rest, E5-F#5 eighths, A5 quarter [MOTIF a return] -->
      <note>
        <rest/>
        <duration>4</duration>
        <voice>1</voice>
        <type>quarter</type>
        <staff>1</staff>
      </note>
      <note>
        <pitch><step>E</step><octave>5</octave></pitch>
        <duration>2</duration>
        <voice>1</voice>
        <type>eighth</type>
        <staff>1</staff>
        <notations>
          <slur type="start" number="1"/>
        </notations>
      </note>
      <note>
        <pitch><step>F</step><alter>1</alter><octave>5</octave></pitch>
        <duration>2</duration>
        <voice>1</voice>
        <type>eighth</type>
        <staff>1</staff>
      </note>
      <note>
        <pitch><step>A</step><octave>5</octave></pitch>
        <duration>4</duration>
        <voice>1</voice>
        <type>quarter</type>
        <staff>1</staff>
      </note>
      <backup><duration>12</duration></backup>
      <!-- BASS: A2 + Amaj7 (A3-C#4-E4-G#4) -->
      <note>
        <pitch><step>A</step><octave>2</octave></pitch>
        <duration>4</duration>
        <voice>3</voice>
        <type>quarter</type>
        <staff>2</staff>
        <notations>
          <articulations><staccato/></articulations>
        </notations>
      </note>
      <note>
        <pitch><step>A</step><octave>3</octave></pitch>
        <duration>4</duration>
        <voice>3</voice>
        <type>quarter</type>
        <staff>2</staff>
      </note>
      <note>
        <chord/>
        <pitch><step>C</step><alter>1</alter><octave>4</octave></pitch>
        <duration>4</duration>
        <voice>3</voice>
        <type>quarter</type>
        <staff>2</staff>
      </note>
      <note>
        <chord/>
        <pitch><step>E</step><octave>4</octave></pitch>
        <duration>4</duration>
        <voice>3</voice>
        <type>quarter</type>
        <staff>2</staff>
      </note>
      <note>
        <chord/>
        <pitch><step>G</step><alter>1</alter><octave>4</octave></pitch>
        <duration>4</duration>
        <voice>3</voice>
        <type>quarter</type>
        <staff>2</staff>
      </note>
      <note>
        <pitch><step>A</step><octave>3</octave></pitch>
        <duration>4</duration>
        <voice>3</voice>
        <type>quarter</type>
        <staff>2</staff>
      </note>
      <note>
        <chord/>
        <pitch><step>C</step><alter>1</alter><octave>4</octave></pitch>
        <duration>4</duration>
        <voice>3</voice>
        <type>quarter</type>
        <staff>2</staff>
      </note>
      <note>
        <chord/>
        <pitch><step>E</step><octave>4</octave></pitch>
        <duration>4</duration>
        <voice>3</voice>
        <type>quarter</type>
        <staff>2</staff>
      </note>
    </measure>

    <!-- ==================== MEASURE 22 (I, motif answer with added B5 reaching higher) ==================== -->
    <measure number="22">
      <!-- TREBLE: G#5 dotted quarter, chromatic turn: F#5 sixteenth E#5 sixteenth, E5 quarter -->
      <note>
        <pitch><step>G</step><alter>1</alter><octave>5</octave></pitch>
        <duration>6</duration>
        <voice>1</voice>
        <type>quarter</type>
        <dot/>
        <staff>1</staff>
      </note>
      <note>
        <pitch><step>F</step><alter>1</alter><octave>5</octave></pitch>
        <duration>1</duration>
        <voice>1</voice>
        <type>16th</type>
        <staff>1</staff>
      </note>
      <note>
        <pitch><step>E</step><alter>1</alter><octave>5</octave></pitch>
        <duration>1</duration>
        <voice>1</voice>
        <type>16th</type>
        <staff>1</staff>
        <accidental>sharp</accidental>
      </note>
      <note>
        <pitch><step>E</step><octave>5</octave></pitch>
        <duration>4</duration>
        <voice>1</voice>
        <type>quarter</type>
        <staff>1</staff>
      </note>
      <backup><duration>12</duration></backup>
      <!-- BASS: A2 + A triad -->
      <note>
        <pitch><step>A</step><octave>2</octave></pitch>
        <duration>4</duration>
        <voice>3</voice>
        <type>quarter</type>
        <staff>2</staff>
        <notations>
          <articulations><staccato/></articulations>
        </notations>
      </note>
      <note>
        <pitch><step>A</step><octave>3</octave></pitch>
        <duration>4</duration>
        <voice>3</voice>
        <type>quarter</type>
        <staff>2</staff>
      </note>
      <note>
        <chord/>
        <pitch><step>C</step><alter>1</alter><octave>4</octave></pitch>
        <duration>4</duration>
        <voice>3</voice>
        <type>quarter</type>
        <staff>2</staff>
      </note>
      <note>
        <chord/>
        <pitch><step>E</step><octave>4</octave></pitch>
        <duration>4</duration>
        <voice>3</voice>
        <type>quarter</type>
        <staff>2</staff>
      </note>
      <note>
        <pitch><step>A</step><octave>3</octave></pitch>
        <duration>4</duration>
        <voice>3</voice>
        <type>quarter</type>
        <staff>2</staff>
      </note>
      <note>
        <chord/>
        <pitch><step>C</step><alter>1</alter><octave>4</octave></pitch>
        <duration>4</duration>
        <voice>3</voice>
        <type>quarter</type>
        <staff>2</staff>
      </note>
      <note>
        <chord/>
        <pitch><step>E</step><octave>4</octave></pitch>
        <duration>4</duration>
        <voice>3</voice>
        <type>quarter</type>
        <staff>2</staff>
      </note>
    </measure>

    <!-- ==================== MEASURE 23 (IV: Dmaj7, motif at IV again with variation) ==================== -->
    <measure number="23">
      <!-- TREBLE: D5-E5 eighths (motif head), F#5 dotted quarter, rest eighth -->
      <note>
        <pitch><step>D</step><octave>5</octave></pitch>
        <duration>2</duration>
        <voice>1</voice>
        <type>eighth</type>
        <staff>1</staff>
      </note>
      <note>
        <pitch><step>E</step><octave>5</octave></pitch>
        <duration>2</duration>
        <voice>1</voice>
        <type>eighth</type>
        <staff>1</staff>
      </note>
      <note>
        <pitch><step>F</step><alter>1</alter><octave>5</octave></pitch>
        <duration>6</duration>
        <voice>1</voice>
        <type>quarter</type>
        <dot/>
        <staff>1</staff>
      </note>
      <!-- REST -->
      <note>
        <rest/>
        <duration>2</duration>
        <voice>1</voice>
        <type>eighth</type>
        <staff>1</staff>
      </note>
      <backup><duration>12</duration></backup>
      <!-- BASS: D3 + D6 chord (D3-F#3-A3-B3) = Dmaj add6 -->
      <note>
        <pitch><step>D</step><octave>3</octave></pitch>
        <duration>4</duration>
        <voice>3</voice>
        <type>quarter</type>
        <staff>2</staff>
        <notations>
          <articulations><staccato/></articulations>
        </notations>
      </note>
      <note>
        <pitch><step>F</step><alter>1</alter><octave>3</octave></pitch>
        <duration>4</duration>
        <voice>3</voice>
        <type>quarter</type>
        <staff>2</staff>
      </note>
      <note>
        <chord/>
        <pitch><step>A</step><octave>3</octave></pitch>
        <duration>4</duration>
        <voice>3</voice>
        <type>quarter</type>
        <staff>2</staff>
      </note>
      <note>
        <chord/>
        <pitch><step>B</step><octave>3</octave></pitch>
        <duration>4</duration>
        <voice>3</voice>
        <type>quarter</type>
        <staff>2</staff>
      </note>
      <note>
        <pitch><step>D</step><octave>3</octave></pitch>
        <duration>4</duration>
        <voice>3</voice>
        <type>quarter</type>
        <staff>2</staff>
      </note>
      <note>
        <chord/>
        <pitch><step>F</step><alter>1</alter><octave>3</octave></pitch>
        <duration>4</duration>
        <voice>3</voice>
        <type>quarter</type>
        <staff>2</staff>
      </note>
      <note>
        <chord/>
        <pitch><step>A</step><octave>3</octave></pitch>
        <duration>4</duration>
        <voice>3</voice>
        <type>quarter</type>
        <staff>2</staff>
      </note>
    </measure>

    <!-- ==================== MEASURE 24 (V7: authentic cadence prep, rit.) ==================== -->
    <measure number="24">
      <direction placement="above">
        <direction-type>
          <words default-y="20" font-size="10" font-style="italic">rit.</words>
        </direction-type>
      </direction>
      <!-- TREBLE: G#4-B4 eighths, E5 quarter, D5 quarter -->
      <note>
        <pitch><step>G</step><alter>1</alter><octave>4</octave></pitch>
        <duration>2</duration>
        <voice>1</voice>
        <type>eighth</type>
        <staff>1</staff>
      </note>
      <note>
        <pitch><step>B</step><octave>4</octave></pitch>
        <duration>2</duration>
        <voice>1</voice>
        <type>eighth</type>
        <staff>1</staff>
      </note>
      <note>
        <pitch><step>E</step><octave>5</octave></pitch>
        <duration>4</duration>
        <voice>1</voice>
        <type>quarter</type>
        <staff>1</staff>
      </note>
      <note>
        <pitch><step>D</step><octave>5</octave></pitch>
        <duration>4</duration>
        <voice>1</voice>
        <type>quarter</type>
        <staff>1</staff>
        <notations>
          <slur type="stop" number="1"/>
        </notations>
      </note>
      <backup><duration>12</duration></backup>
      <!-- BASS: E2 + E7sus4 then E7 -->
      <note>
        <pitch><step>E</step><octave>2</octave></pitch>
        <duration>4</duration>
        <voice>3</voice>
        <type>quarter</type>
        <staff>2</staff>
        <notations>
          <articulations><staccato/></articulations>
        </notations>
      </note>
      <note>
        <pitch><step>E</step><octave>3</octave></pitch>
        <duration>4</duration>
        <voice>3</voice>
        <type>quarter</type>
        <staff>2</staff>
      </note>
      <note>
        <chord/>
        <pitch><step>A</step><octave>3</octave></pitch>
        <duration>4</duration>
        <voice>3</voice>
        <type>quarter</type>
        <staff>2</staff>
      </note>
      <note>
        <chord/>
        <pitch><step>B</step><octave>3</octave></pitch>
        <duration>4</duration>
        <voice>3</voice>
        <type>quarter</type>
        <staff>2</staff>
      </note>
      <note>
        <chord/>
        <pitch><step>D</step><octave>4</octave></pitch>
        <duration>4</duration>
        <voice>3</voice>
        <type>quarter</type>
        <staff>2</staff>
      </note>
      <note>
        <pitch><step>E</step><octave>3</octave></pitch>
        <duration>4</duration>
        <voice>3</voice>
        <type>quarter</type>
        <staff>2</staff>
      </note>
      <note>
        <chord/>
        <pitch><step>G</step><alter>1</alter><octave>3</octave></pitch>
        <duration>4</duration>
        <voice>3</voice>
        <type>quarter</type>
        <staff>2</staff>
      </note>
      <note>
        <chord/>
        <pitch><step>B</step><octave>3</octave></pitch>
        <duration>4</duration>
        <voice>3</voice>
        <type>quarter</type>
        <staff>2</staff>
      </note>
      <note>
        <chord/>
        <pitch><step>D</step><octave>4</octave></pitch>
        <duration>4</duration>
        <voice>3</voice>
        <type>quarter</type>
        <staff>2</staff>
      </note>
    </measure>

    <!-- ==================== MEASURE 25 (I: final resolution, pp) ==================== -->
    <measure number="25">
      <direction placement="below">
        <direction-type><dynamics><pp/></dynamics></direction-type>
        <staff>1</staff>
        <sound dynamics="36"/>
      </direction>
      <!-- TREBLE: C#5 quarter, A4 half (resolving to tonic, as original) -->
      <note>
        <pitch><step>C</step><alter>1</alter><octave>5</octave></pitch>
        <duration>4</duration>
        <voice>1</voice>
        <type>quarter</type>
        <staff>1</staff>
      </note>
      <note>
        <pitch><step>A</step><octave>4</octave></pitch>
        <duration>8</duration>
        <voice>1</voice>
        <type>half</type>
        <staff>1</staff>
        <notations>
          <fermata/>
        </notations>
      </note>
      <backup><duration>12</duration></backup>
      <!-- BASS: A2 dotted half (sustained tonic) + full A chord -->
      <note>
        <pitch><step>A</step><octave>2</octave></pitch>
        <duration>12</duration>
        <voice>3</voice>
        <type>half</type>
        <dot/>
        <staff>2</staff>
        <notations>
          <fermata/>
        </notations>
      </note>
      <note>
        <chord/>
        <pitch><step>A</step><octave>3</octave></pitch>
        <duration>12</duration>
        <voice>3</voice>
        <type>half</type>
        <dot/>
        <staff>2</staff>
      </note>
      <note>
        <chord/>
        <pitch><step>C</step><alter>1</alter><octave>4</octave></pitch>
        <duration>12</duration>
        <voice>3</voice>
        <type>half</type>
        <dot/>
        <staff>2</staff>
      </note>
      <note>
        <chord/>
        <pitch><step>E</step><octave>4</octave></pitch>
        <duration>12</duration>
        <voice>3</voice>
        <type>half</type>
        <dot/>
        <staff>2</staff>
      </note>
      <barline location="right">
        <bar-style>light-heavy</bar-style>
      </barline>
    </measure>

  </part>
</score-partwise>
